<?xml version="1.0" encoding="UTF-8"?>
<svg id="Layer_2" data-name="Layer 2" xmlns="http://www.w3.org/2000/svg" viewBox="0 0 822.78 822.78">
  <defs>
    <style>
      .cls-1 {
        fill: #fff4dc;
      }

      .cls-1, .cls-2, .cls-3, .cls-4, .cls-5, .cls-6, .cls-7, .cls-8, .cls-9, .cls-10, .cls-11, .cls-12 {
        fill-rule: evenodd;
      }

      .cls-2 {
        fill: #c4e1a7;
      }

      .cls-3 {
        fill: #86a369;
      }

      .cls-4 {
        fill: #c18a82;
      }

      .cls-5 {
        fill: #fff;
      }

      .cls-6 {
        fill: #e1917e;
      }

      .cls-7 {
        fill: #f8e3c1;
      }

      .cls-8 {
        fill: #bad0a4;
      }

      .cls-9 {
        fill: #d38471;
      }

      .cls-10 {
        fill: #e1a99b;
      }

      .cls-13 {
        fill: #5f8934;
      }

      .cls-11 {
        fill: #e7ac9e;
      }

      .cls-12 {
        fill: #ab695a;
      }
    </style>
  </defs>
  <g id="Layer_1-2" data-name="Layer 1">
    <g>
      <polygon class="cls-2" points="822.78 0 0 0 0 822.78 822.78 822.78 822.78 0"/>
      <path class="cls-5" d="M76.19,85.44c31.93-31.37,144.58-31.71,326.36-17.11,154.38,12.39,299.99-24.32,343.4,4.3,23.99,15.82,29.59,153.42,14.16,309.07-16.91,170.56,26.89,313.02-20.5,355.3-38.51,34.36-195.38,31.88-377.24,13.58-145.67-14.66-254.38,29.84-291.89-13.77-35.19-40.92-3.12-181.52-1.88-342.53,1.16-149.39-25.88-275.97,7.59-308.85h0Z"/>
      <path class="cls-13" d="M574.36,748.45c-3.78,0-7.61-.02-11.48-.06-.97-.01-1.75-.8-1.74-1.77.01-.97.69-1.86,1.77-1.74,8.11.08,16,.07,23.67-.01h.02c.96,0,1.74.78,1.76,1.73.01.97-.77,1.77-1.74,1.78-4.02.04-8.11.07-12.26.07ZM553.45,748.27h-.03l-3.66-.07c-.37,0-.72-.13-1-.33-.29.19-.62.29-1.01.29l-5.71-.13c-.97-.02-1.73-.83-1.71-1.8.02-.97.76-1.59,1.8-1.71l5.7.13c.36,0,.69.12.96.31.27-.18.55-.31.97-.27l3.73.07c.97.02,1.74.82,1.73,1.78-.02.96-.8,1.73-1.76,1.73ZM594.27,748.26c-.96,0-1.74-.77-1.76-1.72-.02-.97.75-1.77,1.72-1.79l5.69-.13c.35,0,.69.09.97.26.27-.19.6-.31.96-.31l3.72-.11c.89.04,1.78.73,1.81,1.7.03.97-.73,1.78-1.7,1.81l-3.74.11c-.36,0-.69-.09-.97-.26-.27.19-.6.31-.96.31l-5.71.13h-.03ZM534.41,747.82h-.05c-7.75-.23-15.66-.53-23.71-.89-.97-.05-1.72-.86-1.68-1.83.04-.97.95-1.81,1.83-1.67,8.03.35,15.92.65,23.66.88.97.03,1.73.84,1.7,1.81-.03.95-.81,1.7-1.75,1.7ZM615.07,747.6c-.93,0-1.71-.73-1.75-1.68-.04-.97.71-1.79,1.67-1.83,8.23-.37,16.17-.87,23.59-1.48.98-.08,1.81.63,1.89,1.6.08.96-.64,1.81-1.6,1.89-7.47.62-15.45,1.12-23.72,1.49-.03,0-.05,0-.08,0ZM501.29,746.49s-.06,0-.09,0l-3.73-.19c-.36-.02-.68-.14-.95-.34-.28.17-.61.27-.98.24l-5.7-.31c-.97-.05-1.71-.88-1.66-1.85.05-.97.9-1.74,1.85-1.66l5.7.31c.35.02.68.14.95.34.28-.17.59-.28.97-.24l3.73.19c.97.05,1.71.87,1.67,1.84-.05.94-.82,1.67-1.75,1.67ZM482.27,745.46s-.07,0-.1,0c-7.78-.46-15.68-.96-23.67-1.51-.97-.07-1.7-.91-1.63-1.87.07-.97.92-1.7,1.87-1.63,7.98.55,15.86,1.05,23.64,1.51.97.06,1.71.89,1.65,1.85-.05.93-.83,1.65-1.75,1.65ZM646.38,745.43c-.89,0-1.66-.68-1.74-1.58-.09-.96.61-1.82,1.58-1.92,1.91-.19,3.8-.38,5.66-.59.35-.04.69.03.98.18.25-.21.57-.36.92-.4,1.24-.14,2.47-.29,3.69-.44.97-.13,1.84.56,1.96,1.52.12.96-.56,1.84-1.52,1.96-1.23.15-2.47.3-3.72.45-.36.04-.7-.03-.99-.18-.26.21-.58.36-.93.4-1.87.21-3.77.4-5.7.6-.06,0-.12,0-.17,0ZM449.2,743.29s-.08,0-.13,0l-3.58-.26c-.38-.03-.73-.18-1.02-.41-.3.19-.66.29-1.05.25l-5.7-.44c-.97-.07-1.69-.92-1.61-1.89.08-.96.88-1.76,1.89-1.61l5.68.43c.36.03.69.16.95.37.28-.17.61-.25.97-.23l3.72.27c.97.07,1.69.91,1.62,1.88-.07.92-.84,1.63-1.75,1.63ZM667.02,742.88c-.85,0-1.6-.62-1.73-1.49-.15-.96.51-1.85,1.47-2,8.5-1.3,16.26-2.84,23.07-4.59.94-.24,1.9.33,2.14,1.27.24.94-.33,1.9-1.26,2.14-6.92,1.78-14.8,3.34-23.41,4.66-.09.01-.18.02-.27.02ZM430.2,741.84s-.09,0-.14,0c-7.8-.62-15.68-1.28-23.63-1.98-.97-.09-1.68-.94-1.6-1.9.09-.96.96-1.66,1.9-1.59,7.94.7,15.81,1.36,23.6,1.98.97.07,1.69.92,1.61,1.89-.07.92-.84,1.61-1.75,1.61ZM147.78,741.57h-1.55c-.97-.01-1.75-.8-1.74-1.77,0-.97.79-1.74,1.76-1.74h1.54c6.44,0,13.65-.23,22.05-.7.93-.09,1.8.69,1.85,1.65s-.68,1.8-1.65,1.85c-8.46.48-15.74.71-22.24.71ZM136.81,741.32s-.06,0-.09,0c-1.27-.06-2.53-.14-3.77-.23-.36-.03-.69-.16-.95-.37-.29.17-.63.24-.99.21-1.96-.16-3.88-.36-5.75-.6-.96-.12-1.64-1.01-1.52-1.96.12-.96,1.01-1.65,1.96-1.52,1.82.23,3.69.43,5.6.59.35.03.67.16.93.36.29-.16.64-.23.98-.22,1.21.09,2.44.17,3.68.23.97.05,1.71.87,1.67,1.84-.05.94-.82,1.67-1.75,1.67ZM177.59,740.38c-.92,0-1.69-.71-1.75-1.64-.07-.97.67-1.81,1.63-1.87l5.68-.4c.36-.03.69.06.98.22.26-.2.58-.33.94-.36l3.72-.29c.95-.07,1.81.65,1.88,1.62.07.97-.65,1.81-1.62,1.88l-3.72.29c-.35.02-.7-.06-.99-.22-.26.2-.59.33-.94.36l-5.7.4s-.08,0-.12,0ZM117.9,739.13c-.11,0-.23-.01-.35-.03-9.07-1.81-16.47-4.65-22.61-8.68-.81-.53-1.04-1.62-.51-2.43.53-.81,1.62-1.04,2.43-.51,5.76,3.77,12.75,6.44,21.38,8.17.95.19,1.57,1.11,1.38,2.06-.17.84-.9,1.41-1.72,1.41ZM397.18,739.02c-.05,0-.11,0-.16,0l-3.7-.34c-.35-.03-.67-.17-.93-.37-.29.16-.62.23-.99.2l-5.37-.5c-.97-.09-1.82-.96-1.73-1.93.09-.96.79-1.65,1.76-1.6l5.66.53c.35.03.67.17.93.37.29-.16.63-.22.98-.2l3.71.34c.97.09,1.67.94,1.59,1.91-.08.91-.85,1.59-1.75,1.59ZM198.34,738.8c-.9,0-1.67-.69-1.75-1.61-.08-.97.64-1.81,1.61-1.89l8.13-.68c5.05-.42,10.21-.85,15.5-1.28.95-.06,1.81.64,1.89,1.61.08.97-.64,1.81-1.61,1.89-5.28.43-10.44.86-15.48,1.28l-8.13.68s-.1,0-.15,0ZM378.27,737.24c-.06,0-.11,0-.17,0-4.5-.44-9.02-.88-13.55-1.34-3.36-.34-6.7-.64-10.02-.92-.97-.08-1.68-.93-1.61-1.89.08-.97.91-1.66,1.89-1.6,3.34.27,6.7.58,10.08.92,4.53.46,9.04.9,13.54,1.33.97.1,1.67.95,1.58,1.92-.09.91-.85,1.59-1.75,1.59ZM229.62,736.23c-.91,0-1.68-.7-1.75-1.62-.08-.97.65-1.81,1.61-1.89l5.7-.44c.36-.03.69.06.98.22.26-.2.59-.33.94-.36l3.73-.27c.98-.07,1.81.66,1.88,1.62.07.97-.66,1.81-1.62,1.88l-3.72.27c-.35.02-.69-.06-.98-.22-.26.2-.59.33-.94.36l-5.68.43s-.09,0-.14,0ZM697.66,736.16c-.75,0-1.44-.48-1.68-1.24-.29-.93.23-1.91,1.16-2.19,1.85-.57,3.63-1.17,5.34-1.78.33-.12.67-.14.99-.06.19-.26.46-.47.79-.6,1.17-.44,2.3-.9,3.4-1.36.89-.38,1.92.04,2.3.93.38.89-.03,1.92-.93,2.3-1.14.49-2.31.96-3.53,1.42-.34.12-.69.15-1.02.07-.2.27-.48.49-.82.61-1.76.63-3.59,1.24-5.49,1.83-.17.05-.35.08-.52.08ZM250.38,734.76c-.92,0-1.69-.72-1.75-1.65-.06-.97.67-1.8,1.64-1.86,8.34-.53,16.1-.92,23.71-1.22.94,0,1.79.72,1.82,1.69.04.97-.72,1.79-1.69,1.82-7.58.29-15.31.69-23.63,1.21-.04,0-.07,0-.11,0ZM345.26,734.29s-.08,0-.12,0l-3.71-.23c-.36-.02-.68-.14-.95-.34-.29.17-.63.27-.98.23-1.9-.11-3.8-.21-5.68-.3-.97-.05-1.72-.87-1.67-1.83.05-.97.88-1.81,1.84-1.67,1.9.09,3.8.19,5.72.3.36.02.68.14.95.34.29-.17.64-.27.98-.23l3.74.23c.97.06,1.7.9,1.64,1.87-.06.93-.83,1.64-1.75,1.64ZM326.23,733.34h-.06c-7.31-.25-14.88-.38-22.52-.38h-1.11c-.97,0-1.76-.79-1.76-1.76s.79-1.76,1.76-1.76h1.11c7.68,0,15.3.13,22.64.38.97.03,1.73.85,1.69,1.82-.03.95-.81,1.69-1.75,1.69ZM281.73,733.29c-.95,0-1.72-.75-1.75-1.7-.03-.97.73-1.78,1.7-1.81,1.9-.06,3.8-.11,5.72-.15.36,0,.69.09.97.27.27-.19.6-.3.95-.31l3.75-.06h.02c.96,0,1.74.77,1.76,1.73.01.97-.76,1.77-1.73,1.78l-3.72.06c-.43-.03-.69-.09-.97-.27-.27.19-.6.3-.96.31-1.91.04-3.8.09-5.69.15-.02,0-.04,0-.06,0ZM716.77,728.08c-.6,0-1.18-.31-1.51-.86-.49-.84-.22-1.91.62-2.41,2.6-1.54,4.88-3.18,6.8-4.89,3.43-3.06,6.45-6.81,8.97-11.17.48-.84,1.55-1.13,2.4-.64.84.49,1.12,1.56.64,2.4-2.72,4.68-5.97,8.73-9.67,12.03-2.09,1.86-4.56,3.64-7.35,5.29-.28.16-.59.24-.89.24ZM88.63,724.74c-.46,0-.91-.18-1.26-.53-.63-.65-1.25-1.32-1.85-2.02l-.74-.89c-.23-.29-.36-.63-.39-.97-.33-.11-.62-.33-.84-.62-1.12-1.53-2.18-3.22-3.16-5.01-.46-.85-.15-1.92.7-2.38.85-.47,1.92-.15,2.38.7.9,1.66,1.89,3.21,2.91,4.62.2.27.31.59.33.91.3.11.57.29.79.56l.67.81c.55.64,1.12,1.26,1.7,1.85.68.69.66,1.8-.03,2.48-.34.33-.78.5-1.23.5ZM78.74,708.63c-.71,0-1.37-.43-1.64-1.13-2.5-6.52-4.33-14.17-5.59-23.39-.13-.96.54-1.84,1.5-1.97.96-.13,1.85.54,1.98,1.5,1.23,8.95,2.99,16.34,5.39,22.61.35.91-.1,1.92-1.01,2.27-.21.08-.42.12-.63.12ZM736.58,704.51c-.23,0-.46-.05-.69-.14-.89-.38-1.31-1.41-.93-2.3.71-1.67,1.37-3.41,1.98-5.21.11-.33.31-.61.57-.81-.09-.31-.09-.66.02-.99.36-1.15.7-2.32,1.03-3.52.26-.94,1.22-1.48,2.16-1.23.93.25,1.49,1.22,1.23,2.15-.34,1.24-.69,2.45-1.07,3.65-.11.35-.32.64-.58.85.09.33.09.68-.03,1.03-.64,1.89-1.33,3.7-2.07,5.45-.28.67-.93,1.07-1.62,1.07ZM742.33,684.56c-.11,0-.21-.01-.32-.03-.95-.18-1.58-1.09-1.41-2.05,1.28-6.86,2.15-14.49,2.67-23.31.06-.97.87-1.77,1.85-1.65.97.06,1.71.89,1.65,1.85-.53,8.97-1.42,16.74-2.73,23.75-.16.84-.89,1.43-1.72,1.43ZM72.21,676.25c-.9,0-1.67-.69-1.75-1.6-.11-1.23-.2-2.49-.29-3.76-.02-.36.06-.7.23-.98-.2-.27-.33-.59-.35-.95-.12-1.88-.22-3.79-.3-5.74-.04-.97.71-1.79,1.68-1.83.95,0,1.79.71,1.83,1.68.08,1.92.18,3.81.29,5.66.02.35-.06.69-.23.97.2.26.33.59.35.94.09,1.25.18,2.48.29,3.69.08.97-.63,1.82-1.6,1.9-.05,0-.1,0-.15,0ZM71.28,657.22c-.96,0-1.74-.77-1.76-1.72-.04-2.45-.07-4.96-.07-7.51,0-5.05.09-10.53.26-16.28.03-.97.87-1.59,1.81-1.7.97.03,1.73.84,1.7,1.81-.17,5.71-.26,11.15-.26,16.17,0,2.53.02,5.01.07,7.44.02.97-.75,1.77-1.72,1.79h-.03ZM745.39,653.36h-.06c-.97-.03-1.73-.85-1.69-1.81.06-1.86.11-3.76.15-5.68,0-.35.12-.68.3-.95-.18-.28-.28-.61-.27-.96l.03-3.72c0-.97.83-1.85,1.77-1.74.97,0,1.75.8,1.74,1.77l-.03,3.74c0,.36-.12.69-.3.97.18.28.28.62.27.98-.04,1.93-.09,3.85-.15,5.73-.03.95-.81,1.7-1.75,1.7ZM745.56,632.55c-.96,0-1.74-.77-1.76-1.73-.09-6.99-.31-14.72-.67-23.64-.04-.97.71-1.79,1.68-1.83.98-.02,1.79.72,1.83,1.68.36,8.96.59,16.72.67,23.74.01.97-.77,1.77-1.73,1.78,0,0-.02,0-.02,0ZM71.82,624.09h-.08c-.97-.05-1.72-.86-1.68-1.83l.16-3.55c.02-.39.16-.76.39-1.06-.2-.3-.31-.67-.29-1.06l.3-5.71c.05-.97.88-1.79,1.85-1.66.97.05,1.71.88,1.66,1.85l-.29,5.69c-.02.36-.14.69-.35.96.18.27.27.6.25.96l-.17,3.72c-.04.94-.82,1.68-1.75,1.68ZM72.81,605.07s-.07,0-.11,0c-.97-.06-1.7-.89-1.65-1.86.46-7.64,1.01-15.54,1.61-23.67.07-.97.88-1.71,1.88-1.62.97.07,1.69.91,1.62,1.88-.6,8.12-1.14,16-1.6,23.63-.06.93-.83,1.65-1.75,1.65ZM744.55,601.19c-.93,0-1.71-.73-1.75-1.68l-.27-5.69c-.02-.35.07-.69.24-.97-.2-.27-.32-.59-.34-.95l-.19-3.73c-.05-.97.7-1.79,1.66-1.84,1-.09,1.79.69,1.84,1.66l.19,3.73c.02.35-.07.69-.24.97.2.27.32.59.34.95l.27,5.71c.04.97-.71,1.79-1.67,1.83-.03,0-.05,0-.08,0ZM743.5,580.4c-.93,0-1.7-.73-1.75-1.66l-1.28-23.67c-.05-.97.69-1.79,1.66-1.84.92-.14,1.79.69,1.85,1.66l1.28,23.67c.05.97-.69,1.79-1.66,1.84-.03,0-.06,0-.1,0ZM75.13,572s-.09,0-.13,0c-.97-.07-1.69-.92-1.62-1.89l.29-3.72c.03-.36.16-.68.36-.94-.16-.29-.24-.63-.21-.98l.44-5.69c.08-.96.94-1.67,1.89-1.61.97.07,1.69.92,1.61,1.89l-.44,5.69c-.03.36-.16.68-.36.94.16.29.24.63.21.98l-.29,3.72c-.07.92-.84,1.62-1.75,1.62ZM76.61,553s-.09,0-.14,0c-.96-.07-1.69-.92-1.61-1.89l.31-3.98c.51-6.44,1.03-12.99,1.54-19.65.07-.97.89-1.77,1.89-1.61.97.07,1.69.92,1.62,1.88-.51,6.66-1.03,13.22-1.54,19.66l-.31,3.97c-.07.92-.84,1.62-1.75,1.62ZM741.83,549.07c-.93,0-1.7-.73-1.75-1.67l-.29-5.7c-.02-.36.07-.69.24-.98-.2-.27-.32-.6-.34-.95l-.18-3.73c-.04-.97.7-1.79,1.67-1.83.99-.07,1.79.7,1.84,1.67l.18,3.72c.02.36-.07.69-.24.98.2.27.32.6.34.95l.29,5.69c.05.97-.7,1.79-1.66,1.84-.03,0-.06,0-.09,0ZM740.84,528.28c-.93,0-1.71-.74-1.75-1.68-.33-7.76-.63-15.67-.86-23.71-.03-.97.74-1.78,1.71-1.81.92.02,1.78.74,1.8,1.7.23,8.03.53,15.92.86,23.66.04.97-.71,1.79-1.68,1.83h-.08ZM79.18,519.96s-.09,0-.13,0c-.97-.07-1.69-.92-1.62-1.89l.28-3.72c.03-.35.16-.68.36-.94-.16-.29-.24-.63-.22-.98l.42-5.69c.07-.97.9-1.73,1.88-1.62.97.07,1.69.92,1.62,1.88l-.42,5.69c-.03.36-.16.68-.36.94.16.29.24.63.22.99l-.28,3.72c-.07.92-.84,1.62-1.75,1.62ZM80.57,500.96s-.08,0-.12,0c-.97-.07-1.7-.91-1.63-1.88.54-7.77,1.07-15.65,1.55-23.64.06-.97.94-1.74,1.86-1.65.97.06,1.7.89,1.65,1.86-.49,8-1.01,15.89-1.56,23.67-.06.93-.83,1.63-1.75,1.63ZM739.78,496.92c-.95,0-1.73-.76-1.76-1.71l-.12-5.71c0-.36.09-.69.27-.97-.19-.27-.3-.61-.31-.96l-.06-3.74c-.01-.97.76-1.77,1.73-1.78h.02c.96,0,1.74.77,1.76,1.73l.06,3.72c0,.36-.09.69-.27.97.19.27.3.6.31.96l.12,5.7c.02.97-.75,1.77-1.72,1.8-.01,0-.03,0-.04,0ZM739.47,476.11c-.96,0-1.75-.78-1.76-1.74-.02-2.25-.02-4.49-.02-6.76,0-5.61.04-11.27.14-16.99.02-.97.92-1.78,1.78-1.72.97.02,1.74.82,1.73,1.79-.1,5.69-.14,11.34-.14,16.92,0,2.25,0,4.49.02,6.73,0,.97-.77,1.76-1.74,1.77,0,0,0,0-.01,0ZM82.68,467.88s-.07,0-.1,0c-.97-.06-1.71-.89-1.65-1.85l.2-3.72c.02-.36.14-.68.34-.95-.17-.29-.26-.62-.24-.98l.29-5.69c.05-.97.8-1.78,1.84-1.67.97.05,1.71.87,1.67,1.84l-.29,5.7c-.02.36-.14.68-.34.95.17.29.26.62.24.98l-.21,3.73c-.05.93-.82,1.66-1.75,1.66ZM83.64,448.86s-.05,0-.08,0c-.97-.04-1.72-.86-1.68-1.83.35-7.81.66-15.7.89-23.66.03-.97.94-1.7,1.81-1.7.97.03,1.73.84,1.7,1.81-.24,7.97-.54,15.89-.9,23.71-.04.94-.82,1.68-1.75,1.68ZM739.74,444.72h-.04c-.97-.02-1.74-.83-1.71-1.8.05-1.9.1-3.8.16-5.71.01-.36.13-.69.32-.96-.17-.29-.27-.62-.26-.98l.13-3.74c.04-.97.87-1.68,1.82-1.69.97.04,1.72.85,1.69,1.82l-.13,3.73c-.01.36-.13.68-.32.95.17.29.27.62.26.97-.06,1.9-.11,3.8-.16,5.69-.02.95-.81,1.71-1.76,1.71ZM740.51,423.93s-.06,0-.09,0c-.97-.05-1.71-.87-1.67-1.84.39-8,.89-15.98,1.5-23.71.08-.97.95-1.73,1.89-1.61.97.07,1.69.92,1.61,1.89-.6,7.69-1.11,15.64-1.49,23.61-.05.94-.82,1.67-1.75,1.67ZM84.78,415.73h-.04c-.97-.02-1.74-.83-1.71-1.8l.08-3.72c0-.36.12-.68.31-.96-.18-.28-.28-.61-.27-.97l.09-5.69c.01-.97.8-1.63,1.78-1.73.97.01,1.74.81,1.73,1.78l-.09,5.7c0,.36-.12.69-.31.96.18.28.28.61.27.97l-.08,3.74c-.02.96-.81,1.72-1.76,1.72ZM85.08,396.7h-.01c-.97,0-1.75-.8-1.74-1.77.02-2.96.03-5.91.03-8.85,0-4.97-.03-9.91-.09-14.82-.01-.97.76-1.77,1.74-1.78.89-.12,1.76.77,1.78,1.73.06,4.92.09,9.88.09,14.86,0,2.94,0,5.91-.03,8.87,0,.96-.79,1.74-1.75,1.74ZM742.64,392.61c-.05,0-.1,0-.16,0-.97-.09-1.68-.94-1.59-1.9.17-1.9.34-3.8.53-5.69.03-.36.17-.68.39-.94-.16-.29-.23-.62-.2-.97l.37-3.73c.09-.97.93-1.64,1.92-1.58.97.1,1.67.95,1.58,1.92l-.35,3.62c-.04.37-.19.71-.42.99.17.31.26.66.22,1.04-.18,1.89-.36,3.78-.52,5.67-.08.91-.85,1.6-1.75,1.6ZM744.61,371.89c-.05,0-.11,0-.16,0-.97-.09-1.68-.94-1.59-1.91.73-7.92,1.4-15.79,2.01-23.58.08-.97.95-1.76,1.89-1.61.97.07,1.69.92,1.61,1.89-.61,7.81-1.29,15.69-2.02,23.63-.08.91-.85,1.6-1.75,1.6ZM84.87,363.57c-.96,0-1.74-.77-1.76-1.72l-.08-3.73c0-.36.09-.69.27-.97-.19-.27-.3-.6-.31-.96l-.14-5.7c-.03-.97.74-1.77,1.71-1.8.97-.04,1.77.74,1.8,1.71l.14,5.7c0,.36-.09.69-.27.97.19.27.3.6.31.96l.07,3.73c.02.97-.75,1.77-1.72,1.79-.01,0-.02,0-.04,0ZM84.39,344.52c-.94,0-1.72-.75-1.75-1.7-.25-8-.56-15.89-.91-23.66-.04-.97.71-1.79,1.68-1.83.96-.14,1.79.7,1.83,1.67.35,7.79.66,15.69.91,23.71.03.97-.73,1.78-1.7,1.81-.02,0-.04,0-.06,0ZM747.2,340.63s-.09,0-.13,0c-.97-.07-1.69-.92-1.62-1.88l.41-5.67c.02-.35.15-.68.35-.94-.16-.29-.24-.62-.22-.97l.26-3.71c.07-.97.87-1.69,1.87-1.63.97.06,1.7.91,1.63,1.87l-.26,3.71c-.03.36-.15.68-.35.94.16.29.24.62.22.98l-.41,5.69c-.07.92-.84,1.62-1.75,1.62ZM748.62,319.91s-.07,0-.11,0c-.97-.06-1.7-.9-1.64-1.86.5-7.99.93-15.88,1.3-23.64.05-.97.9-1.76,1.84-1.67.97.05,1.72.87,1.67,1.83-.37,7.78-.81,15.68-1.3,23.69-.06.93-.83,1.65-1.75,1.65ZM83.03,311.41c-.93,0-1.71-.73-1.75-1.67l-.19-3.72c-.02-.36.07-.69.24-.98-.2-.27-.32-.59-.34-.95l-.3-5.69c-.05-.97.69-1.8,1.66-1.85.95-.12,1.79.69,1.85,1.66l.3,5.71c.02.36-.07.69-.24.98.2.27.32.59.34.95l.19,3.73c.05.97-.7,1.79-1.67,1.84-.03,0-.06,0-.09,0ZM82.02,292.38c-.92,0-1.7-.72-1.75-1.66-.45-8.05-.93-15.94-1.4-23.66-.06-.97.68-1.8,1.65-1.86.98-.09,1.8.68,1.86,1.65.47,7.72.95,15.61,1.4,23.67.05.97-.69,1.8-1.65,1.85-.03,0-.07,0-.1,0ZM750.27,288.57h-.08c-.97-.04-1.72-.86-1.68-1.83l.23-5.69c.01-.36.13-.68.33-.95-.17-.28-.27-.62-.25-.97l.14-3.73c.03-.97.83-1.71,1.82-1.69.97.03,1.73.85,1.69,1.82l-.14,3.73c-.01.36-.13.69-.33.96.17.29.27.62.25.98l-.23,5.71c-.04.94-.82,1.68-1.75,1.68ZM751.02,267.77h-.05c-.97-.03-1.73-.84-1.71-1.81.23-8.06.39-15.96.48-23.66.01-.96.79-1.73,1.76-1.73h.02c.97.01,1.74.81,1.73,1.78-.09,7.72-.25,15.64-.48,23.72-.03.95-.81,1.7-1.76,1.7ZM80.04,259.3c-.92,0-1.69-.72-1.75-1.65l-.23-3.73c-.02-.36.06-.69.23-.98-.2-.27-.33-.59-.35-.95l-.35-5.7c-.06-.97.68-1.8,1.65-1.86.99-.05,1.8.68,1.86,1.65l.35,5.69c.02.36-.06.7-.23.98.2.27.33.59.35.95l.23,3.73c.06.97-.68,1.8-1.64,1.86-.04,0-.07,0-.11,0ZM78.87,240.28c-.92,0-1.7-.72-1.75-1.65-.49-8.15-.94-16.06-1.33-23.68-.05-.97.7-1.79,1.66-1.84.96-.07,1.79.7,1.84,1.66.39,7.62.84,15.51,1.32,23.65.06.97-.68,1.8-1.65,1.86-.04,0-.07,0-.11,0ZM751.56,236.4h0c-.97,0-1.75-.8-1.75-1.77l.02-5.69c0-.36.11-.69.29-.97-.18-.27-.29-.61-.29-.96v-3.73c-.01-.97.77-1.76,1.74-1.76h0c.97,0,1.75.78,1.76,1.75v3.73c.01.36-.1.69-.28.97.18.28.29.61.29.97l-.02,5.72c0,.97-.79,1.74-1.76,1.74ZM751.47,215.59c-.96,0-1.74-.77-1.76-1.73-.11-8.12-.31-16.08-.61-23.65-.04-.97.72-1.79,1.68-1.82.9.05,1.79.72,1.82,1.69.3,7.6.51,15.59.61,23.74.01.97-.76,1.77-1.73,1.78,0,0-.02,0-.02,0ZM77.1,207.18c-.93,0-1.71-.74-1.75-1.68l-.16-3.73c-.02-.36.08-.69.25-.98-.19-.27-.31-.6-.33-.95l-.2-5.71c-.03-.97.73-1.78,1.7-1.81.91-.05,1.78.73,1.81,1.7l.2,5.69c.01.36-.08.69-.25.97.19.27.31.6.33.95l.16,3.73c.04.97-.71,1.79-1.68,1.83-.03,0-.05,0-.08,0ZM76.45,188.14c-.95,0-1.73-.76-1.76-1.71-.1-4.51-.16-8.89-.16-13.13,0-3.66.04-7.21.13-10.66.03-.97.7-1.63,1.8-1.71.97.02,1.74.83,1.71,1.8-.09,3.42-.13,6.94-.13,10.57,0,4.21.06,8.56.16,13.05.02.97-.75,1.78-1.72,1.8-.01,0-.03,0-.04,0ZM750.52,184.22c-.93,0-1.71-.73-1.75-1.67-.09-1.92-.19-3.82-.3-5.69-.02-.35.07-.69.23-.98-.2-.26-.33-.59-.35-.94l-.23-3.72c-.06-.97.67-1.8,1.64-1.86,1.02-.08,1.8.67,1.87,1.64l.23,3.73c.02.36-.07.7-.23.98.2.26.33.59.35.95.11,1.88.21,3.78.3,5.72.05.97-.7,1.79-1.67,1.84-.03,0-.06,0-.09,0ZM749.18,163.44c-.91,0-1.67-.7-1.75-1.61-.69-8.45-1.53-16.35-2.51-23.47-.13-.96.54-1.84,1.5-1.97.96-.13,1.84.54,1.98,1.5.98,7.19,1.83,15.15,2.53,23.66.08.97-.64,1.81-1.61,1.89-.05,0-.1,0-.14,0ZM76.8,155.01s-.07,0-.1,0c-.97-.06-1.71-.88-1.65-1.85.07-1.27.15-2.52.24-3.75.03-.36.16-.69.36-.95-.16-.29-.24-.63-.22-.99.16-1.95.33-3.86.53-5.73.1-.96.91-1.67,1.93-1.56.96.1,1.66.97,1.56,1.93-.2,1.83-.37,3.71-.52,5.63-.03.35-.16.68-.36.94.16.29.24.62.22.98-.09,1.22-.16,2.45-.24,3.7-.05.93-.83,1.66-1.75,1.66ZM78.7,136.07c-.09,0-.18,0-.27-.02-.96-.15-1.61-1.05-1.46-2.01,1.48-9.47,3.63-17.06,6.59-23.21.42-.87,1.47-1.24,2.34-.82.87.42,1.24,1.47.82,2.34-2.8,5.83-4.85,13.1-6.28,22.23-.13.87-.88,1.48-1.73,1.48ZM745.53,132.28c-.84,0-1.59-.61-1.73-1.47-.31-1.92-.64-3.78-.97-5.59-.07-.35-.02-.7.11-1-.23-.24-.4-.54-.47-.89-.24-1.23-.49-2.44-.74-3.63-.2-.95.4-1.88,1.35-2.08.94-.19,1.88.4,2.09,1.35.26,1.2.51,2.43.76,3.68.07.36.03.71-.1,1.02.23.24.4.55.47.9.34,1.83.67,3.72.99,5.66.16.96-.49,1.86-1.45,2.02-.1.02-.19.03-.29.03ZM741.18,111.94c-.77,0-1.47-.5-1.69-1.28-2.91-10.28-6.31-16.94-10.09-19.81-.77-.58-.93-1.68-.34-2.46.58-.78,1.68-.93,2.46-.34,4.4,3.33,8.22,10.61,11.35,21.64.26.93-.28,1.91-1.21,2.17-.16.04-.32.06-.48.06ZM90.12,105.37c-.39,0-.79-.13-1.11-.4-.75-.62-.86-1.72-.24-2.47.73-.89,1.5-1.72,2.3-2.51.91-.89,1.88-1.76,2.91-2.59.29-.23.63-.36.97-.39.11-.33.32-.62.62-.84,1.52-1.13,3.18-2.21,4.93-3.23.84-.49,1.91-.21,2.4.64.49.84.2,1.91-.63,2.4-1.63.95-3.18,1.96-4.6,3.01-.27.21-.59.32-.91.34-.1.3-.29.58-.56.8-.94.77-1.83,1.55-2.65,2.36-.71.7-1.4,1.45-2.05,2.24-.35.42-.85.64-1.36.64ZM108.21,92.73c-.67,0-1.32-.39-1.61-1.04-.39-.89,0-1.92.89-2.32,6.35-2.82,14.05-5.27,22.87-7.27.96-.23,1.89.38,2.1,1.32s-.38,1.89-1.32,2.1c-8.6,1.95-16.08,4.32-22.22,7.05-.23.1-.47.15-.71.15ZM471.56,89.23c-.97,0-1.75-.79-1.76-1.75,0-.97.78-1.76,1.75-1.76,7.61-.01,15.57-.11,23.66-.3.95-.08,1.77.75,1.79,1.71.02.97-.75,1.77-1.72,1.8-8.12.19-16.11.29-23.74.3h0ZM463.88,89.21h-.01c-1.9-.01-3.81-.03-5.72-.05-.35,0-.68-.11-.96-.3-.28.18-.62.3-.97.28l-3.74-.06c-.97-.02-1.74-.82-1.72-1.79.02-.97.67-1.74,1.79-1.72l3.72.06c.35,0,.68.11.96.3.28-.18.53-.29.97-.28,1.9.02,3.8.04,5.7.05.97,0,1.75.8,1.74,1.77,0,.97-.79,1.75-1.76,1.75ZM443.07,88.85h-.05c-8.03-.23-16.02-.57-23.73-1.02-.97-.06-1.71-.89-1.65-1.85.05-.97.87-1.75,1.85-1.65,7.68.45,15.63.79,23.63,1.01.97.03,1.73.84,1.71,1.81-.03.95-.81,1.7-1.76,1.7ZM504.7,88.67c-.95,0-1.72-.75-1.75-1.7-.03-.97.73-1.78,1.7-1.81l3.73-.12c.32,0,.69.08.97.26.27-.19.6-.31.96-.33l5.69-.21c.96,0,1.78.72,1.82,1.69.04.97-.72,1.78-1.68,1.82l-5.71.21c-.34.02-.69-.08-.97-.26-.27.2-.6.32-.96.33l-3.73.12h-.05ZM523.74,87.96c-.93,0-1.71-.74-1.75-1.68-.04-.97.71-1.79,1.68-1.83,8.01-.35,15.9-.76,23.65-1.2.94-.11,1.8.69,1.85,1.65.05.97-.69,1.8-1.65,1.85-7.77.44-15.67.85-23.7,1.2h-.08ZM723.75,87.51c-.23,0-.47-.05-.7-.15-1.61-.71-3.35-1.36-5.17-1.95-.33-.11-.61-.3-.81-.55-.31.08-.65.1-.98,0-1.14-.33-2.32-.65-3.53-.95-.94-.23-1.52-1.18-1.29-2.12.23-.94,1.18-1.52,2.12-1.29,1.26.31,2.49.63,3.68.98.35.1.65.31.86.57.33-.09.68-.09,1.03.02,1.93.63,3.78,1.33,5.5,2.08.89.39,1.29,1.43.9,2.31-.29.66-.93,1.05-1.61,1.05ZM411.73,87.35s-.08,0-.12,0c-1.9-.13-3.8-.26-5.71-.41-.36-.03-.68-.16-.94-.36-.29.17-.64.24-.99.21l-3.72-.3c-.97-.08-1.69-.92-1.61-1.89.08-.96.92-1.67,1.89-1.61l3.72.3c.35.03.67.16.93.36.29-.16.63-.24.98-.22,1.89.14,3.79.28,5.68.41.97.06,1.7.9,1.64,1.87-.06.93-.83,1.64-1.75,1.64ZM556.83,86.2c-.92,0-1.69-.72-1.75-1.65-.06-.97.68-1.8,1.65-1.86l3.72-.23c.34-.04.69.06.98.23.26-.2.59-.33.95-.35l5.69-.36c1.01-.09,1.8.67,1.87,1.64.06.97-.67,1.8-1.64,1.86l-5.7.36c-.36.02-.69-.06-.98-.23-.26.2-.59.33-.94.35l-3.73.23s-.07,0-.11,0ZM390.98,85.76s-.09,0-.14,0c-8.02-.62-15.9-1.21-23.62-1.77-.97-.07-1.69-.91-1.62-1.88.07-.97.93-1.71,1.88-1.62,7.73.56,15.61,1.15,23.64,1.78.97.07,1.69.92,1.61,1.89-.07.92-.84,1.62-1.75,1.62ZM575.85,84.99c-.92,0-1.69-.71-1.75-1.64-.06-.97.67-1.8,1.64-1.87l23.65-1.59c.99-.08,1.8.67,1.87,1.64.06.97-.67,1.8-1.64,1.87l-23.65,1.59s-.08,0-.12,0ZM140.01,83.7c-.83,0-1.57-.6-1.73-1.45-.17-.95.46-1.86,1.42-2.04,1.21-.22,2.45-.43,3.71-.63.35-.06.7,0,1,.13.25-.23.56-.39.92-.44,1.85-.29,3.75-.57,5.68-.83.97-.17,1.85.54,1.98,1.5.13.96-.54,1.84-1.5,1.97-1.91.26-3.78.53-5.61.82-.35.06-.69,0-.99-.13-.24.23-.55.38-.91.44-1.24.2-2.45.41-3.65.62-.1.02-.21.03-.31.03ZM359.69,83.44s-.08,0-.12,0l-5.69-.39c-.36-.02-.68-.15-.94-.36-.29.17-.64.25-.99.23l-3.47-.23-.13-1.77.36-1.73,3.48.23c.36.02.68.15.94.36.29-.17.63-.26.99-.23l5.69.39c.97.07,1.7.91,1.63,1.88-.06.93-.84,1.63-1.75,1.63ZM608.92,82.77c-.92,0-1.69-.71-1.75-1.64-.06-.97.67-1.8,1.64-1.87l3.73-.24c.35-.02.69.06.98.23.27-.2.59-.33.95-.35l5.71-.36c.91-.06,1.8.68,1.86,1.65.06.97-.68,1.8-1.65,1.86l-5.69.36c-.36.03-.69-.06-.98-.23-.27.2-.59.33-.95.35l-3.72.24s-.08,0-.12,0ZM703.71,82.17c-.09,0-.17,0-.26-.02-6.72-1.01-14.38-1.62-23.4-1.88-.97-.03-1.73-.84-1.71-1.81.03-.97.66-1.73,1.8-1.7,9.16.26,16.96.89,23.82,1.92.96.14,1.62,1.04,1.48,1.99-.13.87-.88,1.49-1.73,1.49ZM338.92,82.05s-.08,0-.11,0c-8.06-.51-15.94-.98-23.64-1.41-.97-.05-1.71-.88-1.66-1.85.05-.97.9-1.77,1.85-1.66,7.71.43,15.6.9,23.67,1.41.97.06,1.7.9,1.64,1.86-.06.93-.83,1.64-1.75,1.64ZM627.93,81.59c-.92,0-1.7-.72-1.75-1.66-.06-.97.68-1.8,1.65-1.85,8.99-.52,16.75-.88,23.72-1.12.92-.02,1.78.73,1.81,1.7.03.97-.72,1.78-1.7,1.81-6.94.23-14.67.6-23.63,1.11-.04,0-.07,0-.1,0ZM158.86,81c-.88,0-1.64-.66-1.74-1.56-.11-.96.59-1.83,1.55-1.94,7.23-.81,15.21-1.48,23.7-1.99.94-.1,1.8.68,1.86,1.65.06.97-.68,1.8-1.65,1.86-8.43.5-16.35,1.17-23.52,1.97-.07,0-.13.01-.2.01ZM348.34,80.91l.12-1.75-.12,1.75ZM307.59,80.23s-.06,0-.1,0l-5.69-.29c-.36-.02-.69-.14-.95-.34-.29.17-.61.28-.98.24l-3.46-.17-.18-1.77.35-1.74,3.47.17c.36.02.68.14.95.34.28-.17.63-.28.97-.24l5.71.29c.97.05,1.71.88,1.66,1.85-.05.94-.83,1.66-1.75,1.66ZM661.05,80.22c-.96,0-1.74-.77-1.76-1.72-.02-.97.75-1.77,1.72-1.79l3.75-.06c.3-.02.69.1.97.28.28-.19.61-.3.96-.3h3.35s2.38,0,2.38,0c.97,0,1.75.79,1.75,1.76,0,.97-.79,1.75-1.76,1.75h-2.37s-3.32,0-3.32,0c-.31,0-.69-.1-.97-.28-.27.19-.6.3-.96.3l-3.72.06h-.04ZM286.81,79.24h-.08c-8.12-.34-16.01-.63-23.66-.85-.97-.03-1.73-.84-1.71-1.81.03-.97.82-1.73,1.8-1.7,7.67.22,15.57.5,23.71.85.97.04,1.72.86,1.68,1.83-.04.94-.82,1.68-1.75,1.68ZM191.9,78.54c-.93,0-1.71-.73-1.75-1.68-.04-.97.71-1.79,1.67-1.83l3.75-.15c.34,0,.69.08.97.25.27-.19.6-.31.96-.32,1.88-.06,3.79-.12,5.72-.18.87-.03,1.77.74,1.8,1.71.03.97-.74,1.78-1.71,1.8-1.92.05-3.81.11-5.69.18-.36,0-.69-.08-.97-.25-.27.19-.6.31-.95.32l-3.71.15s-.05,0-.08,0ZM255.44,78.2h-.04l-5.7-.12c-.36,0-.68-.12-.96-.31-.28.18-.6.25-.97.27l-3.72-.06c-.97-.01-1.74-.81-1.73-1.78.01-.97.67-1.85,1.78-1.73l3.74.06c.36,0,.68.12.96.31.28-.18.63-.26.97-.27l5.71.12c.97.02,1.74.83,1.71,1.8-.02.96-.8,1.71-1.76,1.71ZM210.94,77.98c-.96,0-1.74-.77-1.76-1.72-.02-.97.76-1.77,1.73-1.79,7.59-.13,15.51-.16,23.74-.11.97,0,1.75.8,1.74,1.77s-.79,1.74-1.76,1.74h-.01c-8.2-.06-16.09-.02-23.65.11h-.03ZM296.24,77.91l.08-1.75-.08,1.75Z"/>
      <path class="cls-6" d="M660.58,677.12c-7.34-11.85,1.99-22.61,10.91-22.64,15.27-.06,13.18,16.21,9.92,22.45,5.27-8.73,23.25-14.67,27.07-.28,3.62,13.61-18.66,16.06-18.21,15.97,13.01-2.42,25.72,11.79,13.15,24.08-14.06,13.75-24.12-3.29-25.34-10.69-.26,7.53-1.24,13.93-5.47,16.82-12.18,8.35-24.44,3.75-25.94-9.01-.53-4.53,4.51-10.08,9.49-14.91,0,.76-17.36,8.84-23.44-4.66-3.45-7.68.07-16.97,6-22.12,8.71-7.57,17.02,1.79,21.87,4.99h0Z"/>
      <path class="cls-1" d="M668.84,680.07c-12,1.13-14.92,20.67-1.62,22.82,5.37.87,11.21-1.63,14.43-6.02,3.49-4.75.8-18.09-12.82-16.81h0Z"/>
      <path class="cls-6" d="M157.33,142.96c8.9,10.72,1.16,22.66-7.68,23.93-15.12,2.16-15.29-14.24-12.92-20.87-4.01,9.38-21,17.73-26.77,4.02-5.46-12.98,16.26-18.48,15.83-18.34-12.55,4.19-27.11-8.12-16.35-22.03,12.03-15.56,24.34-.07,26.58,7.09-.79-7.49-.7-13.97,3.09-17.42,10.91-9.95,23.68-7.09,26.94,5.34,1.15,4.41-3.08,10.61-7.35,16.08-.1-.75,15.98-11.16,23.86,1.38,4.48,7.13,2.28,16.82-2.88,22.73-7.59,8.7-17.11.58-22.35-1.92h0Z"/>
      <path class="cls-1" d="M148.74,141.18c11.72-2.78,11.92-22.53-1.55-22.83-5.43-.12-10.88,3.16-13.46,7.95-2.81,5.19,1.7,18.03,15.01,14.88h0Z"/>
      <path class="cls-3" d="M713.82,643.3c-5.31-1.94-5.03-7.71-2.2-9.95,4.86-3.85,8.27,1.87,8.79,4.67-.51-4.1,3.74-10.51,8.56-6.88,4.57,3.43-1.92,9.8-1.8,9.66,3.55-4.03,11.16-2.69,10.23,4.39-1.04,7.91-8.52,5-10.76,2.94,1.8,2.46,3.1,4.75,2.47,6.73-1.79,5.72-6.85,7.32-10.53,3.63-1.3-1.31-1.09-4.34-.71-7.13.19.24-3.32,7.17-8.64,4.39-3.03-1.58-4.23-5.43-3.63-8.56.88-4.6,5.88-3.69,8.23-3.89h0Z"/>
      <path class="cls-1" d="M717.2,642.17c-3.54,3.37.42,10.33,5.2,7.69,1.93-1.07,3.17-3.33,3.1-5.54-.08-2.39-4.28-5.97-8.3-2.15h0Z"/>
      <path class="cls-3" d="M118.99,188.25c5.53,1.19,6.05,6.94,3.55,9.56-4.28,4.48-8.44-.71-9.35-3.42,1.07,4-2.25,10.92-7.54,7.99-4.99-2.77.55-9.97.45-9.82-2.95,4.48-10.68,4.2-10.74-2.93-.06-7.98,7.75-6.13,10.26-4.4-2.13-2.19-3.72-4.28-3.38-6.33.99-5.91,5.78-8.2,9.93-5.05,1.47,1.12,1.67,4.15,1.68,6.97-.22-.21,2.3-7.56,7.96-5.54,3.22,1.15,4.94,4.79,4.78,7.97-.24,4.68-5.31,4.47-7.61,4.99h0Z"/>
      <path class="cls-1" d="M115.81,189.83c3.04-3.82-1.85-10.17-6.22-6.89-1.76,1.32-2.67,3.74-2.3,5.91.41,2.36,5.06,5.33,8.52.98h0Z"/>
      <path class="cls-11" d="M605.39,694.02c2-7.21,9.63-7.45,12.89-3.95,5.59,6-1.59,11.1-5.23,12.09,5.36-1.11,14.25,3.82,9.97,10.56-4.04,6.38-13.12-1.5-12.93-1.35,5.69,4.24,4.73,14.43-4.7,13.95-10.54-.53-7.49-10.7-5.02-13.88-3.06,2.64-5.94,4.59-8.62,3.97-7.73-1.76-10.38-8.26-5.9-13.5,1.59-1.86,5.61-1.9,9.33-1.69-.3.28-9.81-3.62-6.7-10.93,1.77-4.16,6.71-6.16,10.9-5.7,6.16.68,5.5,7.36,6,10.43h0Z"/>
      <path class="cls-1" d="M607.24,698.34c-4.82-4.31-13.58,1.65-9.59,7.68,1.61,2.43,4.73,3.82,7.63,3.49,3.15-.35,7.42-6.27,1.96-11.17h0Z"/>
      <path class="cls-8" d="M208.61,106.82c-5.39-3.08-4.03-9.26-.55-11.17,5.96-3.27,8.6,3.54,8.65,6.67.2-4.54,5.97-10.68,10.53-5.86,4.31,4.55-3.88,10.24-3.73,10.12,4.57-3.71,12.57-.86,10.26,6.62-2.58,8.37-10.13,3.84-12.18,1.2,1.5,3,2.48,5.71,1.44,7.74-2.99,5.86-8.76,6.66-12.06,1.99-1.17-1.66-.38-4.9.54-7.85.16.3-4.91,7.15-10.16,3.16-2.98-2.27-3.58-6.65-2.36-9.92,1.8-4.81,7.04-2.92,9.61-2.7h0Z"/>
      <path class="cls-1" d="M212.66,114.17c4.45,2.99,10.97-2.91,6.99-7.41-1.61-1.81-4.32-2.6-6.67-2-2.54.65-5.38,6.01-.33,9.4h0Z"/>
      <path class="cls-6" d="M68.25,721.6c-50.39-29.74-33.1-114.29,14.42-126.6,66.32-17.19,104.99,49.54,80.17,105.74,19.51,11.25,49.25,14.63,60.6,31.47-12.96,26.18-43.44,59.79-83.02,68.97-46.13,10.7-77.81-10.17-111.64-19.51,14.9-31.13,20.86-42.69,39.46-60.07h0Z"/>
      <path class="cls-7" d="M155.76,688.89c-20.51,25.67-60.96,33.51-83.86,21.74-16.66-19.15-10.87-91.08,22.6-98.76,35.15-8.07,65.28,53.39,61.26,77.02h0Z"/>
      <path class="cls-10" d="M82.55,690.09c3.71-.8,6.99-.19,7.34,1.37.34,1.56-2.4,3.49-6.11,4.29-3.71.81-6.99.19-7.33-1.37-.34-1.56,2.39-3.48,6.1-4.29h0Z"/>
      <path class="cls-10" d="M139.35,678.65c3.71-.8,6.99-.19,7.33,1.37.34,1.56-2.39,3.49-6.1,4.29-3.71.81-6.99.19-7.33-1.37-.34-1.57,2.4-3.49,6.11-4.29h0Z"/>
      <path class="cls-9" d="M123.63,692.55c-.45-2.06-2.42-1.51-4.09-.85-3.65,1.45-10.78,2.91-15.08,3.28-1.79.15-3.82.41-3.37,2.46.45,2.06,3.19,5.02,4.99,4.99,3.27-.06,12.08-1.97,15.08-3.27,1.65-.72,2.91-4.55,2.47-6.61h0Z"/>
      <path class="cls-12" d="M102.92,700.55c2.7-1.33,6.13-2.51,9.93-3.34,3.8-.83,7.41-1.17,10.42-1.08-.46,1.4-1.23,2.66-2.1,3.04-3,1.3-11.81,3.21-15.08,3.27-.95.02-2.17-.8-3.17-1.89h0Z"/>
      <path class="cls-4" d="M69.9,708.83s-16.62-20.44-13.43-54.34c0,0,.56,32.26,13.43,54.34h0Z"/>
      <path class="cls-4" d="M156.14,689.73s7.4-25.28-8.67-55.3c0,0,11.98,29.95,8.67,55.3h0Z"/>
    </g>
  </g>
</svg>