<?xml version="1.0" encoding="UTF-8"?>
<svg id="Layer_2" data-name="Layer 2" xmlns="http://www.w3.org/2000/svg" viewBox="0 0 825.1 825.1">
  <defs>
    <style>
      .cls-1 {
        fill: #fff;
      }

      .cls-1, .cls-2, .cls-3, .cls-4 {
        fill-rule: evenodd;
      }

      .cls-2 {
        fill: #e1917e;
      }

      .cls-3 {
        fill: #ffcabe;
      }

      .cls-4 {
        fill: #aacd87;
      }

      .cls-5 {
        fill: #dbecca;
      }
    </style>
  </defs>
  <g id="Layer_1-2" data-name="Layer 1">
    <g>
      <polygon class="cls-4" points="825.1 0 0 0 0 825.1 825.1 825.1 825.1 0"/>
      <path class="cls-5" d="M786.35,823.72v-34.79h-53.3v34.79c0,.74-.56,1.33-1.3,1.33h0c-.74,0-1.34-.6-1.34-1.33v-34.79h-60.81v34.79c0,.74-.56,1.33-1.3,1.33h0c-.74,0-1.33-.6-1.33-1.33v-34.79h-60.88v34.79c0,.74-.6,1.33-1.3,1.33h0c-.74,0-1.33-.6-1.33-1.33v-34.79h-60.81l.04,34.79c0,.74-.6,1.33-1.33,1.33h0c-.74,0-1.34-.6-1.34-1.33v-34.79l-58.53.03v34.76c0,.74-.56,1.33-1.3,1.33h0c-.74,0-1.33-.6-1.33-1.33v-34.76h-60.81v34.76c0,.74-.56,1.33-1.3,1.33h0c-.74,0-1.33-.6-1.33-1.33v-34.76h-60.88l.04,34.76c0,.74-.6,1.33-1.33,1.33h0c-.74,0-1.33-.6-1.33-1.33v-34.76h-60.77v34.76c0,.74-.6,1.33-1.33,1.33h0c-.74,0-1.3-.6-1.3-1.33v-34.76h-59.27v34.76c0,.74-.6,1.33-1.3,1.33h0c-.74,0-1.33-.6-1.33-1.33v-34.76l-60.81.03v34.72c0,.74-.56,1.33-1.3,1.33h0c-.74,0-1.33-.6-1.33-1.33v-34.72h-60.88v34.72c0,.74-.6,1.33-1.3,1.33h0c-.74,0-1.33-.6-1.33-1.33v-34.72h-60.81v34.72c0,.74-.56,1.33-1.3,1.33h0c-.74,0-1.34-.6-1.34-1.33v-34.72H1.38c-.74,0-1.34-.6-1.34-1.3H.04c0-.74.6-1.34,1.34-1.34h34.79v-53.3H1.38c-.74,0-1.34-.6-1.34-1.33H.04c0-.74.6-1.3,1.34-1.3h34.79v-60.81H1.38c-.74,0-1.34-.6-1.34-1.33H.04c0-.7.6-1.3,1.34-1.3h34.79v-60.88H1.38c-.74,0-1.34-.6-1.34-1.33H.04c0-.7.6-1.3,1.34-1.3h34.79v-60.81H1.38c-.74,0-1.34-.6-1.34-1.33H.04c0-.7.6-1.3,1.34-1.3h34.79l-.03-58.53H1.38c-.74,0-1.34-.6-1.34-1.3H.05c0-.74.6-1.33,1.34-1.33h34.76v-60.81H1.38c-.74,0-1.34-.6-1.34-1.3H.05c0-.74.6-1.34,1.34-1.34h34.76v-60.88H1.38c-.74,0-1.34-.6-1.34-1.33H.05c0-.7.6-1.3,1.34-1.3h34.76v-60.81H1.38c-.74,0-1.34-.6-1.34-1.3H.05c0-.74.6-1.33,1.34-1.33h34.76v-59.23H1.38c-.74,0-1.34-.6-1.34-1.33H.05c0-.7.6-1.3,1.34-1.3h34.76v-60.81H1.38c-.74,0-1.34-.6-1.34-1.33H.05c0-.7.6-1.3,1.34-1.3h34.76l-.04-60.88H1.38c-.74,0-1.34-.6-1.34-1.33H.05c0-.74.6-1.3,1.34-1.3h34.72v-60.81H1.38c-.74,0-1.34-.6-1.34-1.33H.05c0-.74.6-1.3,1.34-1.3h34.72V1.36c0-.7.6-1.3,1.34-1.3h0c.74,0,1.3.6,1.3,1.3v34.83h60.81V1.36c0-.7.6-1.3,1.33-1.3h0c.7,0,1.3.6,1.3,1.3v34.83l60.88-.04V1.36c0-.7.6-1.3,1.33-1.3h0c.7,0,1.3.6,1.3,1.3v34.79h60.81V1.36c0-.7.6-1.3,1.34-1.3h0c.7,0,1.3.6,1.3,1.3v34.79h59.27l-.04-34.79c0-.7.6-1.3,1.33-1.3h0c.74,0,1.3.6,1.3,1.3v34.79h60.81V1.36c0-.7.6-1.3,1.34-1.3h0c.74,0,1.3.6,1.3,1.3v34.79h60.88V1.36c0-.7.6-1.3,1.33-1.3h0c.74,0,1.3.6,1.3,1.3v34.79h60.81V1.36c0-.7.6-1.3,1.33-1.3h0c.74,0,1.3.6,1.3,1.3v34.79l58.53-.03V1.36c0-.7.6-1.3,1.34-1.3h0c.7,0,1.3.6,1.3,1.3v34.76h60.81V1.36c0-.7.6-1.3,1.3-1.3h0c.74,0,1.34.6,1.34,1.3v34.76h60.88V1.36c0-.7.6-1.3,1.33-1.3h0c.7,0,1.3.6,1.3,1.3v34.76h60.81V1.36c0-.7.6-1.3,1.34-1.3h0c.7,0,1.3.6,1.3,1.3v34.76h53.3V1.36c0-.7.6-1.3,1.33-1.3h0c.7,0,1.3.6,1.3,1.3v34.76h34.83c.74,0,1.3.56,1.3,1.3h0c0,.74-.56,1.33-1.3,1.33h-34.83l.03,60.81h34.79c.74,0,1.3.56,1.3,1.3h0c0,.74-.56,1.33-1.3,1.33h-34.79v60.88h34.79c.74-.04,1.3.56,1.3,1.3h0c0,.74-.56,1.34-1.3,1.34h-34.79v60.81l34.79-.04c.74,0,1.3.6,1.3,1.34h0c0,.74-.56,1.3-1.3,1.33h-34.79v59.23h34.79c.74,0,1.3.6,1.3,1.3h0c0,.74-.56,1.34-1.3,1.34h-34.79v60.81h34.79c.74,0,1.3.56,1.3,1.3h0c0,.74-.56,1.33-1.3,1.33h-34.79v60.88h34.79c.74,0,1.3.6,1.3,1.3h0c0,.74-.56,1.33-1.3,1.33h-34.79l.04,60.81h34.76c.74,0,1.3.6,1.3,1.3h0c0,.74-.56,1.34-1.3,1.34h-34.76v58.53h34.76c.74,0,1.3.56,1.3,1.3h0c0,.74-.56,1.33-1.3,1.33h-34.76v60.81h34.76c.74,0,1.3.56,1.3,1.3h0c0,.74-.56,1.3-1.3,1.33h-34.76v60.88h34.76c.74,0,1.3.56,1.3,1.3h0c0,.74-.56,1.34-1.3,1.34h-34.76v60.81h34.76c.74,0,1.3.56,1.3,1.3h0c0,.74-.56,1.33-1.3,1.33h-34.76v53.3h34.76c.74,0,1.3.6,1.3,1.3h0c0,.74-.56,1.34-1.3,1.34h-34.76l.03,34.79c0,.74-.6,1.33-1.33,1.33h0c-.74,0-1.31-.6-1.34-1.33ZM38.8,786.36h60.81v-53.3h-60.81v53.3ZM102.25,786.36h60.88v-53.33l-60.88.04c0,53.3,0,0,0,53.3ZM165.76,786.36l60.81-.03v-53.3h-60.81v53.33ZM229.21,786.33h59.27l-.04-53.3h-59.23v53.3ZM291.11,786.33h60.77v-53.3h-60.81c.04,53.3,0,0,.04,53.3ZM354.52,786.33h60.88v-53.3h-60.88v53.3ZM418.04,786.33h60.81v-53.33l-60.81.03v53.3ZM481.48,786.33h58.53v-53.33h-58.53v53.33ZM542.64,786.33l60.81-.03v-53.3h-60.81v53.33ZM606.09,786.29h60.88v-53.3h-60.88v53.3ZM669.6,786.29h60.81v-53.3h-60.81v53.3ZM733.05,786.29h53.3v-53.3h-53.3v53.3ZM38.8,730.43l60.81-.04v-60.78h-60.81v60.81ZM102.25,730.4h60.88v-60.81l-60.88.03c0,60.78,0,0,0,60.78ZM165.76,730.4h60.81v-60.81h-60.81c0,60.81,0,0,0,60.81ZM229.21,730.4h59.23v-60.81h-59.23c0,60.81,0,0,0,60.81ZM291.07,730.4h60.81v-60.81h-60.81c0,60.81,0,0,0,60.81ZM354.52,730.4h60.88v-60.81h-60.88c0,60.81,0,0,0,60.81ZM418.04,730.4l60.81-.03v-60.81l-60.81.03v60.81ZM481.48,730.36h58.53v-60.81h-58.53v60.81ZM542.64,730.36h60.81v-60.81h-60.81v60.81ZM606.09,730.36h60.88v-60.81h-60.88v60.81ZM669.6,730.36h60.81v-60.81h-60.81v60.81ZM733.05,730.36h53.3v-60.81h-53.3v60.81ZM38.8,666.99h60.81v-60.88h-60.81v60.88ZM102.25,666.99l60.88-.03v-60.88h-60.88c0,60.92,0,0,0,60.92ZM165.76,666.95h60.81v-60.88h-60.81v60.88ZM229.21,666.95h59.23v-60.88h-59.23v60.88ZM291.07,666.95h60.81v-60.88h-60.81v60.88ZM354.52,666.95h60.88v-60.88h-60.88v60.88ZM418.04,666.95h60.81v-60.88h-60.81v60.88ZM481.48,666.95l58.53-.03v-60.88l-58.53.04c0,60.88,0,0,0,60.88ZM542.64,666.92h60.81v-60.88h-60.81c0,60.88,0,0,0,60.88ZM606.09,666.92h60.88v-60.88h-60.88c0,60.88,0,0,0,60.88ZM669.6,666.92h60.81v-60.88h-60.81c0,60.88,0,0,0,60.88ZM733.05,666.92h53.3v-60.88h-53.3c0,60.88,0,0,0,60.88ZM38.8,603.47h60.81v-60.81h-60.81v60.81ZM102.25,603.47l60.88-.03-.04-60.78h-60.88c.04,60.81,0,0,.04,60.81ZM165.76,603.44h60.81l-.03-60.81-60.81.04c.04,60.78,0,0,.04,60.78ZM229.21,603.44h59.23v-60.81h-59.27c.04,60.81,0,0,.04,60.81ZM291.07,603.44h60.81v-60.81h-60.81v60.81ZM354.52,603.44h60.88v-60.81h-60.88v60.81ZM418.04,603.44h60.81v-60.81h-60.81v60.81ZM481.48,603.4h58.53v-60.81l-58.53.03v60.78ZM542.64,603.4h60.81v-60.81h-60.81v60.81ZM606.09,603.4h60.88l-.04-60.81h-60.85v60.81ZM669.6,603.4h60.81l-.03-60.81h-60.78v60.81ZM733.05,603.4h53.3v-60.81h-53.33l.03,60.81ZM38.8,540.03h60.81l-.04-58.53h-60.81c.03,58.53,0,0,.03,58.53ZM102.21,540.03h60.88v-58.57l-60.88.04v58.53ZM165.73,540.03l60.81-.04v-58.53h-60.81v58.57ZM229.17,539.99h59.27v-58.53h-59.27v58.53ZM291.07,539.99h60.81v-58.53h-60.81v58.53ZM354.52,539.99h60.88v-58.53h-60.88v58.53ZM418.04,539.99h60.81v-58.53h-60.81v58.53ZM481.48,539.99h58.53l-.03-58.53h-58.53c.03,58.53,0,0,.03,58.53ZM542.64,539.99l60.81-.03-.04-58.53-60.78.03c0,58.53,0,0,0,58.53ZM606.09,539.96h60.85v-58.53h-60.88c.04,58.53,0,0,.04,58.53ZM669.6,539.96h60.78v-58.53h-60.81l.04,58.53ZM733.02,539.96h53.33v-58.53h-53.33v58.53ZM38.77,478.86h60.81v-60.81h-60.81v60.81ZM102.21,478.86l60.88-.04v-60.81l-60.88.03v60.81ZM165.73,478.83h60.81v-60.81h-60.81v60.81ZM229.17,478.83h59.27v-60.81h-59.27v60.81ZM291.07,478.83h60.81l-.03-60.81h-60.78v60.81ZM354.52,478.83h60.88l-.04-60.81h-60.85v60.81ZM418.04,478.83h60.81l-.03-60.81h-60.81l.04,60.81ZM481.45,478.83l58.53-.03v-60.78h-58.53v60.81ZM542.64,478.79h60.78v-60.81l-60.81.04.03,60.78ZM606.05,478.79h60.88v-60.81h-60.88v60.81ZM669.57,478.79h60.81v-60.81h-60.81v60.81ZM733.02,478.79h53.33l-.04-60.81h-53.3v60.81ZM38.77,415.42h60.81v-60.88h-60.81c0,60.88,0,0,0,60.88ZM102.21,415.42h60.88v-60.88h-60.88c0,60.88,0,0,0,60.88ZM165.73,415.42l60.81-.03v-60.88l-60.81.04c0,60.88,0,0,0,60.88ZM229.17,415.38h59.27l-.03-60.88h-59.23c0,60.88,0,0,0,60.88ZM291.04,415.38h60.81v-60.88h-60.81v60.88ZM354.48,415.38h60.88v-60.88h-60.88c0,60.88,0,0,0,60.88ZM418,415.38h60.81v-60.88h-60.81v60.88ZM481.45,415.38h58.53v-60.88h-58.53v60.88ZM542.61,415.38l60.81-.04v-60.88l-60.81.03v60.88ZM606.05,415.35h60.88v-60.88h-60.88v60.88ZM669.57,415.35h60.81v-60.88h-60.81v60.88ZM733.02,415.35h53.3v-60.88h-53.3v60.88ZM38.77,351.9h60.81v-60.81h-60.81v60.81ZM102.21,351.9h60.88v-60.81h-60.88v60.81ZM165.73,351.9l60.81-.04v-60.77h-60.81v60.81ZM229.17,351.87h59.23v-60.81l-59.23.04v60.77ZM291.04,351.87h60.81v-60.81h-60.81v60.81ZM354.48,351.87h60.88v-60.81h-60.88c0,60.81,0,0,0,60.81ZM418,351.87h60.81v-60.81h-60.81v60.81ZM481.45,351.87h58.53v-60.81h-58.53v60.81ZM542.61,351.87l60.81-.03v-60.78h-60.81v60.81ZM606.05,351.83h60.88v-60.81l-60.88.03v60.78ZM669.57,351.83h60.81v-60.81h-60.81v60.81ZM733.02,351.83h53.3v-60.81h-53.3v60.81ZM38.77,288.46h60.81v-59.27l-60.81.04v59.23ZM102.21,288.46h60.88v-59.27h-60.88v59.27ZM165.73,288.46h60.81v-59.27h-60.81v59.27ZM229.17,288.42h59.23v-59.23h-59.23v59.23ZM291.04,288.42h60.81v-59.23h-60.81v59.23ZM354.48,288.42h60.88v-59.23h-60.88c0,59.23,0,0,0,59.23ZM418,288.42h60.81v-59.27l-60.81.03v59.23ZM481.45,288.42h58.53v-59.27h-58.53v59.27ZM542.61,288.42l60.81-.03v-59.23h-60.81v59.27ZM606.05,288.39h60.88v-59.23h-60.88v59.23ZM669.57,288.39h60.81v-59.23h-60.81v59.23ZM733.02,288.39h53.3v-59.23h-53.3v59.23ZM38.77,226.59l60.81-.04v-60.78h-60.81v60.81ZM102.21,226.56h60.88l-.03-60.81-60.85.03c0,60.78,0,0,0,60.78ZM165.73,226.56h60.81l-.04-60.81h-60.78c0,60.81,0,0,0,60.81ZM229.17,226.56h59.23v-60.81h-59.27c.04,60.81,0,0,.04,60.81ZM291.04,226.56h60.81v-60.81h-60.81c0,60.81,0,0,0,60.81ZM354.48,226.56h60.88v-60.81h-60.88c0,60.81,0,0,0,60.81ZM418,226.56l60.81-.03v-60.78h-60.81c0,60.81,0,0,0,60.81ZM481.45,226.52h58.53v-60.81l-58.53.03v60.78ZM542.61,226.52h60.81v-60.81h-60.81v60.81ZM606.05,226.52h60.88v-60.81h-60.92c.03,60.81,0,0,.03,60.81ZM669.57,226.52h60.81l-.04-60.81h-60.78v60.81ZM733.02,226.52h53.3v-60.81h-53.3v60.81ZM38.77,163.15h60.81l-.03-60.92-60.81.03c.04,60.88,0,0,.04,60.88ZM102.21,163.15l60.85-.03v-60.88h-60.88c.04,60.92,0,0,.04,60.92ZM165.73,163.11h60.78v-60.88h-60.81c.03,60.88,0,0,.03,60.88ZM229.14,163.11h59.27v-60.88h-59.27v60.88ZM291.04,163.11h60.81l-.04-60.88h-60.77v60.88ZM354.48,163.11h60.88v-60.88h-60.88c0,60.88,0,0,0,60.88ZM418,163.11h60.81v-60.92l-60.81.04v60.88ZM481.45,163.11l58.53-.03-.04-60.88h-58.53c.04,60.92,0,0,.04,60.92ZM542.61,163.08h60.81l-.03-60.88h-60.78c0,60.88,0,0,0,60.88ZM606.02,163.08h60.92l-.03-60.88h-60.88c0,60.88,0,0,0,60.88ZM669.57,163.08h60.78v-60.88h-60.81c.03,60.88,0,0,.03,60.88ZM733.02,163.08h53.3v-60.88h-53.33c.04,60.88,0,0,.04,60.88ZM38.73,99.63l60.81-.03v-60.78h-60.81v60.81ZM102.18,99.6h60.88v-60.81l-60.88.04v60.78ZM165.69,99.6h60.81v-60.81h-60.81v60.81ZM229.14,99.6h59.27v-60.81h-59.27v60.81ZM291.04,99.6h60.77v-60.81h-60.81l.04,60.81ZM354.48,99.6h60.88l-.03-60.81h-60.88c.03,60.81,0,0,.03,60.81ZM418,99.6l60.81-.04-.04-60.78h-60.81c.03,60.81,0,0,.03,60.81ZM481.41,99.56h58.53v-60.81l-58.53.03v60.78ZM542.61,99.56h60.78v-60.81h-60.81c.04,60.81,0,0,.04,60.81ZM606.02,99.56h60.88v-60.81h-60.88v60.81ZM669.53,99.56h60.81v-60.81h-60.81v60.81ZM732.98,99.56h53.33l-.03-60.81h-53.3v60.81Z"/>
      <polygon class="cls-1" points="768.87 71.76 56.23 71.76 56.23 769.33 768.87 769.33 768.87 71.76"/>
      <path class="cls-2" d="M245.94,46.21c14.23-1.51,124.04.91,185.86-.59h1.8c3.11-.33,6.24-.56,9.34-1,2.61-.38-5.24.48-7.85.79-1.09.13,2.19-.11,3.29-.13,2.27-.04,4.54,0,6.81.09,6.27.25,12.54.24,18.81.37,18.92.43,37.92-.87,56.84-1.08,17.19-.19,34.48,1.09,51.65.49,2.57-.09,16.14-.38,17.84,2.01,2.85,3.99-8.16,12.78-6.13,14.24,5.45,3.93,7.11,7.35,6.91,10.26-.38,5.6-8.05,7.42-8.4,10.96-.16,1.62,4.49,1.43,5.1,4.86.55,3.12-3.26,4.71-3.22,8.74.04,3.37,5.17,2.27,5.84,6.15.48,2.79-5.4,8.52-5.23,11.73.33,6.43,13.5,22.65,1.65,22.62-10.36-.02-23.88-.09-33.71-.57-19.4-.95-38.93.42-58.34.35-45.84-.16-92.39-1.61-138.17.66-24.76,1.23-49.27.81-74-.64-10.27-.6-31.14-.25-31.85-1.85-.77-1.73,2.22-2.8,3.5-3.91,2.59-2.22,5.6-3.29,8.22-5.37.2-.16-7.2-9.16-7.27-10.6-.33-7.08,8.05-10.57,8.01-15.4-.04-4.79-13.62-9.98-16.71-17.54-.99-2.43,7.26-5.65,7.57-6.44.33-.84-1.76-3.86-1.71-5.05.11-2.88,2.32-3.55,2.95-5.68.6-2.05-15.08-17.88-9.39-18.48h0Z"/>
      <path class="cls-3" d="M240.26,41.38c14.23-1.51,124.04.92,185.86-.58h1.8c3.11-.34,6.23-.56,9.34-1.01,2.61-.38-5.24.48-7.85.79-1.09.13,2.19-.11,3.29-.13,2.27-.04,4.54,0,6.81.09,6.27.25,12.54.24,18.81.38,18.92.42,37.92-.87,56.84-1.08,17.19-.19,34.47,1.09,51.65.48,2.57-.09,16.14-.37,17.84,2.01,2.85,3.99-8.16,12.78-6.13,14.24,5.45,3.93,7.11,7.35,6.91,10.26-.38,5.59-8.05,7.42-8.4,10.96-.16,1.62,4.49,1.43,5.1,4.86.56,3.12-3.26,4.71-3.21,8.74.03,3.37,5.17,2.27,5.84,6.15.48,2.79-5.4,8.52-5.24,11.73.33,6.42,13.51,22.65,1.65,22.62-10.36-.02-23.88-.09-33.71-.57-19.4-.95-38.92.42-58.34.35-45.85-.16-92.4-1.61-138.17.66-24.76,1.23-49.27.82-74-.64-10.27-.6-31.13-.25-31.85-1.85-.77-1.73,2.22-2.8,3.5-3.9,2.59-2.22,5.6-3.3,8.22-5.38.19-.15-7.2-9.16-7.27-10.6-.33-7.08,8.05-10.57,8.01-15.4-.04-4.79-13.62-9.98-16.71-17.55-.99-2.43,7.26-5.65,7.57-6.44.33-.84-1.76-3.86-1.71-5.04.11-2.88,2.32-3.55,2.95-5.68.61-2.05-15.09-17.87-9.39-18.47h0Z"/>
    </g>
  </g>
</svg>