<?xml version="1.0" encoding="UTF-8"?>
<svg id="Layer_2" data-name="Layer 2" xmlns="http://www.w3.org/2000/svg" viewBox="0 0 822.79 822.88">
  <defs>
    <style>
      .cls-1 {
        fill: #86a963;
      }

      .cls-1, .cls-2, .cls-3, .cls-4, .cls-5 {
        fill-rule: evenodd;
      }

      .cls-6, .cls-2 {
        fill: #fff;
      }

      .cls-3 {
        fill: #aacd87;
      }

      .cls-4 {
        fill: #c0dca3;
      }

      .cls-5 {
        fill: #b7afaf;
      }
    </style>
  </defs>
  <g id="Layer_1-2" data-name="Layer 1">
    <g>
      <polygon class="cls-3" points="822.79 .09 0 .09 0 822.88 822.79 822.88 822.79 .09"/>
      <path class="cls-4" d="M822.79,31.05l-17.06,17.06-45.23-45.23,2.79-2.79h-31.63l2.79,2.79-45.23,45.23-44.76-44.76,3.26-3.26h-32.57l3.26,3.26-43.55,43.55L529.59,1.67l1.58-1.58h-29.21l1.58,1.58-45.23,45.23-33.88-33.88L437.35.09h-25.87l-.09-.09-.1.09h-25.86l12.93,12.93-33.88,33.88L319.25,1.67l1.58-1.58h-29.21l1.58,1.58-45.23,45.23L204.41,3.35l3.26-3.26h-32.58l3.26,3.26-44.76,44.76L88.35,2.88l2.79-2.79h-31.63l2.79,2.79L17.06,48.11,0,31.05v26.06l4.03,4.03-4.03,4.03v26.06l17.06-17.06,45.23,45.23-44.59,44.59L0,146.3v26.06l4.67,4.67L0,181.7v26.06l17.7-17.7,43.55,43.55-45.23,45.23L0,262.83v26.06l2.99,2.99L0,294.86v26.06l16.02-16.02,45.23,45.23-44.76,44.76L0,378.41v26.06l3.46,3.46-3.46,3.46v26.06l16.49-16.49,33.88,33.88-45.23,45.23-5.14-5.14v36.33l5.14-5.14,45.23,45.23-47.11,47.11-3.26-3.26v32.57l3.26-3.26,44.76,44.76-45.23,45.23-2.79-2.79v31.63l2.79-2.79,45.23,45.23-17.06,17.06h26.06l4.03-4.03,4.03,4.03h26.06l-17.06-17.06,45.23-45.23,44.59,44.59-17.7,17.7h26.06l4.67-4.67,4.67,4.67h26.06l-17.7-17.7,47.11-47.11,45.23,45.23-19.57,19.57h26.06l6.55-6.55,6.55,6.55h26.06l-19.58-19.58,45.23-45.23,44.76,44.76-20.05,20.05h26.06l7.02-7.02,7.02,7.02h26.06l-20.05-20.05,44.76-44.76,45.23,45.23-19.57,19.57h26.06l6.54-6.54,6.54,6.54h26.06l-19.57-19.57,45.23-45.23,47.11,47.11-17.7,17.7h26.06l4.67-4.67,4.67,4.67h26.06l-17.7-17.7,44.59-44.59,45.23,45.23-17.06,17.06h26.06l4.03-4.03,4.03,4.03h26.06l-17.06-17.06,45.23-45.23,2.79,2.79v-31.63l-2.79,2.79-45.23-45.23,44.76-44.76,3.26,3.26v-32.57l-3.26,3.26-47.11-47.11,45.23-45.23,5.14,5.14v-36.33l-5.14,5.14-45.23-45.23,33.88-33.88,16.49,16.49v-26.06l-3.46-3.46,3.46-3.46v-26.06l-16.49,16.49-44.76-44.76,45.23-45.23,16.02,16.02v-26.06l-2.99-2.99,2.99-2.99v-26.06l-16.02,16.02-45.23-45.23,43.55-43.55,17.7,17.7v-26.06l-4.67-4.67,4.67-4.67v-26.06l-17.7,17.7-44.59-44.59,45.23-45.23,17.06,17.06v-26.06l-4.03-4.03,4.03-4.03v-26.06h0ZM631.41,16.38l44.76,44.76-43.55,43.55-44.76-44.76,43.55-43.55ZM643.33,674.39l-45.23-45.23,45.23-45.23,45.23,45.23-45.23,45.23ZM701.6,642.18l47.11,47.11-45.23,45.23-47.11-47.11,45.23-45.23ZM134.22,629.15l45.23-45.23,45.23,45.23-45.23,45.23-45.23-45.23ZM166.42,687.42l-47.11,47.11-45.23-45.23,47.11-47.11,45.23,45.23ZM190.17,130.76l45.23,45.23-45.23,45.23-45.23-45.23,45.23-45.23ZM131.91,162.96l-43.55-43.55,45.23-45.23,43.55,43.55-45.23,45.23ZM561.33,175.99l-33.88,33.88-44.76-44.76,33.88-33.88,44.76,44.76ZM529.59,118.2l45.23-45.23,44.76,44.76-45.23,45.23-44.76-44.76ZM527.28,558.33l-45.23-45.23,45.23-45.23,45.23,45.23-45.23,45.23ZM585.54,526.13l44.76,44.76-45.23,45.23-44.76-44.76,45.23-45.23ZM250.28,513.1l45.23-45.23,45.23,45.23-45.23,45.23-45.23-45.23ZM282.48,571.36l-44.76,44.76-45.23-45.23,44.76-44.76,45.23,45.23ZM295.34,235.93l45.23,45.23-45.23,45.23-45.23-45.23,45.23-45.23ZM237.08,268.13l-33.88-33.88,45.23-45.23,33.88,33.88-45.23,45.23ZM456.15,281.16l-44.76,44.76-44.76-44.76,44.76-44.76,44.76,44.76ZM424.42,223.37l45.23-45.23,44.76,44.76-45.23,45.23-44.76-44.76ZM411.39,442.45l-45.23-45.23,45.23-45.23,45.23,45.23-45.23,45.23ZM469.66,410.24l44.59,44.59-45.23,45.23-44.59-44.59,45.23-45.23ZM398.36,455.48l-44.59,44.59-45.23-45.23,44.59-44.59,45.23,45.23ZM353.13,384.18l-44.76-44.76,45.23-45.23,44.76,44.76-45.23,45.23ZM424.43,338.95l44.76-44.76,45.23,45.23-44.76,44.76-45.23-45.23ZM353.61,268.13l-45.23-45.23,44.76-44.76,45.23,45.23-44.76,44.76ZM282.31,339.42l-44.59,44.59-45.23-45.23,44.59-44.59,45.23,45.23ZM295.34,352.45l44.76,44.76-44.59,44.59-44.76-44.76,44.59-44.59ZM282.48,454.84l-45.23,45.23-44.76-44.76,45.23-45.23,44.76,44.76ZM353.77,526.13l44.59,44.59-45.23,45.23-44.59-44.59,45.23-45.23ZM366.8,513.1l44.59-44.59,44.59,44.59-44.59,44.59-44.59-44.59ZM469.02,526.13l45.23,45.23-44.59,44.59-45.23-45.23,44.59-44.59ZM540.31,454.84l44.76-44.76,45.23,45.23-44.76,44.76-45.23-45.23ZM527.28,441.81l-44.59-44.59,44.76-44.76,44.59,44.59-44.76,44.76ZM540.48,339.42l45.23-45.23,44.59,44.59-45.23,45.23-44.59-44.59ZM527.45,326.39l-45.23-45.23,45.23-45.23,45.23,45.23-45.23,45.23ZM540.48,222.9l33.88-33.88,45.23,45.23-33.88,33.88-45.23-45.23ZM469.66,152.08l-45.23-45.23,33.88-33.88,45.23,45.23-33.88,33.88ZM456.63,165.11l-45.23,45.23-45.23-45.23,45.23-45.23,45.23,45.23ZM353.13,152.08l-33.88-33.88,45.23-45.23,33.88,33.88-45.23,45.23ZM340.1,165.11l-44.76,44.76-33.88-33.88,44.76-44.76,33.88,33.88ZM248.44,162.96l-45.23-45.23,44.76-44.76,45.23,45.23-44.76,44.76ZM177.14,234.25l-44.59,44.59-45.23-45.23,44.59-44.59,45.23,45.23ZM190.17,247.28l33.88,33.88-44.59,44.59-33.88-33.88,44.59-44.59ZM166.43,338.78l-45.23,45.23-33.88-33.88,45.23-45.23,33.88,33.88ZM179.46,351.81l45.23,45.23-45.23,45.23-45.23-45.23,45.23-45.23ZM166.43,455.31l-44.76,44.76-45.23-45.23,44.76-44.76,45.23,45.23ZM179.46,468.34l44.76,44.76-44.76,44.76-44.76-44.76,44.76-44.76ZM166.43,570.89l-45.23,45.23-44.76-44.76,45.23-45.23,44.76,44.76ZM237.72,642.18l44.59,44.59-45.23,45.23-44.59-44.59,45.23-45.23ZM250.75,629.15l44.76-44.76,44.59,44.59-44.76,44.76-44.59-44.59ZM353.13,642.02l45.23,45.23-44.76,44.76-45.23-45.23,44.76-44.76ZM366.16,628.99l45.23-45.23,45.23,45.23-45.23,45.23-45.23-45.23ZM469.66,642.02l44.76,44.76-45.23,45.23-44.76-44.76,45.23-45.23ZM482.69,628.99l44.59-44.59,44.76,44.76-44.59,44.59-44.76-44.76ZM585.07,642.18l45.23,45.23-44.59,44.59-45.23-45.23,44.59-44.59ZM656.36,570.89l44.76-44.76,45.23,45.23-44.76,44.76-45.23-45.23ZM643.33,557.86l-44.76-44.76,44.76-44.76,44.76,44.76-44.76,44.76ZM656.36,455.31l45.23-45.23,44.76,44.76-45.23,45.23-44.76-44.76ZM643.33,442.28l-45.23-45.23,45.23-45.23,45.23,45.23-45.23,45.23ZM656.36,338.78l33.88-33.88,45.23,45.23-33.88,33.88-45.23-45.23ZM643.33,325.75l-44.59-44.59,33.88-33.88,44.59,44.59-33.88,33.88ZM645.65,234.25l45.23-45.23,44.59,44.59-45.23,45.23-44.59-44.59ZM632.62,221.22l-45.23-45.23,45.23-45.23,45.23,45.23-45.23,45.23ZM645.65,117.73l43.55-43.55,45.23,45.23-43.55,43.55-45.23-45.23ZM516.57,14.7l45.23,45.23-45.23,45.23-45.23-45.23,45.23-45.23ZM411.4,26.06l33.88,33.88-33.88,33.88-33.88-33.88,33.88-33.88ZM306.22,14.7l45.23,45.23-45.23,45.23-45.23-45.23,45.23-45.23ZM191.38,16.39l43.55,43.55-44.76,44.76-43.55-43.55,44.76-44.76ZM30.09,61.14L75.33,15.91l45.23,45.23-45.23,45.23L30.09,61.14ZM30.73,177.03l44.59-44.59,43.55,43.55-44.59,44.59-43.55-43.55ZM29.05,291.88l45.23-45.23,45.23,45.23-45.23,45.23-45.23-45.23ZM29.52,407.93l44.76-44.76,33.88,33.88-44.76,44.76-33.88-33.88ZM18.17,513.1l45.23-45.23,45.23,45.23-45.23,45.23-45.23-45.23ZM16.29,631.5l47.11-47.11,44.76,44.76-47.11,47.11-44.76-44.76ZM61.05,792.79l-45.23-45.23,45.23-45.23,45.23,45.23-45.23,45.23ZM176.94,792.15l-44.59-44.59,47.11-47.11,44.59,44.59-47.11,47.11ZM295.34,790.27l-45.23-45.23,45.23-45.23,45.23,45.23-45.23,45.23ZM411.4,789.8l-44.76-44.76,44.76-44.76,44.76,44.76-44.76,44.76ZM527.45,790.27l-45.23-45.23,45.23-45.23,45.23,45.23-45.23,45.23ZM645.85,792.15l-47.11-47.11,44.59-44.59,47.11,47.11-44.59,44.59ZM806.97,747.56l-45.23,45.23-45.23-45.23,45.23-45.23,45.23,45.23ZM806.5,631.5l-44.76,44.76-47.11-47.11,44.76-44.76,47.11,47.11ZM804.62,513.1l-45.23,45.23-45.23-45.23,45.23-45.23,45.23,45.23ZM793.27,407.93l-33.88,33.88-44.76-44.76,33.88-33.88,44.76,44.76ZM793.74,291.88l-45.23,45.23-45.23-45.23,45.23-45.23,45.23,45.23ZM792.06,177.03l-43.55,43.55-44.59-44.59,43.55-43.55,44.59,44.59ZM747.46,106.38l-45.23-45.23,45.23-45.23,45.23,45.23-45.23,45.23Z"/>
      <path class="cls-2" d="M745.17,174.5c0-26.3-21.35-47.65-47.66-47.65H125.27c-26.3,0-47.66,21.35-47.66,47.65v541.07c0,26.3,21.35,47.65,47.66,47.65h572.24c26.3,0,47.66-21.35,47.66-47.65V174.5h0Z"/>
      <path class="cls-6" d="M698.47,773.81h-11.87c-1.44,0-2.63-1.19-2.63-2.63s1.19-2.63,2.63-2.63h11.87c1.44,0,2.6,1.16,2.6,2.63s-1.16,2.63-2.6,2.63ZM676.35,773.81h-7.93c-1.44,0-2.6-1.19-2.6-2.63s1.16-2.63,2.6-2.63h7.93c1.44,0,2.6,1.16,2.6,2.63s-1.16,2.63-2.6,2.63ZM659.21,773.81h-11.83c-1.47,0-2.67-1.19-2.67-2.63s1.19-2.63,2.67-2.63h11.83c1.44,0,2.63,1.16,2.63,2.63s-1.19,2.63-2.63,2.63ZM637.09,773.81h-7.9c-1.44,0-2.63-1.19-2.63-2.63s1.19-2.63,2.63-2.63h7.9c1.44,0,2.63,1.16,2.63,2.63,0,1.44-1.19,2.63-2.63,2.63ZM619.99,773.81h-11.87c-1.44,0-2.63-1.19-2.63-2.63s1.19-2.63,2.63-2.63h11.87c1.44,0,2.6,1.16,2.6,2.63s-1.16,2.63-2.6,2.63ZM597.84,773.81h-7.87c-1.47,0-2.67-1.19-2.67-2.63s1.19-2.63,2.67-2.63h7.87c1.47,0,2.63,1.16,2.63,2.63,0,1.44-1.16,2.63-2.63,2.63ZM580.74,773.81h-11.87c-1.44,0-2.6-1.19-2.6-2.63s1.16-2.63,2.6-2.63h11.87c1.44,0,2.63,1.16,2.63,2.63,0,1.44-1.19,2.63-2.63,2.63ZM558.62,773.81h-7.9c-1.44,0-2.63-1.19-2.63-2.63s1.19-2.63,2.63-2.63h7.9c1.44,0,2.63,1.16,2.63,2.63,0,1.44-1.2,2.63-2.63,2.63ZM541.49,773.81h-11.83c-1.44,0-2.63-1.19-2.63-2.63s1.19-2.63,2.63-2.63h11.83c1.47,0,2.63,1.16,2.63,2.63,0,1.44-1.16,2.63-2.63,2.63ZM519.4,773.81h-7.93c-1.44,0-2.6-1.19-2.6-2.63s1.16-2.63,2.6-2.63h7.93c1.44,0,2.6,1.16,2.6,2.63s-1.16,2.63-2.6,2.63ZM502.27,773.81h-11.83c-1.47,0-2.67-1.19-2.67-2.63s1.19-2.63,2.67-2.63h11.83c1.44,0,2.63,1.16,2.63,2.63,0,1.44-1.19,2.63-2.63,2.63ZM480.15,773.81h-7.9c-1.44,0-2.63-1.19-2.63-2.63s1.19-2.63,2.63-2.63h7.9c1.44,0,2.63,1.16,2.63,2.63,0,1.44-1.19,2.63-2.63,2.63ZM463.05,773.81h-11.87c-1.44,0-2.63-1.19-2.63-2.63s1.19-2.63,2.63-2.63h11.87c1.44,0,2.6,1.16,2.6,2.63s-1.16,2.63-2.6,2.63ZM440.9,773.81h-7.87c-1.47,0-2.63-1.19-2.63-2.63s1.16-2.63,2.63-2.63h7.87c1.47,0,2.63,1.16,2.63,2.63s-1.16,2.63-2.63,2.63ZM423.8,773.81h-11.87c-1.44,0-2.63-1.19-2.63-2.63s1.19-2.63,2.63-2.63h11.87c1.44,0,2.63,1.16,2.63,2.63,0,1.44-1.19,2.63-2.63,2.63ZM401.68,773.81h-7.9c-1.44,0-2.63-1.19-2.63-2.63s1.19-2.63,2.63-2.63h7.9c1.44,0,2.63,1.16,2.63,2.63,0,1.44-1.19,2.63-2.63,2.63ZM384.54,773.81h-11.83c-1.44,0-2.63-1.19-2.63-2.63s1.19-2.63,2.63-2.63h11.83c1.47,0,2.63,1.16,2.63,2.63,0,1.44-1.16,2.63-2.63,2.63ZM362.46,773.81h-7.94c-1.44,0-2.6-1.19-2.6-2.63s1.16-2.63,2.6-2.63h7.94c1.44,0,2.6,1.16,2.6,2.63,0,1.44-1.16,2.63-2.6,2.63ZM345.32,773.81h-11.83c-1.47,0-2.63-1.19-2.63-2.63s1.16-2.63,2.63-2.63h11.83c1.44,0,2.63,1.16,2.63,2.63,0,1.44-1.2,2.63-2.63,2.63ZM323.2,773.81h-7.9c-1.44,0-2.63-1.19-2.63-2.63s1.19-2.63,2.63-2.63h7.9c1.44,0,2.63,1.16,2.63,2.63,0,1.44-1.19,2.63-2.63,2.63ZM306.1,773.81h-11.87c-1.44,0-2.63-1.19-2.63-2.63s1.19-2.63,2.63-2.63h11.87c1.44,0,2.6,1.16,2.6,2.63s-1.16,2.63-2.6,2.63ZM283.98,773.81h-7.9c-1.47,0-2.63-1.19-2.63-2.63s1.16-2.63,2.63-2.63h7.9c1.44,0,2.6,1.16,2.6,2.63s-1.16,2.63-2.6,2.63ZM266.85,773.81h-11.83c-1.47,0-2.63-1.19-2.63-2.63s1.16-2.63,2.63-2.63h11.83c1.44,0,2.63,1.16,2.63,2.63,0,1.44-1.19,2.63-2.63,2.63ZM244.73,773.81h-7.9c-1.44,0-2.63-1.19-2.63-2.63s1.19-2.63,2.63-2.63h7.9c1.44,0,2.63,1.16,2.63,2.63,0,1.44-1.19,2.63-2.63,2.63ZM227.63,773.81h-11.87c-1.44,0-2.63-1.19-2.63-2.63s1.19-2.63,2.63-2.63h11.87c1.44,0,2.6,1.16,2.6,2.63s-1.16,2.63-2.6,2.63ZM205.48,773.81h-7.87c-1.47,0-2.67-1.19-2.67-2.63s1.19-2.63,2.67-2.63h7.87c1.47,0,2.63,1.16,2.63,2.63,0,1.44-1.16,2.63-2.63,2.63ZM188.38,773.81h-11.87c-1.44,0-2.6-1.19-2.6-2.63s1.16-2.63,2.6-2.63h11.87c1.44,0,2.63,1.16,2.63,2.63s-1.19,2.63-2.63,2.63ZM166.26,773.81h-7.9c-1.44,0-2.63-1.19-2.63-2.63s1.19-2.63,2.63-2.63h7.9c1.44,0,2.63,1.16,2.63,2.63s-1.2,2.63-2.63,2.63ZM149.12,773.81h-11.83c-1.44,0-2.63-1.19-2.63-2.63s1.19-2.63,2.63-2.63h11.83c1.47,0,2.63,1.16,2.63,2.63,0,1.44-1.16,2.63-2.63,2.63ZM127.04,773.81h-7.93c-1.44,0-2.6-1.19-2.6-2.63s1.16-2.63,2.6-2.63h7.93c1.44,0,2.6,1.16,2.6,2.63s-1.16,2.63-2.6,2.63ZM707.67,773.71c-1.4,0-2.56-1.09-2.63-2.46v-.14c0-1.41,1.09-2.56,2.49-2.67,2.46-.14,4.92-.49,7.38-1.02,1.37-.32,2.84.6,3.16,2,.28,1.41-.6,2.81-2,3.13-2.67.6-5.44.98-8.25,1.16-.03,0-.1,0-.14,0ZM109.94,773.14c-.14,0-.25-.03-.42-.03-4.11-.7-8.15-1.9-11.94-3.55-1.33-.6-1.96-2.14-1.37-3.47.56-1.27,2.14-1.93,3.44-1.34,3.48,1.47,7.06,2.53,10.71,3.16,1.44.21,2.42,1.58,2.18,3.02-.21,1.26-1.3,2.21-2.59,2.21ZM725.19,769.32c-1.02,0-1.96-.6-2.39-1.51-.32-.63-.35-1.37-.11-2,.25-.67.74-1.2,1.41-1.51,3.41-1.58,6.6-3.55,9.48-5.86,1.12-.88,2.85-.7,3.72.42.91,1.12.7,2.77-.42,3.69-3.26,2.6-6.81,4.81-10.6,6.57-.32.14-.7.21-1.09.21ZM89.68,764.75c-.53,0-1.05-.18-1.51-.49-2.25-1.61-4.39-3.41-6.36-5.37,0,0-.03,0-.03-.03-.49-.49-.74-1.12-.77-1.82,0-.7.28-1.37.77-1.86.98-.98,2.74-1.02,3.72,0,1.76,1.72,3.69,3.34,5.72,4.78,1.16.84,1.44,2.49.63,3.69-.53.7-1.3,1.12-2.18,1.12ZM741.86,756.71c-.63,0-1.23-.21-1.72-.63-.6-.49-.95-1.27-.91-2.04,0-.63.25-1.19.63-1.65,1.61-1.9,3.09-3.93,4.39-6.04.74-1.2,2.42-1.61,3.62-.88,1.23.74,1.65,2.39.88,3.61-1.44,2.35-3.09,4.64-4.88,6.71-.53.6-1.23.91-2,.91ZM77.74,752.6c-.84,0-1.68-.42-2.17-1.16-2.35-3.41-4.29-7.12-5.76-11.02-.53-1.37.18-2.88,1.55-3.41,1.33-.46,2.88.24,3.37,1.54,1.33,3.48,3.06,6.81,5.19,9.94.81,1.16.53,2.81-.67,3.65-.46.28-.98.46-1.51.46ZM750.89,741.09c-.28,0-.6-.04-.88-.14-1.37-.49-2.07-2-1.61-3.37,1.26-3.51,2.04-7.16,2.39-10.92.14-1.44,1.44-2.49,2.88-2.35,1.44.11,2.53,1.41,2.39,2.84-.42,4.18-1.3,8.29-2.67,12.19-.39,1.05-1.37,1.76-2.49,1.76ZM69.7,732.2c-1.3,0-2.42-.95-2.63-2.25-.35-2.53-.56-5.09-.56-7.66v-.6c0-1.44,1.19-2.63,2.63-2.63s2.63,1.19,2.63,2.63v.6c0,2.28.18,4.6.53,6.88.11.7-.07,1.41-.49,1.97-.42.56-1.02.91-1.72,1.02-.14.03-.25.03-.39.03ZM753.62,720.34c-1.44,0-2.63-1.19-2.63-2.63v-7.9c0-1.44,1.2-2.63,2.63-2.63s2.63,1.19,2.63,2.63v7.9c0,1.44-1.16,2.63-2.63,2.63ZM69.14,715.1c-1.44,0-2.63-1.16-2.63-2.6v-11.87c0-1.44,1.19-2.63,2.63-2.63s2.63,1.19,2.63,2.63v11.87c0,1.44-1.16,2.6-2.63,2.6ZM753.62,702.15c-1.44,0-2.63-1.16-2.63-2.63v-11.83c0-1.44,1.2-2.63,2.63-2.63s2.63,1.19,2.63,2.63v11.83c0,1.48-1.16,2.63-2.63,2.63ZM69.14,692.98c-1.44,0-2.63-1.16-2.63-2.63v-7.87c0-1.47,1.19-2.63,2.63-2.63s2.63,1.16,2.63,2.63v7.87c0,1.48-1.16,2.63-2.63,2.63ZM753.62,681.08c-1.44,0-2.63-1.16-2.63-2.6v-7.94c0-1.44,1.2-2.6,2.63-2.6s2.63,1.16,2.63,2.6v7.94c0,1.44-1.16,2.6-2.63,2.6ZM69.14,675.89c-1.44,0-2.63-1.19-2.63-2.63v-11.87c0-1.44,1.19-2.63,2.63-2.63s2.63,1.19,2.63,2.63v11.87c0,1.44-1.16,2.63-2.63,2.63ZM753.62,662.93c-1.44,0-2.63-1.19-2.63-2.63v-11.83c0-1.48,1.2-2.67,2.63-2.67s2.63,1.19,2.63,2.67v11.83c0,1.44-1.16,2.63-2.63,2.63ZM69.14,653.77c-1.44,0-2.63-1.19-2.63-2.63v-7.9c0-1.44,1.19-2.63,2.63-2.63s2.63,1.19,2.63,2.63v7.9c0,1.44-1.16,2.63-2.63,2.63ZM753.62,641.86c-1.44,0-2.63-1.19-2.63-2.63v-7.9c0-1.44,1.2-2.63,2.63-2.63s2.63,1.2,2.63,2.63v7.9c0,1.44-1.16,2.63-2.63,2.63ZM69.14,636.63c-1.44,0-2.63-1.16-2.63-2.63v-11.83c0-1.44,1.19-2.63,2.63-2.63s2.63,1.19,2.63,2.63v11.83c0,1.47-1.16,2.63-2.63,2.63ZM753.62,623.68c-1.44,0-2.63-1.16-2.63-2.63v-11.83c0-1.44,1.2-2.63,2.63-2.63s2.63,1.19,2.63,2.63v11.83c0,1.47-1.16,2.63-2.63,2.63ZM69.14,614.51c-1.44,0-2.63-1.16-2.63-2.6v-7.94c0-1.44,1.19-2.6,2.63-2.6s2.63,1.16,2.63,2.6v7.94c0,1.44-1.16,2.6-2.63,2.6ZM753.62,602.61c-1.44,0-2.63-1.16-2.63-2.6v-7.9c0-1.47,1.2-2.63,2.63-2.63s2.63,1.16,2.63,2.63v7.9c0,1.44-1.16,2.6-2.63,2.6ZM69.14,597.42c-1.44,0-2.63-1.2-2.63-2.63v-11.83c0-1.47,1.19-2.63,2.63-2.63s2.63,1.16,2.63,2.63v11.83c0,1.44-1.16,2.63-2.63,2.63ZM753.62,584.46c-1.44,0-2.63-1.19-2.63-2.63v-11.83c0-1.47,1.2-2.67,2.63-2.67s2.63,1.19,2.63,2.67v11.83c0,1.44-1.16,2.63-2.63,2.63ZM69.14,575.29c-1.44,0-2.63-1.19-2.63-2.63v-7.9c0-1.44,1.19-2.63,2.63-2.63s2.63,1.2,2.63,2.63v7.9c0,1.44-1.16,2.63-2.63,2.63ZM753.62,563.39c-1.44,0-2.63-1.19-2.63-2.63v-7.9c0-1.44,1.2-2.63,2.63-2.63s2.63,1.19,2.63,2.63v7.9c0,1.44-1.16,2.63-2.63,2.63ZM69.14,558.16c-1.44,0-2.63-1.16-2.63-2.6v-11.87c0-1.44,1.19-2.63,2.63-2.63s2.63,1.2,2.63,2.63v11.87c0,1.44-1.16,2.6-2.63,2.6ZM753.62,545.2c-1.44,0-2.63-1.16-2.63-2.6v-11.87c0-1.44,1.2-2.63,2.63-2.63s2.63,1.19,2.63,2.63v11.87c0,1.44-1.16,2.6-2.63,2.6ZM69.14,536.04c-1.44,0-2.63-1.16-2.63-2.6v-7.9c0-1.47,1.19-2.63,2.63-2.63s2.63,1.16,2.63,2.63v7.9c0,1.44-1.16,2.6-2.63,2.6ZM753.62,524.14c-1.44,0-2.63-1.16-2.63-2.63v-7.87c0-1.47,1.2-2.67,2.63-2.67s2.63,1.19,2.63,2.67v7.87c0,1.47-1.16,2.63-2.63,2.63ZM69.14,518.94c-1.44,0-2.63-1.19-2.63-2.63v-11.83c0-1.47,1.19-2.63,2.63-2.63s2.63,1.16,2.63,2.63v11.83c0,1.44-1.16,2.63-2.63,2.63ZM753.62,505.99c-1.44,0-2.63-1.2-2.63-2.63v-11.87c0-1.44,1.2-2.6,2.63-2.6s2.63,1.16,2.63,2.6v11.87c0,1.44-1.16,2.63-2.63,2.63ZM69.14,496.82c-1.44,0-2.63-1.19-2.63-2.63v-7.9c0-1.44,1.19-2.63,2.63-2.63s2.63,1.19,2.63,2.63v7.9c0,1.44-1.16,2.63-2.63,2.63ZM753.62,484.92c-1.44,0-2.63-1.2-2.63-2.63v-7.9c0-1.44,1.2-2.63,2.63-2.63s2.63,1.19,2.63,2.63v7.9c0,1.44-1.16,2.63-2.63,2.63ZM69.14,479.69c-1.44,0-2.63-1.16-2.63-2.6v-11.87c0-1.44,1.19-2.63,2.63-2.63s2.63,1.19,2.63,2.63v11.87c0,1.44-1.16,2.6-2.63,2.6ZM753.62,466.73c-1.44,0-2.63-1.16-2.63-2.6v-11.87c0-1.44,1.2-2.63,2.63-2.63s2.63,1.2,2.63,2.63v11.87c0,1.44-1.16,2.6-2.63,2.6ZM69.14,457.57c-1.44,0-2.63-1.16-2.63-2.63v-7.87c0-1.47,1.19-2.67,2.63-2.67s2.63,1.19,2.63,2.67v7.87c0,1.47-1.16,2.63-2.63,2.63ZM753.62,445.66c-1.44,0-2.63-1.16-2.63-2.63v-7.9c0-1.44,1.2-2.6,2.63-2.6s2.63,1.16,2.63,2.6v7.9c0,1.48-1.16,2.63-2.63,2.63ZM69.14,440.47c-1.44,0-2.63-1.19-2.63-2.63v-11.87c0-1.44,1.19-2.6,2.63-2.6s2.63,1.16,2.63,2.6v11.87c0,1.44-1.16,2.63-2.63,2.63ZM753.62,427.51c-1.44,0-2.63-1.19-2.63-2.63v-11.83c0-1.47,1.2-2.63,2.63-2.63s2.63,1.16,2.63,2.63v11.83c0,1.44-1.16,2.63-2.63,2.63ZM69.14,418.35c-1.44,0-2.63-1.2-2.63-2.63v-7.9c0-1.44,1.19-2.63,2.63-2.63s2.63,1.19,2.63,2.63v7.9c0,1.44-1.16,2.63-2.63,2.63ZM753.62,406.44c-1.44,0-2.63-1.19-2.63-2.63v-7.9c0-1.44,1.2-2.63,2.63-2.63s2.63,1.19,2.63,2.63v7.9c0,1.44-1.16,2.63-2.63,2.63ZM69.14,401.21c-1.44,0-2.63-1.16-2.63-2.63v-11.83c0-1.44,1.19-2.63,2.63-2.63s2.63,1.19,2.63,2.63v11.83c0,1.48-1.16,2.63-2.63,2.63ZM753.62,388.26c-1.44,0-2.63-1.16-2.63-2.6v-11.87c0-1.44,1.2-2.63,2.63-2.63s2.63,1.19,2.63,2.63v11.87c0,1.44-1.16,2.6-2.63,2.6ZM69.14,379.09c-1.44,0-2.63-1.16-2.63-2.6v-7.93c0-1.44,1.19-2.6,2.63-2.6s2.63,1.16,2.63,2.6v7.93c0,1.44-1.16,2.6-2.63,2.6ZM753.62,367.19c-1.44,0-2.63-1.16-2.63-2.63v-7.87c0-1.47,1.2-2.67,2.63-2.67s2.63,1.19,2.63,2.67v7.87c0,1.47-1.16,2.63-2.63,2.63ZM69.14,361.99c-1.44,0-2.63-1.19-2.63-2.63v-11.83c0-1.47,1.19-2.67,2.63-2.67s2.63,1.19,2.63,2.67v11.83c0,1.44-1.16,2.63-2.63,2.63ZM753.62,349.04c-1.44,0-2.63-1.19-2.63-2.63v-11.87c0-1.44,1.2-2.6,2.63-2.6s2.63,1.16,2.63,2.6v11.87c0,1.44-1.16,2.63-2.63,2.63ZM69.14,339.88c-1.44,0-2.63-1.19-2.63-2.63v-7.9c0-1.44,1.19-2.63,2.63-2.63s2.63,1.19,2.63,2.63v7.9c0,1.44-1.16,2.63-2.63,2.63ZM753.62,327.97c-1.44,0-2.63-1.19-2.63-2.63v-7.9c0-1.44,1.2-2.63,2.63-2.63s2.63,1.19,2.63,2.63v7.9c0,1.44-1.16,2.63-2.63,2.63ZM69.14,322.74c-1.44,0-2.63-1.16-2.63-2.6v-11.87c0-1.44,1.19-2.63,2.63-2.63s2.63,1.19,2.63,2.63v11.87c0,1.44-1.16,2.6-2.63,2.6ZM753.62,309.78c-1.44,0-2.63-1.16-2.63-2.63v-11.83c0-1.44,1.2-2.63,2.63-2.63s2.63,1.19,2.63,2.63v11.83c0,1.48-1.16,2.63-2.63,2.63ZM69.14,300.66c-1.44,0-2.63-1.19-2.63-2.67v-7.87c0-1.47,1.19-2.63,2.63-2.63s2.63,1.16,2.63,2.63v7.87c0,1.47-1.16,2.67-2.63,2.67ZM753.62,288.72c-1.44,0-2.63-1.16-2.63-2.6v-7.94c0-1.44,1.2-2.6,2.63-2.6s2.63,1.16,2.63,2.6v7.94c0,1.44-1.16,2.6-2.63,2.6ZM69.14,283.52c-1.44,0-2.63-1.19-2.63-2.63v-11.83c0-1.47,1.19-2.63,2.63-2.63s2.63,1.16,2.63,2.63v11.83c0,1.44-1.16,2.63-2.63,2.63ZM753.62,270.56c-1.44,0-2.63-1.19-2.63-2.63v-11.83c0-1.48,1.2-2.67,2.63-2.67s2.63,1.19,2.63,2.67v11.83c0,1.44-1.16,2.63-2.63,2.63ZM69.14,261.4c-1.44,0-2.63-1.19-2.63-2.63v-7.9c0-1.44,1.19-2.63,2.63-2.63s2.63,1.19,2.63,2.63v7.9c0,1.44-1.16,2.63-2.63,2.63ZM753.62,249.5c-1.44,0-2.63-1.19-2.63-2.63v-7.9c0-1.44,1.2-2.63,2.63-2.63s2.63,1.2,2.63,2.63v7.9c0,1.44-1.16,2.63-2.63,2.63ZM69.14,244.27c-1.44,0-2.63-1.16-2.63-2.63v-11.83c0-1.44,1.19-2.63,2.63-2.63s2.63,1.19,2.63,2.63v11.83c0,1.47-1.16,2.63-2.63,2.63ZM753.62,231.35c-1.44,0-2.63-1.19-2.63-2.63v-11.87c0-1.44,1.2-2.63,2.63-2.63s2.63,1.19,2.63,2.63v11.87c0,1.44-1.16,2.63-2.63,2.63ZM69.14,222.15c-1.44,0-2.63-1.16-2.63-2.6v-7.94c0-1.44,1.19-2.63,2.63-2.63s2.63,1.2,2.63,2.63v7.94c0,1.44-1.16,2.6-2.63,2.6ZM753.62,210.25c-1.44,0-2.63-1.16-2.63-2.6v-7.9c0-1.47,1.2-2.63,2.63-2.63s2.63,1.16,2.63,2.63v7.9c0,1.44-1.16,2.6-2.63,2.6ZM69.14,205.05c-1.44,0-2.63-1.2-2.63-2.63v-11.83c0-1.47,1.19-2.63,2.63-2.63s2.63,1.16,2.63,2.63v11.83c0,1.44-1.16,2.63-2.63,2.63ZM753.62,192.09c-1.44,0-2.63-1.19-2.63-2.63v-11.83c0-1.47,1.2-2.67,2.63-2.67s2.63,1.19,2.63,2.67v11.83c0,1.44-1.16,2.63-2.63,2.63ZM69.14,182.93c-1.44,0-2.63-1.19-2.63-2.63v-7.9c0-1.44,1.19-2.63,2.63-2.63s2.63,1.2,2.63,2.63v7.9c0,1.44-1.16,2.63-2.63,2.63ZM753.62,171.03c-1.44,0-2.63-1.19-2.63-2.63v-1.16c0-2.46-.18-4.95-.6-7.44-.1-.7.07-1.4.49-1.96.38-.56,1.02-.95,1.68-1.05,1.47-.18,2.81.77,3.02,2.17.46,2.74.67,5.55.67,8.29v1.16c0,1.44-1.16,2.63-2.63,2.63ZM69.32,165.83c-.07,0-.14,0-.21-.03-1.44-.1-2.53-1.37-2.42-2.81.35-4.21,1.19-8.29,2.53-12.22v-.04c.46-1.3,1.97-2.07,3.34-1.61s2.1,1.97,1.65,3.34c-1.19,3.55-1.96,7.23-2.25,10.95-.14,1.37-1.26,2.42-2.63,2.42ZM750.33,152.14c-1.12,0-2.07-.67-2.49-1.69-1.33-3.47-3.12-6.78-5.27-9.83-.42-.6-.56-1.3-.46-2,.1-.67.49-1.3,1.09-1.68,1.12-.81,2.85-.53,3.65.63,2.39,3.41,4.39,7.06,5.9,10.95h0c.56,1.37-.14,2.88-1.47,3.44-.32.1-.63.17-.95.17ZM75.99,144.94c-.46,0-.95-.14-1.33-.39-.6-.35-1.05-.91-1.23-1.61-.14-.67-.07-1.37.32-1.96,1.41-2.42,3.02-4.71,4.81-6.78.88-1.09,2.63-1.23,3.69-.35.63.53.95,1.26.95,2.04,0,.63-.21,1.23-.63,1.68-1.61,1.93-3.06,3.97-4.28,6.08-.49.81-1.37,1.3-2.29,1.3ZM738.7,134.72c-.67,0-1.3-.25-1.79-.7,0,0-.03,0-.03-.03-.03-.03-.07-.07-.11-.11-1.76-1.68-3.65-3.23-5.65-4.64-.6-.42-.98-1.02-1.09-1.68-.14-.7.03-1.41.42-1.97.81-1.16,2.53-1.47,3.69-.67,2.25,1.58,4.39,3.34,6.39,5.27.53.49.81,1.16.81,1.86.04.7-.24,1.37-.74,1.86-.49.53-1.16.81-1.9.81ZM87.08,132.06c-.77,0-1.51-.35-2-.98-.46-.53-.67-1.23-.6-1.93.07-.7.38-1.33.95-1.79,3.23-2.63,6.78-4.88,10.53-6.67h.03c1.27-.6,2.85,0,3.48,1.26.6,1.3.03,2.88-1.27,3.51-3.37,1.58-6.53,3.62-9.44,6.01-.46.38-1.05.6-1.69.6ZM723.64,124.79c-.35,0-.7-.07-1.02-.21-3.41-1.44-7.02-2.45-10.75-3.02-1.44-.25-2.42-1.58-2.21-3.02s1.51-2.42,3.02-2.21c4.11.63,8.11,1.79,11.97,3.41.67.25,1.16.78,1.41,1.41.28.67.28,1.37,0,2.04-.39.98-1.37,1.61-2.42,1.61ZM106.75,122.29c-1.23,0-2.28-.81-2.56-2-.18-.7-.03-1.4.31-2,.39-.6.95-1.02,1.65-1.2,2.67-.63,5.44-1.05,8.21-1.23,1.51-.07,2.7.98,2.81,2.42v.14c.03,1.41-1.02,2.56-2.42,2.67-2.49.18-4.98.56-7.41,1.12-.17.07-.39.07-.6.07ZM703.1,120.99h-7.9c-1.47,0-2.63-1.19-2.63-2.63s1.16-2.63,2.63-2.63h7.9c1.44,0,2.6,1.19,2.6,2.63s-1.16,2.63-2.6,2.63ZM684.92,120.99h-11.83c-1.47,0-2.63-1.19-2.63-2.63s1.16-2.63,2.63-2.63h11.83c1.44,0,2.63,1.19,2.63,2.63s-1.19,2.63-2.63,2.63ZM663.85,120.99h-7.9c-1.44,0-2.63-1.19-2.63-2.63s1.19-2.63,2.63-2.63h7.9c1.44,0,2.63,1.19,2.63,2.63,0,1.44-1.19,2.63-2.63,2.63ZM645.7,120.99h-11.87c-1.44,0-2.63-1.19-2.63-2.63s1.19-2.63,2.63-2.63h11.87c1.44,0,2.6,1.19,2.6,2.63,0,1.44-1.15,2.63-2.6,2.63ZM624.63,120.99h-7.9c-1.47,0-2.67-1.19-2.67-2.63s1.2-2.63,2.67-2.63h7.9c1.44,0,2.63,1.19,2.63,2.63s-1.19,2.63-2.63,2.63ZM606.44,120.99h-11.83c-1.48,0-2.63-1.19-2.63-2.63s1.16-2.63,2.63-2.63h11.83c1.44,0,2.63,1.19,2.63,2.63,0,1.44-1.19,2.63-2.63,2.63ZM585.37,120.99h-7.9c-1.44,0-2.63-1.19-2.63-2.63s1.2-2.63,2.63-2.63h7.9c1.44,0,2.63,1.19,2.63,2.63s-1.19,2.63-2.63,2.63ZM567.22,120.99h-11.87c-1.44,0-2.63-1.19-2.63-2.63s1.19-2.63,2.63-2.63h11.87c1.44,0,2.6,1.19,2.6,2.63s-1.16,2.63-2.6,2.63ZM546.16,120.99h-7.9c-1.47,0-2.63-1.19-2.63-2.63s1.16-2.63,2.63-2.63h7.9c1.44,0,2.63,1.19,2.63,2.63s-1.19,2.63-2.63,2.63ZM527.97,120.99h-11.83c-1.47,0-2.63-1.19-2.63-2.63s1.16-2.63,2.63-2.63h11.83c1.44,0,2.63,1.19,2.63,2.63,0,1.44-1.19,2.63-2.63,2.63ZM506.9,120.99h-7.9c-1.44,0-2.63-1.19-2.63-2.63s1.19-2.63,2.63-2.63h7.9c1.44,0,2.63,1.19,2.63,2.63,0,1.44-1.19,2.63-2.63,2.63ZM488.75,120.99h-11.87c-1.44,0-2.63-1.19-2.63-2.63s1.19-2.63,2.63-2.63h11.87c1.44,0,2.63,1.19,2.63,2.63,0,1.44-1.19,2.63-2.63,2.63ZM467.68,120.99h-7.9c-1.47,0-2.63-1.19-2.63-2.63s1.16-2.63,2.63-2.63h7.9c1.44,0,2.6,1.19,2.6,2.63s-1.16,2.63-2.6,2.63ZM449.5,120.99h-11.83c-1.47,0-2.63-1.19-2.63-2.63s1.16-2.63,2.63-2.63h11.83c1.44,0,2.63,1.19,2.63,2.63s-1.2,2.63-2.63,2.63ZM428.43,120.99h-7.9c-1.44,0-2.63-1.19-2.63-2.63s1.19-2.63,2.63-2.63h7.9c1.44,0,2.63,1.19,2.63,2.63s-1.2,2.63-2.63,2.63ZM410.28,120.99h-11.87c-1.44,0-2.63-1.19-2.63-2.63s1.2-2.63,2.63-2.63h11.87c1.44,0,2.63,1.19,2.63,2.63s-1.2,2.63-2.63,2.63ZM389.21,120.99h-7.9c-1.48,0-2.63-1.19-2.63-2.63s1.16-2.63,2.63-2.63h7.9c1.44,0,2.6,1.19,2.6,2.63,0,1.44-1.16,2.63-2.6,2.63ZM371.02,120.99h-11.83c-1.47,0-2.63-1.19-2.63-2.63s1.16-2.63,2.63-2.63h11.83c1.44,0,2.63,1.19,2.63,2.63,0,1.44-1.19,2.63-2.63,2.63ZM349.96,120.99h-7.9c-1.44,0-2.63-1.19-2.63-2.63s1.19-2.63,2.63-2.63h7.9c1.47,0,2.63,1.19,2.63,2.63,0,1.44-1.16,2.63-2.63,2.63ZM331.8,120.99h-11.87c-1.44,0-2.63-1.19-2.63-2.63s1.19-2.63,2.63-2.63h11.87c1.44,0,2.63,1.19,2.63,2.63,0,1.44-1.19,2.63-2.63,2.63ZM310.74,120.99h-7.9c-1.47,0-2.63-1.19-2.63-2.63s1.16-2.63,2.63-2.63h7.9c1.44,0,2.6,1.19,2.6,2.63s-1.16,2.63-2.6,2.63ZM292.55,120.99h-11.83c-1.47,0-2.63-1.19-2.63-2.63s1.16-2.63,2.63-2.63h11.83c1.44,0,2.63,1.19,2.63,2.63,0,1.44-1.19,2.63-2.63,2.63ZM271.49,120.99h-7.9c-1.44,0-2.63-1.19-2.63-2.63s1.19-2.63,2.63-2.63h7.9c1.44,0,2.63,1.19,2.63,2.63,0,1.44-1.19,2.63-2.63,2.63ZM253.33,120.99h-11.87c-1.44,0-2.63-1.19-2.63-2.63s1.19-2.63,2.63-2.63h11.87c1.44,0,2.6,1.19,2.6,2.63,0,1.44-1.16,2.63-2.6,2.63ZM232.27,120.99h-7.9c-1.47,0-2.63-1.19-2.63-2.63s1.16-2.63,2.63-2.63h7.9c1.44,0,2.63,1.19,2.63,2.63,0,1.44-1.19,2.63-2.63,2.63ZM214.08,120.99h-11.83c-1.48,0-2.63-1.19-2.63-2.63s1.16-2.63,2.63-2.63h11.83c1.44,0,2.63,1.19,2.63,2.63s-1.19,2.63-2.63,2.63ZM193.01,120.99h-7.9c-1.44,0-2.63-1.19-2.63-2.63s1.2-2.63,2.63-2.63h7.9c1.44,0,2.63,1.19,2.63,2.63,0,1.44-1.19,2.63-2.63,2.63ZM174.86,120.99h-11.87c-1.44,0-2.63-1.19-2.63-2.63s1.19-2.63,2.63-2.63h11.87c1.44,0,2.63,1.19,2.63,2.63,0,1.44-1.19,2.63-2.63,2.63ZM153.79,120.99h-7.9c-1.47,0-2.63-1.19-2.63-2.63s1.16-2.63,2.63-2.63h7.9c1.44,0,2.63,1.19,2.63,2.63,0,1.44-1.19,2.63-2.63,2.63ZM135.61,120.99h-11.83c-1.47,0-2.63-1.19-2.63-2.63s1.16-2.63,2.63-2.63h11.83c1.44,0,2.63,1.19,2.63,2.63,0,1.44-1.19,2.63-2.63,2.63Z"/>
      <polygon class="cls-5" points="678.61 200.94 144.18 200.94 144.18 203.93 678.61 203.93 678.61 200.94"/>
      <polygon class="cls-5" points="678.61 491.8 144.18 491.8 144.18 494.8 678.61 494.8 678.61 491.8"/>
      <polygon class="cls-5" points="678.61 348.81 144.18 348.81 144.18 351.8 678.61 351.8 678.61 348.81"/>
      <polygon class="cls-5" points="678.61 639.67 144.18 639.67 144.18 642.67 678.61 642.67 678.61 639.67"/>
      <polygon class="cls-5" points="678.61 276.22 144.18 276.22 144.18 279.21 678.61 279.21 678.61 276.22"/>
      <polygon class="cls-5" points="678.61 567.08 144.18 567.08 144.18 570.08 678.61 570.08 678.61 567.08"/>
      <polygon class="cls-5" points="678.61 424.09 144.18 424.09 144.18 427.09 678.61 427.09 678.61 424.09"/>
      <polygon class="cls-5" points="678.61 714.95 144.18 714.95 144.18 717.95 678.61 717.95 678.61 714.95"/>
      <path class="cls-1" d="M822.58.09c.03.91.05,1.83.05,2.75,0,45.78-37.32,82.95-83.3,82.95-40.87,0-74.91-29.38-81.96-68.07-7.05,38.69-41.09,68.07-81.96,68.07s-75.33-29.75-82.08-68.79c-6.75,39.05-40.96,68.79-82.08,68.79s-74.45-28.98-81.81-67.29c-7.36,38.3-41.21,67.29-81.81,67.29s-75.33-29.75-82.09-68.79c-6.76,39.05-40.96,68.79-82.08,68.79C37.48,85.79.16,48.62.16,2.84c0-.92.01-1.83.05-2.75h822.38Z"/>
    </g>
  </g>
</svg>