<?xml version="1.0" encoding="UTF-8"?>
<svg id="Layer_2" data-name="Layer 2" xmlns="http://www.w3.org/2000/svg" viewBox="0 0 1230 1230">
  <defs>
    <style>
      .cls-1 {
        fill: #f05b43;
      }

      .cls-2 {
        fill: #547045;
      }

      .cls-3 {
        fill: #f2aba8;
      }

      .cls-4 {
        opacity: .42;
      }

      .cls-5 {
        opacity: .65;
      }

      .cls-6 {
        fill: #abdce0;
      }

      .cls-7 {
        fill: #c8e3e6;
      }

      .cls-8 {
        fill: #fcd24e;
      }

      .cls-9 {
        fill: #fefefe;
      }

      .cls-10 {
        fill: #fad35a;
      }

      .cls-11 {
        fill: #9f86c0;
      }

      .cls-12 {
        fill: #fff5f5;
      }
    </style>
  </defs>
  <g id="NOTES">
    <g id="_3" data-name="3">
      <g class="cls-4">
        <rect class="cls-11" width="1230" height="1230"/>
        <g>
          <g class="cls-5">
            <rect class="cls-12" y="79.13" width="1230" height="64.98"/>
            <rect class="cls-12" y="246.65" width="1230" height="64.97"/>
            <rect class="cls-12" y="414.16" width="1230" height="64.97"/>
            <rect class="cls-12" y="581.67" width="1230" height="64.98"/>
            <rect class="cls-12" y="749.19" width="1230" height="64.97"/>
            <rect class="cls-12" y="916.7" width="1230" height="64.97"/>
            <rect class="cls-12" y="1084.22" width="1230" height="64.97"/>
          </g>
          <g class="cls-5">
            <rect class="cls-12" x="71.04" width="64.98" height="1230"/>
            <rect class="cls-12" x="238.56" width="64.97" height="1230"/>
            <rect class="cls-12" x="406.07" width="64.97" height="1230"/>
            <rect class="cls-12" x="573.58" width="64.98" height="1230"/>
            <rect class="cls-12" x="741.1" width="64.97" height="1230"/>
            <rect class="cls-12" x="908.61" width="64.98" height="1230"/>
            <rect class="cls-12" x="1076.13" width="64.97" height="1230"/>
          </g>
        </g>
      </g>
      <rect class="cls-9" x="57.38" y="58.71" width="1110.9" height="1110.9" rx="497.34" ry="497.34"/>
      <g>
        <path class="cls-2" d="M435.39,1182.41s0-.01.01-.02c.27-.59.39-1.25.37-1.91-.5-23.05-1-46.1-1.5-69.16-4.24-1.16-7.54-1.73-11.17.54-.16.1-.25.27-.25.46.18,23.75,1.17,45.77,1.38,69.44.01,1.18.88,2.19,2.08,2.41s2.45.35,3.79.24c2.22-.18,4.27.17,5.29-2Z"/>
        <path class="cls-10" d="M478.15,1061.25c.18-6.06-.08-12.16-.41-18.21-.35-6.39-1.38-13.8-6.89-17.07-4.53-2.68-10.58-1.3-14.74,1.93s-6.86,7.93-9.45,12.51c-1.6-4.68-3.25-9.44-6.21-13.4-2.96-3.96-7.52-7.06-12.46-7.01-5.2.05-9.87,3.56-12.7,7.92-2.83,4.36-4.15,9.5-5.43,14.54-1.9-4.07-3.86-8.24-7.05-11.4-3.19-3.16-7.91-5.17-12.23-3.93-3.9,1.12-6.73,4.67-8.06,8.5s-1.87,7.38-1.93,11.43c-.78,10.33.71,20.07,2.36,30.3,1.65,10.23,6.19,19.78,14.6,27.52,7.9,7.27,18.8,11.45,29.87,12.09,8.07.46,17.63-.82,24.81-4.54,12.45-6.46,19.49-17.95,23.04-30.5,1.9-6.73,2.68-13.67,2.89-20.67Z"/>
        <path class="cls-2" d="M471.38,1131.77c-4.74,1.03-9.47,2.14-14.02,3.83-5.26,1.95-10.31,4.71-14.28,8.67-5,4.99-8.07,11.7-9.44,18.63-1.38,6.93-1.14,14.09-.21,21.09,8.06-.36,14.41-4.25,20.47-9.58s10.5-12.32,13.59-19.77c2.8-6.75,4.52-13.89,5.76-21.1.19-1.08-.78-2-1.84-1.77,0,0-.01,0-.02,0Z"/>
        <path class="cls-2" d="M384.74,1133.64c8.65-.51,17.46,1.88,24.66,6.72,7.61,5.13,13.36,12.97,15.96,21.77,2.06,6.97,2.17,14.37,1.69,21.62-6.82.99-16.16-2.09-22.82-7.88-6.66-5.79-12.02-12.52-16-20.4-3.06-6.04-5.61-13.39-5.15-20.19.06-.88.78-1.58,1.66-1.63,0,0,.01,0,.02,0Z"/>
      </g>
      <g>
        <path class="cls-8" d="M826.14,87.77c-8.95,16.26-9.19,37-.6,53.45s25.74,28.12,44.2,30.07c7.26.77,14.67.11,21.68-1.95,18.33-5.39,33.32-20.9,38.08-39.4,4.76-18.5-.88-39.32-14.32-52.89-25.98-26.22-70.93-22.14-89.04,10.73Z"/>
        <path class="cls-8" d="M828.02,34.71c3.1,6.26,6.19,12.53,9.29,18.79.88,1.78,1.76,3.56,2.64,5.35.48.98,1.68,1.8,2.71,2.08,1.08.3,2.53.16,3.49-.46s1.82-1.55,2.08-2.71c.28-1.24.11-2.35-.46-3.49-3.1-6.26-6.19-12.53-9.29-18.79-.88-1.78-1.76-3.56-2.64-5.35-.48-.98-1.68-1.8-2.71-2.08-1.08-.3-2.53-.16-3.49.46-.97.62-1.82,1.55-2.08,2.71-.28,1.24-.11,2.35.46,3.49h0Z"/>
        <path class="cls-8" d="M890.49,21.17c-.98,6.92-1.97,13.84-2.95,20.76-.28,1.97-.56,3.94-.84,5.9-.19.6-.22,1.2-.08,1.81.03.6.21,1.16.54,1.68.55.94,1.63,1.83,2.71,2.08,1.16.26,2.46.21,3.49-.46.92-.59,1.92-1.57,2.08-2.71.98-6.92,1.97-13.84,2.95-20.76.28-1.97.56-3.94.84-5.9.19-.6.22-1.2.08-1.81-.03-.6-.21-1.16-.54-1.68-.55-.94-1.63-1.83-2.71-2.08-1.16-.26-2.46-.21-3.49.46-.92.59-1.92,1.57-2.08,2.71h0Z"/>
        <path class="cls-8" d="M942.84,51.21c-5.18,4.01-10.37,8.01-15.55,12.02-1.52,1.18-3.05,2.35-4.57,3.53-.85.66-1.33,2.19-1.33,3.2,0,1.11.49,2.44,1.33,3.2s2,1.38,3.2,1.33l1.2-.16c.77-.22,1.43-.6,2-1.16,5.18-4.01,10.37-8.01,15.55-12.02,1.52-1.18,3.05-2.35,4.57-3.53.85-.66,1.33-2.19,1.33-3.2,0-1.11-.49-2.44-1.33-3.2s-2-1.38-3.2-1.33c-.4.05-.8.11-1.2.16-.77.22-1.43.6-2,1.16h0Z"/>
        <path class="cls-8" d="M966.55,117.04c-6.4-1.4-12.8-2.8-19.2-4.19-1.88-.41-3.76-.82-5.64-1.23-1.19-.26-2.42-.17-3.49.46-.94.55-1.83,1.63-2.08,2.71-.26,1.16-.21,2.46.46,3.49.62.96,1.55,1.83,2.71,2.08,6.4,1.4,12.8,2.8,19.2,4.19,1.88.41,3.76.82,5.64,1.23,1.19.26,2.42.17,3.49-.46.94-.55,1.83-1.63,2.08-2.71.26-1.16.21-2.46-.46-3.49-.62-.96-1.55-1.83-2.71-2.08h0Z"/>
        <path class="cls-8" d="M952.04,169.8c-5.42-3.68-10.84-7.35-16.27-11.03-1.59-1.08-3.19-2.16-4.78-3.24-.93-.63-2.43-.75-3.49-.46-1.05.29-2.19,1.1-2.71,2.08-.56,1.05-.83,2.32-.46,3.49s1.06,2.02,2.08,2.71c5.42,3.68,10.84,7.35,16.27,11.03,1.59,1.08,3.19,2.16,4.78,3.24.93.63,2.43.75,3.49.46s2.19-1.1,2.71-2.08c.56-1.05.83-2.32.46-3.49s-1.06-2.02-2.08-2.71h0Z"/>
        <path class="cls-8" d="M849,207.04c2.64-5.99,5.29-11.99,7.93-17.98.78-1.76,1.55-3.52,2.33-5.28.33-.52.51-1.08.54-1.68.13-.6.11-1.2-.08-1.81-.29-1.05-1.1-2.19-2.08-2.71-1.05-.56-2.32-.83-3.49-.46-1.05.34-2.24,1.03-2.71,2.08-2.64,5.99-5.29,11.99-7.93,17.98-.78,1.76-1.55,3.52-2.33,5.28-.33.52-.51,1.08-.54,1.68-.13.6-.11,1.2.08,1.81.29,1.05,1.1,2.19,2.08,2.71,1.05.56,2.32.83,3.49.46,1.05-.34,2.24-1.03,2.71-2.08h0Z"/>
        <path class="cls-8" d="M807.2,179.02c5.27-3.89,10.54-7.78,15.81-11.67,1.55-1.14,3.1-2.29,4.65-3.43.53-.28.95-.67,1.27-1.17.4-.44.67-.95.81-1.54.3-1.08.16-2.53-.46-3.49-.62-.97-1.55-1.82-2.71-2.08-1.11-.25-2.53-.25-3.49.46-5.27,3.89-10.54,7.78-15.81,11.67-1.55,1.14-3.1,2.29-4.65,3.43-.53.28-.95.67-1.27,1.17-.4.44-.67.95-.81,1.54-.3,1.08-.16,2.53.46,3.49s1.55,1.82,2.71,2.08c1.11.25,2.53.25,3.49-.46h0Z"/>
        <path class="cls-8" d="M787.77,83.14c5.88,2.88,11.76,5.76,17.65,8.65,1.73.85,3.46,1.69,5.19,2.54,1.1.54,2.27.79,3.49.46,1.05-.29,2.19-1.1,2.71-2.08.56-1.05.83-2.32.46-3.49-.35-1.08-1.03-2.19-2.08-2.71-5.88-2.88-11.76-5.76-17.65-8.65-1.73-.85-3.46-1.69-5.19-2.54-1.1-.54-2.27-.79-3.49-.46-1.05.29-2.19,1.1-2.71,2.08-.56,1.05-.83,2.32-.46,3.49.35,1.08,1.03,2.19,2.08,2.71h0Z"/>
        <path class="cls-8" d="M786.02,136.97c5.6-.57,11.21-1.14,16.81-1.71,1.78-.18,3.57-.36,5.35-.55.62.02,1.2-.11,1.74-.39.56-.18,1.05-.49,1.46-.94.79-.79,1.38-2.07,1.33-3.2s-.44-2.39-1.33-3.2c-.83-.76-2.03-1.45-3.2-1.33-5.6.57-11.21,1.14-16.81,1.71-1.78.18-3.57.36-5.35.55-.62-.02-1.2.11-1.74.39-.56.18-1.05.49-1.46.94-.79.79-1.38,2.07-1.33,3.2s.44,2.39,1.33,3.2c.83.76,2.03,1.45,3.2,1.33h0Z"/>
        <path class="cls-8" d="M906.77,200.51c-1.63-5.65-3.25-11.3-4.88-16.95-.51-1.76-1.01-3.51-1.52-5.27-.32-1.1-1.09-2.12-2.08-2.71s-2.4-.81-3.49-.46c-1.1.35-2.15,1.03-2.71,2.08s-.8,2.3-.46,3.49c1.63,5.65,3.25,11.3,4.88,16.95.51,1.76,1.01,3.51,1.52,5.27.32,1.1,1.09,2.12,2.08,2.71s2.4.81,3.49.46,2.15-1.03,2.71-2.08.8-2.3.46-3.49h0Z"/>
      </g>
      <path class="cls-7" d="M1058.59,205.75c.96-.51,1.89-1.09,2.76-1.75,6.35-4.73,9.76-13.37,7.65-21-2.06-7.45-9.66-13.14-17.32-12.49,4.31-10.7,1.1-24.02-7.69-31.53-8.93-7.63-22.9-8.65-32.84-2.38-5.75-7.38-14.5-12.43-23.86-12.61-9.36-.18-18.11,4.58-24.14,11.73-9.39-2.36-19.32-4.72-28.63-2.06-11.41,3.27-19.99,14.6-20.04,26.48h0c-.34.02-.68.02-.68.02-9.87.17-18.86,8.13-20.84,17.8s2.81,20.18,11.06,25.6c7.9,5.19,18.45,5.72,27.14,1.99,2.64,11.27,11.95,20.71,23.18,23.49,11.6,2.87,24.69-1.5,32.18-10.83,7.76,6.76,18.69,9.75,28.81,7.84,10.44-1.97,19.77-9.11,24.39-18.67,6.2,1.86,13.17,1.38,18.85-1.63Z"/>
      <path class="cls-7" d="M720.69,147.49c.96-.51,1.89-1.09,2.76-1.75,6.35-4.73,9.76-13.37,7.65-21-2.06-7.45-9.66-13.14-17.32-12.49,4.31-10.7,1.1-24.02-7.69-31.53-8.93-7.63-22.9-8.65-32.84-2.38-5.75-7.38-14.5-12.43-23.86-12.61-9.36-.18-18.11,4.58-24.14,11.73-9.39-2.36-19.32-4.72-28.63-2.06-11.41,3.27-19.99,14.6-20.04,26.48h0c-.34.02-.68.02-.68.02-9.87.17-18.86,8.13-20.84,17.8-1.98,9.67,2.81,20.18,11.06,25.6s18.45,5.72,27.14,1.99c2.64,11.27,11.95,20.71,23.18,23.49,11.6,2.87,24.69-1.5,32.18-10.83,7.76,6.76,18.69,9.75,28.81,7.84,10.44-1.97,19.77-9.11,24.39-18.67,6.2,1.86,13.17,1.38,18.85-1.63Z"/>
      <path class="cls-7" d="M498.64,91.87c.57-.3,1.12-.65,1.65-1.04,3.78-2.82,5.82-7.96,4.56-12.51-1.23-4.44-5.75-7.83-10.32-7.44,2.57-6.38.65-14.31-4.58-18.79s-13.64-5.15-19.56-1.42c-3.43-4.4-8.64-7.41-14.22-7.51-5.58-.11-10.79,2.73-14.38,6.99-5.6-1.41-11.51-2.82-17.06-1.23-6.8,1.95-11.91,8.7-11.94,15.78h0c-.2.01-.41.01-.41.01-5.88.1-11.24,4.84-12.41,10.61-1.18,5.76,1.67,12.03,6.59,15.25s10.99,3.41,16.17,1.19c1.57,6.71,7.12,12.34,13.81,13.99,6.91,1.71,14.71-.89,19.17-6.45,4.62,4.03,11.13,5.81,17.16,4.67,6.22-1.17,11.78-5.43,14.53-11.13,3.69,1.11,7.84.82,11.23-.97Z"/>
      <path class="cls-7" d="M1187.28,112.1c.57-.3,1.12-.65,1.65-1.04,3.78-2.82,5.82-7.96,4.56-12.51-1.23-4.44-5.75-7.83-10.32-7.44,2.57-6.38.65-14.31-4.58-18.79-5.32-4.55-13.64-5.15-19.56-1.42-3.43-4.4-8.64-7.41-14.22-7.51-5.58-.11-10.79,2.73-14.38,6.99-5.6-1.41-11.51-2.82-17.06-1.23-6.8,1.95-11.91,8.7-11.94,15.78h0c-.2.01-.41.01-.41.01-5.88.1-11.24,4.84-12.41,10.61-1.18,5.76,1.67,12.03,6.59,15.25s10.99,3.41,16.17,1.19c1.57,6.71,7.12,12.34,13.81,13.99,6.91,1.71,14.71-.89,19.17-6.45,4.62,4.03,11.13,5.81,17.16,4.67,6.22-1.17,11.78-5.43,14.53-11.13,3.69,1.11,7.84.82,11.23-.97Z"/>
      <g>
        <path class="cls-2" d="M117.35,1182.46s0-.01.01-.02c.27-.58.37-1.22.36-1.85-.48-22.4-.97-44.81-1.45-67.21-4.12-1.13-7.33-1.68-10.86.52-.15.09-.24.27-.24.44.17,23.08,1.13,44.48,1.34,67.48.01,1.15.86,2.13,2.02,2.34s2.38.34,3.69.23c2.16-.18,4.15.16,5.14-1.94Z"/>
        <path class="cls-3" d="M158.91,1064.72c.17-5.89-.08-11.82-.4-17.7-.34-6.21-1.34-13.42-6.7-16.59-4.4-2.61-10.28-1.26-14.32,1.87-4.05,3.13-6.67,7.71-9.18,12.16-1.56-4.55-3.16-9.18-6.04-13.03-2.88-3.85-7.3-6.86-12.11-6.81-5.05.05-9.59,3.46-12.34,7.7-2.75,4.24-4.04,9.23-5.28,14.13-1.84-3.96-3.75-8-6.85-11.08-3.1-3.07-7.69-5.03-11.89-3.82-3.79,1.09-6.54,4.54-7.83,8.26s-1.82,7.17-1.87,11.11c-.76,10.04.69,19.51,2.29,29.45,1.61,9.94,6.01,19.22,14.19,26.74,7.68,7.07,18.27,11.13,29.03,11.75,7.84.45,17.13-.79,24.11-4.41,12.1-6.28,18.94-17.44,22.39-29.64,1.85-6.54,2.61-13.29,2.81-20.09Z"/>
        <path class="cls-2" d="M152.33,1133.26c-4.61,1-9.21,2.08-13.62,3.72-5.11,1.89-10.02,4.57-13.88,8.43-4.86,4.85-7.84,11.37-9.18,18.1-1.34,6.73-1.11,13.69-.2,20.5,7.83-.35,14.01-4.13,19.89-9.31s10.2-11.97,13.2-19.21c2.72-6.56,4.39-13.5,5.6-20.51.18-1.05-.75-1.95-1.79-1.72,0,0-.01,0-.02,0Z"/>
        <path class="cls-2" d="M68.13,1135.07c8.41-.5,16.97,1.82,23.96,6.53,7.4,4.98,12.99,12.6,15.51,21.16,2,6.77,2.11,13.96,1.64,21.01-6.63.96-15.71-2.03-22.18-7.66s-11.68-12.17-15.55-19.83c-2.97-5.87-5.45-13.01-5.01-19.62.06-.85.75-1.54,1.61-1.59,0,0,0,0,.01,0Z"/>
      </g>
      <g>
        <path class="cls-2" d="M328.34,1182.46s0-.01.01-.02c.27-.58.37-1.22.36-1.85-.48-22.4-.97-44.81-1.45-67.21-4.12-1.13-7.33-1.68-10.86.52-.15.09-.24.27-.24.44.17,23.08,1.13,44.48,1.34,67.48.01,1.15.86,2.13,2.02,2.34s2.38.34,3.69.23c2.16-.18,4.15.16,5.14-1.94Z"/>
        <path class="cls-6" d="M369.9,1064.72c.17-5.89-.08-11.82-.4-17.7-.34-6.21-1.34-13.42-6.7-16.59-4.4-2.61-10.28-1.26-14.32,1.87-4.05,3.13-6.67,7.71-9.18,12.16-1.56-4.55-3.16-9.18-6.04-13.03-2.88-3.85-7.3-6.86-12.11-6.81-5.05.05-9.59,3.46-12.34,7.7-2.75,4.24-4.04,9.23-5.28,14.13-1.84-3.96-3.75-8-6.85-11.08-3.1-3.07-7.69-5.03-11.89-3.82-3.79,1.09-6.54,4.54-7.83,8.26-1.29,3.73-1.82,7.17-1.87,11.11-.76,10.04.69,19.51,2.29,29.45,1.61,9.94,6.01,19.22,14.19,26.74,7.68,7.07,18.27,11.13,29.03,11.75,7.84.45,17.13-.79,24.11-4.41,12.1-6.28,18.94-17.44,22.39-29.64,1.85-6.54,2.61-13.29,2.81-20.09Z"/>
        <path class="cls-2" d="M363.32,1133.26c-4.61,1-9.21,2.08-13.62,3.72-5.11,1.89-10.02,4.57-13.88,8.43-4.86,4.85-7.84,11.37-9.18,18.1-1.34,6.73-1.11,13.69-.2,20.5,7.83-.35,14.01-4.13,19.89-9.31s10.2-11.97,13.2-19.21c2.72-6.56,4.39-13.5,5.6-20.51.18-1.05-.75-1.95-1.79-1.72,0,0-.01,0-.02,0Z"/>
        <path class="cls-2" d="M279.12,1135.07c8.41-.5,16.97,1.82,23.96,6.53,7.4,4.98,12.99,12.6,15.51,21.16,2,6.77,2.11,13.96,1.64,21.01-6.63.96-15.71-2.03-22.18-7.66-6.47-5.63-11.68-12.17-15.55-19.83-2.97-5.87-5.45-13.01-5.01-19.62.06-.85.75-1.54,1.61-1.59,0,0,0,0,.01,0Z"/>
      </g>
      <g>
        <path class="cls-2" d="M222.85,1182.46s0-.01.01-.02c.27-.58.37-1.22.36-1.85-.48-22.4-.97-44.81-1.45-67.21-4.12-1.13-7.33-1.68-10.86.52-.15.09-.24.27-.24.44.17,23.08,1.13,44.48,1.34,67.48.01,1.15.86,2.13,2.02,2.34s2.38.34,3.69.23c2.16-.18,4.15.16,5.14-1.94Z"/>
        <path class="cls-1" d="M264.41,1064.72c.17-5.89-.08-11.82-.4-17.7-.34-6.21-1.34-13.42-6.7-16.59-4.4-2.61-10.28-1.26-14.32,1.87-4.05,3.13-6.67,7.71-9.18,12.16-1.56-4.55-3.16-9.18-6.04-13.03-2.88-3.85-7.3-6.86-12.11-6.81-5.05.05-9.59,3.46-12.34,7.7-2.75,4.24-4.04,9.23-5.28,14.13-1.84-3.96-3.75-8-6.85-11.08s-7.69-5.03-11.89-3.82c-3.79,1.09-6.54,4.54-7.83,8.26-1.29,3.73-1.82,7.17-1.87,11.11-.76,10.04.69,19.51,2.29,29.45,1.61,9.94,6.01,19.22,14.19,26.74,7.68,7.07,18.27,11.13,29.03,11.75,7.84.45,17.13-.79,24.11-4.41,12.1-6.28,18.94-17.44,22.39-29.64,1.85-6.54,2.61-13.29,2.81-20.09Z"/>
        <path class="cls-2" d="M257.83,1133.26c-4.61,1-9.21,2.08-13.62,3.72-5.11,1.89-10.02,4.57-13.88,8.43-4.86,4.85-7.84,11.37-9.18,18.1-1.34,6.73-1.11,13.69-.2,20.5,7.83-.35,14.01-4.13,19.89-9.31s10.2-11.97,13.2-19.21c2.72-6.56,4.39-13.5,5.6-20.51.18-1.05-.75-1.95-1.79-1.72,0,0-.01,0-.02,0Z"/>
        <path class="cls-2" d="M173.62,1135.07c8.41-.5,16.97,1.82,23.96,6.53,7.4,4.98,12.99,12.6,15.51,21.16,2,6.77,2.11,13.96,1.64,21.01-6.63.96-15.71-2.03-22.18-7.66-6.47-5.63-11.68-12.17-15.55-19.83-2.97-5.87-5.45-13.01-5.01-19.62.06-.85.75-1.54,1.61-1.59,0,0,0,0,.01,0Z"/>
      </g>
    </g>
  </g>
</svg>