<?xml version="1.0" encoding="UTF-8"?>
<svg id="Layer_2" data-name="Layer 2" xmlns="http://www.w3.org/2000/svg" viewBox="0 0 1230 1230">
  <defs>
    <style>
      .cls-1 {
        fill: #f05b43;
      }

      .cls-2 {
        fill: #b8dadd;
      }

      .cls-3 {
        fill: #fff;
      }

      .cls-4 {
        fill: #f2aba8;
      }

      .cls-5 {
        fill: #fcdb74;
      }

      .cls-6 {
        fill: #ffe1e1;
      }

      .cls-7 {
        opacity: .64;
      }

      .cls-8 {
        fill: #fefefe;
      }

      .cls-9 {
        fill: #fffffe;
      }
    </style>
  </defs>
  <g id="NOTES">
    <g>
      <g id="_2" data-name="2">
        <rect class="cls-6" width="1230" height="1230"/>
        <path class="cls-8" d="M1146.02,400.71c0-168.35-136.47-304.82-304.82-304.82-90.2,0-171.22,39.21-227.03,101.48-55.81-62.27-136.83-101.48-227.03-101.48-168.35,0-304.82,136.47-304.82,304.82,0,83.55,33.64,159.23,88.09,214.29-54.45,55.06-88.09,130.74-88.09,214.29,0,168.35,136.47,304.82,304.82,304.82,90.2,0,171.22-39.21,227.03-101.48,55.81,62.27,136.83,101.48,227.03,101.48,168.35,0,304.82-136.47,304.82-304.82,0-83.55-33.64-159.23-88.09-214.29,54.45-55.06,88.09-130.74,88.09-214.29ZM603.87,615c3.53-3.57,6.96-7.22,10.31-10.96,3.35,3.74,6.78,7.39,10.31,10.96-3.53,3.57-6.96,7.22-10.31,10.96-3.35-3.74-6.78-7.39-10.31-10.96Z"/>
      </g>
      <g>
        <path class="cls-2" d="M901.51,229.46c-2.28-.4-4.57-.67-6.89-.75-7.8-.26-16.02,1.89-21.47,7.48-5.45,5.58-7.25,15.01-2.76,21.4,3.28,4.67,9.03,6.91,14.6,8.15,8.24,1.84,16.83,2.06,25.15.65-8.84,8.81-12.86,18.2-13.96,31.87-.42,5.26,1.9,10.57,3.81,13.34,3.09,4.48,9.87,6.77,15.47,6.15,3.62-.4,9.68-3.63,12.31-6.94,7.52-9.43,11.57-21.39,12.28-33.43,6.61,12.21,15.2,22.86,27.71,28.89,7.46,3.6,13.21,2.81,17.51.3,4.83-2.82,7.99-9.23,7.91-14.9-.08-5.67-2.66-11.03-5.86-15.71-5.1-7.46-11.92-13.75-19.78-18.21,6.97,2.05,14.72,3.17,21.98,3.32,7.26.14,14.87-1.87,20.04-6.97,5.17-5.1,7.19-13.69,3.46-19.92-2.72-4.55-7.85-7.12-12.95-8.56-9.14-2.57-19.08-2.2-28,1.05,5.47-3.08,12.08-11.78,14.71-17.48,3.97-8.64,1.96-15.85-1.61-20.43-3.15-4.05-9.13-8.04-16.31-8-5.74.04-11.66,3.5-17.23,10.89-4.31,5.72-8.39,14.65-10.37,21.52-1.95-10.78-7.41-22.86-16.88-29.88-3.45-2.56-9.15-5.3-15.08-2.3-6.71,3.4-7.97,10.98-8.41,16.2-1.12,13.43,7.14,27.78,17.17,36.79-5.44-1.75-10.93-3.54-16.55-4.53Z"/>
        <circle class="cls-5" cx="938.4" cy="247.71" r="12.47"/>
      </g>
      <g>
        <path class="cls-1" d="M496.06,1110.98c-1.6,1.66-3.11,3.42-4.47,5.29-4.58,6.32-7.39,14.34-5.81,21.98,1.58,7.64,8.39,14.4,16.19,14.26,5.71-.1,10.78-3.63,14.93-7.55,6.13-5.8,11.12-12.8,14.61-20.49,2.36,12.25,7.9,20.84,18.62,29.39,4.13,3.29,9.83,4.33,13.19,4.3,5.45-.06,11.13-4.4,13.75-9.39,1.69-3.23,2.4-10.06,1.14-14.09-3.62-11.51-11.26-21.56-20.85-28.87,13.82,1.35,27.45.19,39.45-6.81,7.16-4.17,9.72-9.38,10.04-14.35.36-5.58-3.18-11.79-7.93-14.89-4.75-3.1-10.63-3.96-16.3-3.93-9.04.05-18.06,2.19-26.16,6.21,5.6-4.63,10.86-10.43,15.04-16.37,4.18-5.94,6.76-13.37,5.42-20.51-1.34-7.14-7.33-13.61-14.58-14-5.29-.29-10.29,2.52-14.34,5.95-7.24,6.14-12.49,14.59-14.79,23.8.5-6.26-3.01-16.6-6.27-21.97-4.94-8.12-12.05-10.49-17.84-10.09-5.12.35-11.77,3.07-15.75,9.05-3.18,4.78-3.62,11.62-.61,20.38,2.33,6.77,7.45,15.15,12.04,20.64-10.03-4.41-23.1-6.64-34.21-2.72-4.05,1.43-9.52,4.62-10.34,11.21-.94,7.47,4.64,12.75,8.73,16.03,10.51,8.44,27.02,9.61,40.1,6.35-4.49,3.53-9.05,7.08-13.01,11.18Z"/>
        <circle class="cls-5" cx="531.82" cy="1090.61" r="12.47"/>
      </g>
      <path class="cls-4" d="M1180.86,539.88c-.62,1.02-1.3,1.99-2.04,2.93.47-.6.94-1.2,1.41-1.79-1.73,2.17-3.74,4.08-5.96,5.73l1.83-1.36c-2.44,1.78-5.1,3.22-7.91,4.32.69-.27,1.37-.53,2.06-.8-2.83,1.08-5.77,1.81-8.77,2.15.72-.08,1.44-.16,2.16-.24-2.76.3-5.53.28-8.29-.1.72.1,1.44.21,2.15.31-2.59-.37-5.11-1.05-7.53-2.06.68.29,1.35.57,2.03.86-2.96-1.27-5.7-2.99-8.24-4.96l1.79,1.41c-10-7.88-16.48-19.24-26.43-27.19-5.44-4.35-11.52-8.18-18.49-9.42-3.21-.57-6.37-.86-9.62-.54s-6.24.8-9.32,1.57c-5.5,1.37-10.89,3.28-16.54,3.92l2.16-.24c-2.24.24-4.48.26-6.72-.05.72.1,1.44.21,2.15.31-1.84-.28-3.62-.78-5.33-1.49l2.03.86c-2.04-.88-3.92-2.04-5.68-3.4.6.47,1.2.94,1.79,1.41-4.72-3.73-8.32-8.63-11.91-13.4-1.86-2.47-3.73-4.93-5.76-7.27-2.45-2.82-5.14-5.25-8.1-7.53-5.3-4.08-11.75-6.17-18.38-6.69s-12.95.99-18.82,3.63c-3.25,1.46-6.26,3.54-8.93,5.88-2.69,2.35-5.03,5.28-6.79,8.39-1.06,1.88-1.44,4.23-.92,6.35.5,2.05,2.05,4.29,3.95,5.3,1.91,1.01,4.21,1.55,6.35.92,2.18-.64,4.16-1.93,5.3-3.95.61-1.08,1.29-2.11,2.05-3.09l-1.41,1.79c1.48-1.88,3.2-3.53,5.12-4.95-.61.45-1.22.9-1.83,1.36,2.06-1.51,4.31-2.73,6.69-3.66-.69.27-1.37.53-2.06.8,2.47-.95,5.03-1.59,7.66-1.89-.72.08-1.44.16-2.16.24,2.46-.27,4.94-.24,7.39.1-.72-.1-1.44-.21-2.15-.31,2.21.33,4.36.91,6.43,1.78-.68-.29-1.35-.57-2.03-.86,2.22.95,4.25,2.22,6.14,3.7l-1.79-1.41c8.75,6.96,13.61,17.45,21.8,24.95,2.39,2.19,5.03,4.28,7.93,5.77,1.75.9,3.6,1.69,5.49,2.29,1.81.57,3.66.83,5.54,1.08,5.35.74,10.9-.26,16.08-1.59,5.36-1.37,10.63-3.19,16.15-3.81-.72.08-1.44.16-2.16.24,2.34-.25,4.68-.26,7.02.06l-2.15-.31c2.31.35,4.54,1,6.69,1.91l-2.03-.86c3.09,1.33,5.92,3.14,8.57,5.2-.6-.47-1.2-.94-1.79-1.41,5.35,4.23,9.72,9.44,14.12,14.61,5.21,6.12,10.68,12.06,17.49,16.43,6.12,3.93,13.29,6.07,20.55,6.23,6.89.15,13.7-1.49,19.9-4.44,6.85-3.26,12.79-8.63,16.75-15.09,1.11-1.8,1.43-4.31.92-6.35-.5-2.05-2.05-4.29-3.95-5.3-4.14-2.19-9.15-1.04-11.65,3.03h0Z"/>
      <g>
        <g>
          <path class="cls-4" d="M223.1,1137.1c-15.07.48-26.78-5.57-39.87-13.08-12.52-7.18-20.97-19.75-27.36-32.69-10.32-20.89-7.77-47.09,5-66.58,9.27-14.14,29.5-26.45,47.64-30.35,31.6-6.79,50.26,2.42,66.15,20.14,14.34,15.99,22.6,34.49,23.18,55.96.26,9.63-2.84,22.28-8.1,30.34-6.73,10.32-19.58,21.93-31.57,27.25-9.51,4.23-24.67,8.66-35.07,8.99Z"/>
          <path class="cls-4" d="M74.67,1095.28c1.96-4.48,6.17-7.91,7.47-12.65,1.93-7.05-3.16-14.4-2.02-21.62,1.02-6.49,7.05-11.3,13.44-12.81,6.39-1.51,13.09-.35,19.49,1.12,14.95,3.43,29.51,8.52,43.33,15.16,3.78,15.6,10.5,30.49,19.71,43.64-9.65,17.59-22.55,33.39-37.86,46.36-3.98,3.37-8.23,6.62-13.19,8.23-4.96,1.62-10.8,1.37-14.93-1.82-3.93-3.03-5.67-8.08-6.64-12.94-.98-4.86-1.43-9.93-3.62-14.37-2.33-4.74-6.55-7.18-11-10.02-4.69-3-9.63-6.51-12.8-10.73-3.17-4.22-3.48-11.33-1.84-16.35.13-.41.29-.81.46-1.2Z"/>
          <path class="cls-4" d="M352.5,997.23c-4.3-1.95-9.55-1.68-13.56-4.25-5.95-3.81-7.05-12.39-12.54-16.84-4.93-4-12.38-3.55-17.95-.5-5.57,3.05-9.63,8.22-13.28,13.42-8.52,12.14-15.68,25.22-21.31,38.94,7.39,13.65,12.19,28.7,14.1,44.11,18.32,6.39,37.81,9.39,57.2,8.79,5.04-.15,10.19-.58,14.8-2.63,4.61-2.05,8.64-6.01,9.54-10.97.86-4.72-1.16-9.47-3.61-13.6-2.44-4.12-5.4-8.06-6.7-12.67-1.39-4.91.06-9.39,1.41-14.32,1.43-5.2,2.7-10.91,2.25-15.99-.45-5.09-4.83-10.39-9.26-12.94-.36-.21-.73-.39-1.1-.56Z"/>
        </g>
        <g class="cls-7">
          <path class="cls-3" d="M113.52,1079.77c-.36-.04-.72-.09-1.08-.13-.04.86-.09,1.73-.13,2.59,9.47-.88,18.93-1.77,28.4-2.65l-1.41-1.21c.02.28.04.55.06.83.29-.45.58-.89.87-1.34-8.69,2.26-17.79,2.9-26.71,1.9-.7-.08-1.39.33-1.52,1.05-.12.66.35,1.44,1.05,1.52,9.39,1.05,18.89.37,28.04-2.01.56-.14.91-.79.87-1.34-.02-.28-.04-.55-.06-.83-.05-.7-.7-1.27-1.41-1.21-9.47.88-18.93,1.77-28.4,2.65-1.44.13-1.65,2.4-.13,2.59.36.05.72.09,1.08.13.7.08,1.39-.33,1.52-1.05.12-.66-.35-1.44-1.05-1.52Z"/>
          <path class="cls-3" d="M152.68,1102.93c-5.78,4.66-11.55,9.32-17.33,13.98-.51.41-.73,1.07-.41,1.67.27.52,1,.94,1.59.65,7.06-3.47,13.64-7.8,19.57-12.98.48-.42.84-1.25.33-1.82-.39-.43-.77-.87-1.16-1.3-.47-.53-1.19-.77-1.82-.33-.53.37-.8,1.29-.33,1.82.39.43.77.87,1.16,1.3.11-.61.22-1.21.33-1.82-5.73,5.01-12.1,9.3-18.94,12.66.39.77.79,1.54,1.18,2.31,5.78-4.66,11.55-9.32,17.33-13.98.55-.44.75-1.21.33-1.82-.38-.55-1.27-.78-1.82-.33h0Z"/>
          <path class="cls-3" d="M147.31,1092.32c-8.91,4.57-17.82,9.14-26.73,13.71-.71.36-.76,1.66-.09,2.08,1.03.66,2.1.67,3.24.24,1.21-.46,2.39-1.09,3.56-1.64,2.48-1.15,4.97-2.31,7.45-3.46,2.48-1.15,4.97-2.31,7.45-3.46,1.26-.59,2.52-1.17,3.78-1.76.63-.29,1.26-.59,1.89-.88.59-.28,1.23-.52,1.74-.94,1.14-.94,1.42-2.74.14-3.7-1.41-1.06-3.02-.02-3.92,1.15-1.02,1.33.98,3.02,2.01,1.68.11-.14.52-.48.57-.63.1-.03.08-.04-.06-.02-.24-.1-.35-.29-.34-.55-.05-.01-.9.5-1,.54-1.26.59-2.52,1.17-3.78,1.76-2.48,1.15-4.97,2.31-7.45,3.46-2.48,1.15-4.97,2.31-7.45,3.46-1.26.59-2.52,1.17-3.78,1.76-.55.26-1.1.54-1.67.76-.1.04-.66.24-.69.22-.03.69-.06,1.39-.09,2.08,8.91-4.57,17.82-9.14,26.73-13.71.63-.32.7-1.3.33-1.82-.45-.65-1.19-.65-1.82-.33h0Z"/>
          <path class="cls-3" d="M131.73,1092.49c-.22,0-.45,0-.67,0-1.74,0,1.99-1.49,4.57-3.01,2.58-1.51,7.16-3.76,8.77-4.65.26-.14.72-.43,1.04-.3.35.14.56.92.68,1.3,0,0,1.09,2.42.33,2.93-1.25.84-5.83,2.25-8.9,3.05-2.68.7-4.29.7-5.82.69Z"/>
        </g>
        <g class="cls-7">
          <path class="cls-3" d="M290.96,1050.8c.03-.69,1.2-.76,1.91-.81h0c9.97-.67,17.76-1.04,27.73-1.71.79-.05,3.71.59,3.37,1.22-.52.98-1.42,1.48-2.61,1.68-1.27.21-2.6.28-3.89.41-2.71.28-5.43.56-8.14.83-2.71.28-5.43.56-8.14.83-1.38.14-2.76.28-4.14.42-.69.07-1.38.14-2.07.21-.65.07-1.32.17-1.97.09-1.47-.19-2.66-1.41-2.09-2.73"/>
          <path class="cls-3" d="M285.35,1029.67c-.29-.63.71-1.24,1.31-1.61h0c8.5-5.25,15.63-8.73,24.14-13.98.67-.42,3.49-1.26,3.49-.55,0,1.11-.85,1.42-1.81,2.15-1.03.78-2.24,1.58-3.32,2.3-2.27,1.51-4.54,3.03-6.81,4.54-2.27,1.51-4.54,3.03-6.81,4.54-1.15.77-2.31,1.54-3.46,2.31-.58.38-1.15.77-1.73,1.15-.54.36-1.08.77-1.7,1-1.38.52-3.01,0-3.12-1.43"/>
          <path class="cls-3" d="M305.98,1038.93c.18-.13.36-.26.54-.39,1.42-1.01-2.49-.07-5.47.19-2.98.26-8.01,1.07-9.84,1.27-.29.03-.84.07-1.02.36-.2.32.07,1.07.2,1.45,0,0,.51,2.61,1.42,2.58,1.51-.04,6.05-1.53,9.03-2.66,2.59-.98,3.91-1.91,5.15-2.8Z"/>
        </g>
        <g>
          <path class="cls-3" d="M174.92,1015.1c-5.08,4.05-9.13,9.3-11.71,15.27-.67,1.54,1.71,2.66,2.37,1.11,2.39-5.54,6.1-10.46,10.82-14.23.55-.44.75-1.21.33-1.82-.38-.55-1.27-.77-1.82-.33h0Z"/>
          <path class="cls-3" d="M162.58,1036.69c1.39-.96-.1-3.11-1.49-2.15s.1,3.11,1.49,2.15h0Z"/>
        </g>
        <g>
          <path class="cls-3" d="M262.05,1119.1c6.71-3.8,12.72-8.8,17.7-14.69,1.09-1.29-.92-2.97-2.01-1.68-4.84,5.72-10.66,10.52-17.18,14.21-.62.35-.71,1.28-.33,1.82.43.63,1.2.68,1.82.33h0Z"/>
          <path class="cls-3" d="M282.68,1100.06c1.39-.96-.1-3.11-1.49-2.15-1.39.96.1,3.11,1.49,2.15h0Z"/>
        </g>
      </g>
      <g>
        <path class="cls-3" d="M1106.28,148.85c-1.13-.63-2.32-1.16-3.37-1.9-7.61-5.34-7.65-15.33.03-20.65,2.27-1.57,4.91-2.62,7.38-3.91,11.41-3.21,22.2-8.15,33.39-11.98,1.66-.57,3.32-1.16,4.92-1.88,6.38-2.88,12.34-2.46,17.82,2.12,1.64,3.54,3.56,6.95,2.36,11.16-1.38,4.83-4.61,7.75-9.08,9.51-7.28,2.86-14.57,5.67-21.85,8.5-6.31,2.25-12.68,4.37-18.92,6.81-4.12,1.61-8.26,2.53-12.66,2.21Z"/>
        <path class="cls-3" d="M1122.76,157.96c9.76,1.43,20.59,2.99,31.41,4.62,4.97.75,10.05.98,14.83,2.73,5.87,2.14,9.14,7.48,8.36,13.33-.74,5.51-5.12,9.83-10.99,10.57-1.93.24-3.95.12-5.88-.15-9.53-1.36-19.05-2.83-28.58-4.25-4.33-.65-8.69-1.13-12.99-1.92-7.87-1.45-12.3-7.07-11.41-14.24.84-6.73,6.46-10.99,15.25-10.68Z"/>
        <path class="cls-9" d="M1099.66,118.34c-1.1.71-2.18,1.46-3.31,2.12-4.3,2.53-8.74,2.91-13.1.34-4.59-2.7-6.56-6.88-6.01-12.2.11-1.09.21-2.18.32-3.27,4.28-6.16,9.91-11.1,15.07-16.45,9.59-9.94,19.28-19.8,28.92-29.7,2-2.05,4.06-4.04,6.82-5.04,4.99-1.81,9.52-1.03,13.35,2.75,3.75,3.71,4.63,9.11,2.34,13.97-1.23,2.62-3.23,4.67-5.23,6.72-11.63,11.94-23.26,23.88-34.87,35.84-1.52,1.56-2.88,3.27-4.31,4.92Z"/>
      </g>
    </g>
  </g>
</svg>