<?xml version="1.0" encoding="UTF-8"?>
<svg id="Layer_2" data-name="Layer 2" xmlns="http://www.w3.org/2000/svg" xmlns:xlink="http://www.w3.org/1999/xlink" viewBox="0 0 1231 1231">
  <defs>
    <style>
      .cls-1 {
        fill: #f2c2ab;
      }

      .cls-2 {
        fill: #fefcfd;
      }

      .cls-3 {
        fill: #1a6d2e;
      }

      .cls-4 {
        fill: #b8dadd;
      }

      .cls-5 {
        fill: #fff;
      }

      .cls-6 {
        fill: #fe8278;
      }

      .cls-7 {
        fill: #3c1a08;
      }

      .cls-8 {
        fill: none;
      }

      .cls-9 {
        fill: #f2aba8;
      }

      .cls-10 {
        fill: #fcdb74;
      }

      .cls-11 {
        fill: #ddbd9f;
      }

      .cls-12 {
        fill: #e7d8c9;
      }

      .cls-13 {
        fill: #fffbe4;
        stroke: #231f20;
        stroke-miterlimit: 10;
      }

      .cls-14 {
        fill: #fefcfc;
      }

      .cls-15 {
        fill: #fe2337;
      }

      .cls-16 {
        fill: #fefdfd;
      }

      .cls-17 {
        fill: #fe1b30;
      }

      .cls-18 {
        fill: #fefbfc;
      }

      .cls-19 {
        fill: #e43d37;
      }

      .cls-20 {
        fill: #fefbfb;
      }

      .cls-21 {
        fill: #fefefe;
      }

      .cls-22 {
        clip-path: url(#clippath);
      }
    </style>
    <clipPath id="clippath">
      <rect class="cls-8" x=".5" y=".5" width="1230" height="1230"/>
    </clipPath>
  </defs>
  <g id="NOTES">
    <g>
      <g>
        <rect class="cls-13" x=".5" y=".5" width="1230" height="1230"/>
        <g class="cls-22">
          <g>
            <path class="cls-5" d="M1261.26,1265.45H-37.1V-32.91h1298.36v1298.36ZM-34.1,1262.45h1292.36V-29.91H-34.1v1292.36Z"/>
            <rect class="cls-5" x="-35.6" y="1118.53" width="1295.36" height="3"/>
            <rect class="cls-5" x="-35.6" y="974.6" width="1295.36" height="3"/>
            <rect class="cls-5" x="-35.6" y="830.67" width="1295.36" height="3"/>
            <rect class="cls-5" x="-35.6" y="686.74" width="1295.36" height="3"/>
            <rect class="cls-5" x="-35.6" y="542.81" width="1295.36" height="3"/>
            <rect class="cls-5" x="-35.6" y="398.88" width="1295.36" height="3"/>
            <rect class="cls-5" x="-35.6" y="254.95" width="1295.36" height="3"/>
            <rect class="cls-5" x="-35.6" y="111.02" width="1295.36" height="3"/>
            <rect class="cls-5" x="1114.33" y="-31.41" width="3" height="1295.36"/>
            <rect class="cls-5" x="970.41" y="-31.41" width="3" height="1295.36"/>
            <rect class="cls-5" x="826.48" y="-31.41" width="3" height="1295.36"/>
            <rect class="cls-5" x="682.55" y="-31.41" width="3" height="1295.36"/>
            <rect class="cls-5" x="538.62" y="-31.41" width="3" height="1295.36"/>
            <rect class="cls-5" x="394.69" y="-31.41" width="3" height="1295.36"/>
            <rect class="cls-5" x="250.76" y="-31.41" width="3" height="1295.36"/>
            <rect class="cls-5" x="106.83" y="-31.41" width="3" height="1295.36"/>
          </g>
        </g>
      </g>
      <rect class="cls-21" x="60.05" y="59.21" width="1110.9" height="1110.9" rx="497.34" ry="497.34"/>
      <g>
        <path class="cls-5" d="M1176.35,926.28c1.46-3.16,1.64-6.09,1.76-8.23l-2.7-.16h0l2.7.16c.04-.66.08-1.34.15-1.75.24-1.35.63-3.53.34-6.05.64-2.55.62-5.14-.07-7.54-.01-.2-.01-.47-.02-.71-.02-1.22-.06-3.07-.67-5.13l-.09-.31c-.03-2.84-.49-5.65-1.4-8.34-.05-.16-.08-.32-.12-.49l-.04-.19c-.29-1.25-.71-3.08-1.83-5.02-.3-1.69-.88-4.36-2.73-6.88-.62-2.13-1.67-5.36-4.47-8.04-1-1.99-2.16-3.68-3.53-5.15-1-2.46-2.81-4.52-5.15-5.86-.41-.23-.7-.52-.95-.93-1.17-1.91-2.56-3.14-3.5-3.96-.06-.06-.14-.12-.21-.18-1.22-2.02-3.15-3.5-5.53-4.22-.05-.04-.1-.07-.14-.1l-.2-.15c-.19-.14-.44-.4-.73-.68-.65-.63-1.53-1.49-2.68-2.32-.66-.48-1.38-.88-2.15-1.21-1.27-1.11-2.8-1.95-4.54-2.52-1.46-1-3.15-1.67-4.95-1.97-1.76-1.18-3.75-1.94-5.79-2.22-.75-.1-1.78-.4-2.77-.69-1.58-.46-3.54-1.03-5.73-1.28-.05-.01-.11-.03-.16-.04l-.2-.06c-1.18-.32-3.55-.95-6.33-.49-3.48-.74-7.02-.7-10.53.1-2.11-.39-4.25-.13-6.18.74-2.21.02-4.34.65-6.22,1.86-1.56.31-2.85.82-3.74,1.18-.21.09-.48.19-.67.26-2.74.44-5.44,1.99-7.21,4.11-.28.13-.69.31-.87.39-.6.26-1.19.52-1.77.81-1.77.88-3.19,1.92-4.37,2.79-.57.42-1.17.85-1.55,1.07-1.15.63-2.14,1.5-2.94,2.56-.67.69-1.6,1.66-2.42,3.03-1.97,1.61-3.4,3.36-4.66,4.92l-.25.31c-.99,1.22-1.67,2.41-2.16,3.27l-.09.16c-.12.22-.24.44-.38.64-.96,1.43-1.56,2.83-2,3.84-.12.29-.29.68-.42.94-1.09,1.21-1.66,2.43-1.95,3.11-.73,1.19-1.22,2.47-1.46,3.83-.74,1.08-1.29,2.31-1.61,3.6-.83,1.31-1.16,2.51-1.27,2.91-.24.76-.46,1.52-.69,2.28-.36-.1-.68-.2-.95-.3-.84-.32-1.77-.74-2.75-1.2-.83-.38-1.66-.75-2.49-1.11-.4-.17-.79-.35-1.22-.54-1.96-.9-4.6-2.12-7.92-2.42-2.99-1.55-5.79-1.39-6.78-1.34h0c-2.12-.66-4.3-1.02-6.34-1.06-.51,0-1.31-.15-2.16-.31-1.18-.21-2.63-.48-4.25-.56-1.57-.4-3.07-.47-4.58-.22-1.63.28-2.65.33-3.23.16-1.53-.46-2.83-.49-3.52-.51-.29,0-.57,0-.85,0-.17-1.28-.44-2.68-.94-4.12.17-1.61-.06-3.26-.7-4.84l-.06-.29c-.17-.81-.45-2.1-1.08-3.51-.21-2.11-.86-3.82-1.31-5.01-.12-.31-.23-.6-.28-.78-.71-2.81-2.06-5.1-3.3-7.02l-.06-.13c-.34-.66-.88-1.71-1.78-2.81-.41-1.14-.9-1.97-1.17-2.42l-.1-.17c-.6-1.11-1.81-3.35-4.05-5.24-1.63-2.54-3.84-3.92-5.15-4.74-.13-.08-.26-.16-.38-.25-.07-.05-.13-.09-.17-.13-1.98-3.04-4.58-5.25-7.72-6.57-.58-.44-1.54-1.16-2.81-1.75-1.86-1.62-3.86-2.32-4.85-2.66l-.87-.38c-1.14-.56-2.82-1.39-4.95-1.8-3.1-1.64-6.16-2.05-8.41-2.36l-.97-.14c-.5-.08-.96-.12-1.38-.14-1.23-.59-2.58-.89-3.99-.9l-1.62-.03c-1.5-.03-3-.06-4.49-.04-.87,0-1.74.06-2.65.11-.87.05-1.69.1-2.33.07-2.36-.09-4.48.23-6.48.95-2.46-.07-4.47.51-5.84.9-.28.08-.61.18-.83.23-1.3.12-2.53.51-3.66,1.14-2.46.57-4.27,1.69-5.5,2.44l-.43.27c-.13.08-.28.17-.43.26-2.74.44-5.07,1.48-6.94,3.1-1.57.75-2.65,1.71-3.25,2.24l-.2.17c-.25.21-.49.43-.73.64l-.1.09c-.12.11-.25.23-.38.34-1.77.62-4.78,1.84-6.94,4.87-1.66,1.14-3.18,2.53-4.52,4.14-2.98,1.73-4.55,4.26-5.4,5.65l-.09.14c-.1.15-.19.31-.28.44-.22.3-.42.6-.62.9-1.62,1.3-2.75,2.92-3.36,4.83-.2.62-.9,1.64-1.64,2.72-.35.51-.7,1.03-1.04,1.55-1.72,2.65-2.72,5.34-3.53,7.51-.41,1.11-.8,2.15-1.21,3-.79,1.63-1.11,3.11-1.33,4.08-.02.09-.04.2-.07.3-1.35,2.39-2.01,5.02-1.92,7.63,0,.25,0,.43,0,.55-.73,1.49-1.06,3.13-.96,4.74,0,.2-.09.82-.16,1.27-.09.64-.2,1.36-.27,2.14-.23.87-.64,2.55-.43,4.61l.1.92c.17,1.57.33,3.05.14,3.84-.53,2.2-.4,4.53.35,6.61,0,.09,0,.2.02.3.04.68.09,1.62.29,2.65.03.2.03.53.05.84.07,1.76.19,4.68,1.87,7.72.01.05.03.11.04.17.06.31.11.61.18,1,.33,1.93.77,4.52,2.26,7.19.23,1.58.8,4.72,3.28,7.41,0,0,0,0,0,0,.39,1.09,1.01,2.84,2.33,4.61.6,2.26,1.72,3.95,2.51,5.06.08.19.16.38.24.56-.02.03-.04.05-.07.08l-.13.16c-.19.24-.38.47-.58.69-1.07,1.12-1.86,2.51-2.32,4.04-.34.39-.77.89-1.21,1.5-.07.09-.14.18-.22.27l-.09.11c-.69.82-1.86,2.2-2.69,4.15l-.17.39c-.48,1.13-.94,2.19-1.38,2.96-.93,1.63-1.71,3.25-2.39,4.67l-.1.2c-.3.62-.6,1.24-.91,1.86-.84,1.66-1.13,3.23-1.26,4.28-1.03,1.64-1.62,3.37-1.75,5.16-.77,1.98-.86,3.76-.85,5.15-.97,1.83-1.38,3.94-1.22,6.28-.02.09-.05.19-.08.29l-.26.92c-.48,1.67-1.18,4.11-.89,7.07-.52,1.22-1.03,2.88-.93,4.95.04.9.07,1.79-.06,2.31-.81,3.39-.24,6.33.15,8.3.08.41.21,1.1.23,1.23-.11,1.99.39,3.95,1.49,5.85.04.11.09.22.14.34,0,.1,0,.22,0,.34.02,1.44.04,3.61.94,6.07.09.24.21.77.34,1.29.31,1.28.72,3.01,1.61,4.85.25,1.56.79,3.07,1.61,4.51-.67.47-1.19.93-1.6,1.28l-.2.18c-1.38,1.18-2.3,2.4-2.95,3.28-.1.13-.19.26-.3.39-.11.13-.29.31-.49.5-.53.53-1.25,1.26-1.97,2.2-1.56,2.04-2.26,4.09-2.74,5.49-.1.3-.2.6-.26.74-.45.87-1.37,2.62-1.65,4.95-1.36,2.84-1.57,5.58-1.72,7.43-.03.42-.09,1.21-.12,1.34-.73,2.04-.74,4.32-.05,6.39l-.03.22c-.22,1.49-.1,2.7-.03,3.32v.09c.22,3.84,1.3,7.06,2.25,9.91.21.63.42,1.26.63,1.91.15.49.56,1.78,1.56,3.14.12.16.18.27.24.54.46,1.98,1.27,3.49,1.81,4.48.09.16.2.36.27.51.52,1.8,1.32,3.18,1.87,4.13.04.07.09.15.13.23.29,1.68,1.05,3.29,2.17,4.63.06.13.12.28.18.41.17.4.34.79.54,1.2.39.82,1.16,2.44,2.8,3.91.52,1.09,1.1,1.84,1.32,2.12.29.41.59.82.89,1.22l.14.19c.32.44.65.88.94,1.32l.37.59c.81,1.3,2.01,3.22,4.16,4.9,1.7,2.82,4.1,4.34,5.43,5.18.1.06.22.14.32.2.98,1.2,2.23,2.1,3.72,2.7.99.54,1.9.91,2.64,1.21l.17.07c.21.09.42.17.58.25.19.11.76.54,1.1.79.59.45,1.18.89,1.8,1.3,1.35.9,2.75,1.56,4.17,1.96,1.2.98,2.61,1.71,4.12,2.14,1.27.75,2.46,1.17,3.23,1.43l.21.06c1.86.91,4.05,1.66,6.14,2.09.25.07.61.23,1.02.39.7.29,1.57.65,2.58.95l1.05.32c2.35.72,5,1.53,8.03,1.86h.09c2.37,1.11,4.73,1.6,7.18,1.52.41-.02.83-.05,1.23-.09,1.79.54,3.41.66,4.81.71.86.27,2.33.69,4.13.65.99.4,2.33.86,3.9,1.1.18.03.45.12.72.2,1.24.35,3.27.93,5.74.82,1.65.47,3.35.59,5.09.36,2.02.62,3.82.59,4.93.57,1.41-.02,2.68-.19,3.72-.32l.25-.03c.52-.07,1.3-.17,1.55-.15,2.07.34,3.96.23,5.81-.34.7-.22,1.32-.46,1.8-.66,2.02.09,3.7-.45,4.87-1.02.14-.02.29-.05.42-.07,1.54-.24,4.06-.65,6.61-2.33l.16-.04c1.05-.31,2.64-.78,4.32-1.83.63.88,1.33,1.68,2.09,2.41.61,1.35,2,3.96,5.18,5.52.18.13.44.34.65.51.59.48,1.19.95,1.93,1.45,1.6,1.07,3.2,1.71,4.39,2.18.47.19.91.36,1.22.52.77.41,1.46.66,1.92.82,1.91,1.2,3.91,1.85,5.97,1.97.1.04.21.09.31.13l.61.3.04-.07c.53.17,1.06.3,1.59.39,1.38,1.08,3.44,2.16,6.36,2.4.15.07.45.23.96.57,2.54,1.68,5.02,2.33,6.83,2.8l.69.18c1.77.49,3.46.64,4.8.76l.75.07c.65.06,1.23.07,1.66.06,1.22.32,2.35.49,3.35.65.52.08,1.02.15,1.39.25,2.49.64,4.77.99,6.77,1.06.35.02.83.09,1.36.18,1.31.2,3.07.47,5.12.33.84.24,2.09.55,3.52.71,1.84.2,3.63.11,5.31-.29l.22.02c1.32.14,2.97.31,4.8.23,1.23-.05,2.36-.19,3.26-.31.84-.1,1.63-.2,2.12-.18,1.06.04,2.11-.1,3.13-.4,1.15-.05,2.12-.24,2.82-.39,1.7.24,3.44-.05,5.15-.82.21-.03.46-.05.68-.07.44-.05.89-.1,1.31-.16.8-.11,2.36-.33,4.07-1.13,1.43-.06,2.89-.37,4.36-.91.76-.28,1.5-.6,2.28-.94.55-.24,1.24-.54,1.53-.62.79-.2,1.7-.39,2.8-.57,2.71-.45,4.7-1.64,5.9-2.35.15-.09.33-.2.47-.28,3.05-.89,5.13-2.74,6.53-3.98l.19-.17c.21-.18.41-.37.62-.52,2.24-1.67,5.11-3.95,7.68-6.96,2.21-1.3,3.52-3.01,4.1-3.77.18-.23.35-.47.53-.71.03-.05.07-.1.11-.16,1.44-1.09,2.55-2.53,3.3-4.28,1.16-1.22,2.33-2.61,3.29-4.36,1.11-1.09,2.02-2.33,2.71-3.72,1.92-1.92,3.09-3.99,3.96-5.54.19-.33.37-.67.57-.99,1.66-2.74,3.59-6.44,4.07-10.97,1.11-2.13,1.58-4.34,1.4-6.61.7-3,.7-5.97-.02-8.84.29-3.02-.31-5.56-.76-7.43l-.05-.2c-.09-.38-.18-.76-.25-1.14-.54-2.96-1.91-5.17-2.83-6.64-.15-.25-.52-.82-.6-1-.51-1.16-1.56-3.55-3.76-5.52.22-.43.4-.87.56-1.33.04-.05.09-.1.13-.15.81-.92,2-2.29,2.9-4.25l.04-.05c.81-1.04,2.41-3.12,2.92-6.16,2.58-3.25,3.81-6.75,4.59-9.48.41-1.43.86-2.88,1.33-4.3.08-.24.16-.47.25-.72.62-1.73,1.55-4.34,1.34-7.66-.01-.2,0-.67.16-1.66l.12-.35c.35-.99.93-2.65,1.02-4.75l.02-.54c.01-.26.02-.61.04-.88,1.09-2.26,1.34-4.83.7-7.25.45-2.3.41-4.61-.13-7.06-.08-.36-.09-1.27-.1-2.04-.02-1.58-.04-3.52-.52-5.68.3-2.94-.56-5.36-1.04-6.69-.15-.42-.19-.61-.19-.61-.05-2.13-.12-5.32-1.72-8.62-.54-2.58-1.38-4.85-2.15-6.93-.44-1.18-.85-2.29-1.13-3.31-.08-.3-.18-.6-.3-.9.1-.14.19-.29.28-.44.85-.69,1.5-1.36,1.99-1.87.16-.17.34-.35.4-.42.25-.2.62-.43,1.01-.69,1.58-1.02,3.96-2.55,5.82-5.3l.2-.22c.57-.61,1.48-1.58,2.28-2.94,1.67-1.36,2.65-2.89,3.19-3.75l.14-.22c.06-.07.12-.14.17-.21,2.91-1.89,4.07-4.68,4.47-5.63.09-.22.18-.44.27-.66,1.33-1.28,1.96-2.63,2.25-3.25l.59-1.25c.89-1.88,1.72-3.66,2.68-4.94,1.25-1.67,2.1-3.69,2.39-5.7.04-.25.31-1.01.51-1.55.16-.45.33-.89.47-1.33.07-.21.13-.41.18-.6,1.26-2.05,1.87-4.41,1.79-6.86-.01-.35.05-.71.17-.96Z"/>
        <g>
          <path class="cls-12" d="M875.82,1031.2c.15-.19.69-.26.17-.64-1.84-1.37-2.34-3.54-3.22-5.48-.17-.36-.4-.65-.63-.96-.65-.85-1.07-1.78-1.05-2.87,0-.27.02-.54-.15-.78-1.34-1.91-1.42-4.25-2.18-6.32-.81-2.22.08-4.55-1.02-6.63-.19-.36-.26-.79-.5-1.16-.24-.38-.55-.85-.53-1.26.14-2.69-1.23-5.28-.6-7.97.38-1.61.36-3.18.29-4.8-.05-.92.66-1.62.85-2.49.19-.84.26-1.61.1-2.49-.29-1.65.3-3.26.73-4.84.3-1.09.63-2.11.49-3.27-.08-.71-.11-1.55.4-2.12,1.05-1.18.84-2.58.82-3.94,0-.67.01-1.29.27-1.92.31-.75.57-1.52.55-2.35-.02-1.02.82-1.62,1.22-2.44.6-1.21.25-2.59.86-3.79,1.07-2.12,2.02-4.28,3.2-6.35.75-1.32,1.36-2.79,1.98-4.22.48-1.11,1.38-1.91,2.06-2.85.87-1.21,2.24-2.2,2.45-3.87.03-.26.13-.56.31-.74,1.21-1.28,2.16-2.84,3.62-3.82,2.11-1.42,2.44-3.43.47-4.96-.94-.73-1.58-1.55-1.92-2.65-.12-.4-.39-.73-.64-1.08-.73-1.03-1.5-2.06-1.46-3.44,0-.37-.04-.95-.26-1.08-2-1.17-1.96-3.49-3.02-5.17-.1-.16-.1-.44-.23-.52-2-1.17-1.58-3.33-2.13-5.09-.03-.11-.02-.25-.09-.33-1.5-1.89-1.64-4.21-2.07-6.45-.18-.91-.49-1.91-.93-2.68-1.09-1.91-.63-3.98-1-5.95-.26-1.42-.03-2.91-.65-4.29-.22-.49-.24-1.06-.11-1.6.63-2.59.23-5.18-.04-7.77-.09-.92.37-1.74.42-2.61.1-1.67.57-3.31.47-5,0-.11.02-.24.07-.33.81-1.49.96-3.09.9-4.76-.04-1.13.33-2.23.92-3.19.88-1.43.79-3.13,1.52-4.63,1.51-3.12,2.24-6.56,4.19-9.54,1.34-2.05,2.93-4.01,3.7-6.41.12-.39.46-.62.78-.83.89-.6,1.31-1.55,1.92-2.38,1.13-1.56,1.84-3.62,4.05-4.17.16-.04.33-.21.43-.36,1.28-1.9,2.89-3.45,4.94-4.52.19-.1.4-.3.46-.49.6-1.74,2.1-2.21,3.62-2.73,1.41-.48,2.42-1.59,3.52-2.52.65-.55,1.21-1.18,2.11-1.33.25-.04.57-.17.7-.37.9-1.29,2.17-1.66,3.66-1.85,1.26-.16,2.38-.9,3.46-1.56,1.23-.75,2.4-1.52,3.9-1.58.32-.01.64-.23.95-.39.24-.13.44-.42.67-.44,2.12-.18,4.08-1.41,6.29-1.02.68.12,1.27,0,1.89-.31,1.19-.59,2.46-.76,3.81-.71,1.8.07,3.6-.15,5.4-.18,1.96-.02,3.92.04,5.87.06.11,0,.27,0,.34.07,1.1,1.13,2.53.67,3.84.87,2.69.4,5.47.55,7.74,2.34,1.78-.1,3.19.78,4.75,1.51,1.38.64,2.98.74,3.74,2.33.03.07.09.18.13.18,1.71-.08,2.6,1.48,3.99,1.98,1.81.66,3.11,1.84,4.15,3.45.61.95,1.43,1.74,2.39,2.43,1.37.98,3.12,1.63,3.65,3.51.04.14.15.3.27.36,1.48.7,2.28,1.98,3.03,3.37.37.68.85,1.26.86,2.09.01.56.28.98.77,1.34.93.68,1.25,1.83,1.86,2.75.87,1.34,1.74,2.78,2.12,4.31.47,1.87,1.62,3.61,1.34,5.67-.03.21.02.5.16.65,1.12,1.26.95,2.97,1.59,4.4.09.2.17.49.09.68-.49,1.2-.15,2.2.32,3.38.8,2,.77,4.22.97,6.35.32,3.34,1.64,4.54,4.92,4.61,1.43.03,2.77-.53,4.19-.49.42.01.81.02,1.23.14,2.4.71,4.84.5,7.25.09.78-.13,1.33.32,2.01.31,2.47,0,4.82.85,7.32.9,1.48.03,3.14.36,4.64.92.77.29,1.6.17,2.39.13.92-.05,1.75.02,2.53.57.57.41,1.26.72,1.93.71,2.78-.07,5.08,1.32,7.49,2.34,1.86.78,3.68,1.72,5.55,2.42,1.29.49,2.75.82,4.15,1.14.56.13,1.08.25,1.61.55,1.2.69,2.46.39,3.68-.05.54-.19.71-.71.81-1.2.18-.96.5-1.82,1.22-2.55.27-.28.37-.75.5-1.15.45-1.47.86-2.94,1.32-4.4.12-.4.19-.86.58-1.11.6-.38.74-.95.74-1.6,0-.83.29-1.53.97-2.01.77-.54.95-1.33.85-2.14-.08-.64.05-1.18.39-1.63.39-.54.51-1.28.9-1.7,1.58-1.65,1.96-3.93,3.19-5.78.73-1.09,1.27-2.35,2.12-3.39,1.42-1.74,2.81-3.52,4.75-4.76.16-.1.39-.22.42-.37.3-1.32,1.29-2.15,2.15-3.06.13-.14.2-.37.35-.45,1.95-1.08,3.56-2.68,5.57-3.67,1.9-.94,4.03-1.48,5.41-3.34.42-.57,1.24-1.06,1.94-1.16,2.07-.29,3.83-1.72,5.98-1.59.47.03.71-.21.98-.48.7-.72,1.51-1.18,2.57-1.1,1.08.08,2.12-.01,3.07-.66.42-.29,1-.32,1.46-.14,1.04.42,1.98.15,3-.1,2.92-.72,5.85-.61,8.72.32.14.04.33.11.43.04,1.8-1.1,3.48.01,5.23.21,2.89.32,5.55,1.56,8.41,1.96.96.13,1.86.58,2.6,1.21.72.62,1.47.95,2.41.94.88,0,1.68.27,2.32.89.44.42,1.02.54,1.56.7.88.25,1.67.59,2.22,1.36.56.79,1.59.68,2.33,1.21,1.23.89,2.16,2.09,3.38,2.98.88.64,1.72,1.3,2.82,1.53.25.05.6.18.69.38.84,1.75,2.72,2.52,3.72,4.16,1.02,1.67,2.41,3.04,4.15,4.03.83.47,1.38,1.23,1.5,2.23.05.4.2.74.52,1,1.73,1.42,2.84,3.27,3.7,5.3.07.17.16.39.3.47,2.14,1.3,2.62,3.54,3.26,5.7.14.49.31,1.01.64,1.34,1.28,1.27,1.46,2.92,1.75,4.55.12.66.35,1.22.73,1.78.88,1.29.95,2.89,1.43,4.34.65,1.96.97,4.01.94,6.11-.01.76.25,1.54.46,2.25.55,1.86.06,3.79.63,5.65.42,1.36.22,2.83-.36,4.2-.09.21-.25.48-.19.64.68,1.61.39,3.3.11,4.86-.46,2.59-.06,5.28-1.23,7.81-.71,1.53-1.05,3.27-.99,5.03.03.91-.26,1.77-.9,2.44-.5.53-.4,1.23-.6,1.84-.5,1.48-1.14,2.92-1.36,4.49-.08.55-.35,1.13-.69,1.58-1.78,2.37-2.93,5.07-4.19,7.71-.13.27-.27.6-.5.76-1.28.85-1.65,2.25-2.19,3.54-.33.8-.69,1.56-1.62,1.83-.83.24-1.05,1.08-1.56,1.64-1.08,1.19-1.52,2.99-3.37,3.47-.21.05-.4.48-.46.76-.34,1.57-1.72,2.39-2.51,3.59-1.32,2-3.42,2.79-5.13,4.17-1.19.96-2.04,2.31-3.48,3-.26.13-.39.55-.56.86-.24.45-.42,1.1-.86,1.19-1.38.27-1.61,1.56-2.33,2.39-.54.61-.52,1.37-.15,2.06.46.84,1,1.64,1.49,2.46.2.33.44.66.54,1.02,1.01,3.55,2.72,6.88,3.31,10.57.04.25.19.5.32.73.97,1.7,1,3.56,1.05,5.45.03,1.11.33,2.25.7,3.3.44,1.23.87,2.4.32,3.69-.06.13-.11.32-.06.44,1.26,2.97.43,6.18,1.09,9.2.3,1.36.32,2.61-.04,3.95-.27,1.01-.42,2.12.14,3.17.25.46.19,1.04-.04,1.47-.84,1.52-.82,3.19-.89,4.82-.06,1.36-.76,2.49-.99,3.79-.23,1.3-.38,2.62-.31,3.89.11,1.84-.61,3.38-1.15,5.01-.51,1.54-1,3.09-1.45,4.66-.76,2.66-1.81,5.25-3.79,7.3-.68.71-1.11,1.42-1.01,2.45.16,1.6-1.05,2.57-1.81,3.75-.06.1-.21.16-.23.25-.59,2.28-3.03,3.41-3.55,5.74-.14.63-.68,1.07-1.11,1.57-1.24,1.46-2.83,2.52-4.19,3.85-.12.12-.06.29.08.4-.11.68-.75.7-1.19.94-2.23,1.21-4.4,2.47-6.26,4.27-1.54,1.5-3.31,2.77-5.57,3.09-.54.08-1.03.35-1.46.68-1.04.8-2.23,1.22-3.5,1.45-3.34.58-6.64,1.55-10.06,1.32-1.86-.13-3.57.17-5.27.88-.69.29-1.48.31-2.16-.01-1.65-.78-3.38-.73-5.11-.65-1.87.09-3.69-.25-5.53-.47-1-.12-1.74-.94-2.8-1.03-.87-.07-1.73-.33-2.63-.28-1.04.07-1.78-.68-2.67-1.03-1.29-.51-2.51-1.08-3.45-2.22-.62-.76-1.58-1.21-2.66-1.22-.59,0-1.15-.16-1.67-.44-.59-.44-1.21-.76-1.94-.98-1.83-.55-3.19-2.91-2.88-4.8.33-2.04.53-4.04-.73-5.92-.86-1.29-1.92-1.49-3.02-.43-.86.83-1.64,1.74-2.41,2.65-.99,1.17-1.42,1.02-2.57.03-1.26-1.08-2.1-2.43-3.02-3.75-.88-1.26-1.43-1.37-2.78-.56-.13.08-.27.14-.43.17-1.79-.6-3.59-1.18-5.33-1.9-1.99-.83-4-.74-6.01-.43-.95.15-1.88.39-2.85.42-2.14.06-4.05.71-5.79,2-1.13.83-2.47,1.28-3.92,1.19-.92-.05-1.76.15-2.5.72-.37.29-.79.58-1.25.55-2.16-.13-3.54,1.37-5.05,2.49-1.73,1.28-3.52,2.51-5.08,4.01-.2.19-.44.32-.74.23-.63-.4-.92-1.09-1.13-1.71-.8-2.46-2.35-4.49-3.64-6.66-1.57-2.64-3.42-5.13-5.5-7.38-1.14-1.24-2.3-2.46-3.44-3.7-.74-.8-1.68-1.48-2.66-2.01-1.43-.77-2.77-1.68-4.21-2.41-1.22-.61-2.56-.85-3.86-1.04-2.56-.38-5.15-.37-7.64.6-.86.34-1.83.32-2.65.79-.69.07-1.36.25-2.06.3-.62.05-1.03-.09-.66-.84.17-.35.24-.73.41-1.08.57-1.14.28-2.16-.93-2.59-1.33-.47-2.71-.65-3.93.42-.71.62-1.28,1.34-1.73,2.15-.65,1.16-1.44,2.18-2.63,2.85-.58.33-.98.86-1.44,1.33-.46.48-.89.49-1.42.1-.87-.65-1.67-1.37-2.35-2.22-.34-.42-.65-.86-1.04-1.24-.45-.44-.96-.69-1.55-.26-.56.41-.53.97-.33,1.57.19.58.86.93.8,1.63-.44,2.45-2.01,3.91-4.51,3.94-2.09.03-4.16.16-6.23.4-.76.09-1.54.13-2.3-.1-.42-.13-.88-.12-1.25.09-1.55.89-3.24.56-4.87.52-2.42-.05-4.84-.23-7.27-.22-2.39.01-4.77.2-7.22-.25-1.96-.36-4.11-.55-6.19-.33-1.02.11-1.94-.24-2.92-.51-1.41-.39-2.84-.96-4.36-.77-1.57.2-2.66-.76-3.69-1.64-1.06-.9-2.25-1.51-3.5-1.99-2.21-.86-4.36-1.72-6.01-3.55-.9-1-2.36-1.23-3.36-2.21-.98-.95-1.83-1.97-2.58-3.09-1.55-2.3-3.57-4.13-5.73-5.82-.46-.36-1.16-.2-1.55-.71Z"/>
          <path class="cls-11" d="M875.82,1031.2c1.69-.17,2.82,1.04,3.71,2.04,1.38,1.56,3.04,2.85,4.14,4.76.99,1.73,2.44,3.4,4.62,4.04.51.15,1,.62,1.34,1.06,1.31,1.69,3.28,2.23,5.1,3.03,1.42.62,2.81,1.2,4.06,2.23,1.07.89,2.25,2.15,4.01,1.35.34-.16.65.09.98.18,1.62.47,3.23,1.05,4.89,1.25,1.65.2,3.35.2,4.99.24,1.74.05,3.4.57,5.06.56,1.43,0,2.92,0,4.32-.2,1.95-.28,3.84.11,5.75.12,1.45,0,2.92-.02,4.37.19.38.06.67-.14.97-.29.87-.45,1.7-.68,2.75-.32.7.24,1.6.04,2.38-.09,2.02-.35,4.05-.26,6.08-.29,1.48-.02,3.27-1.61,3.57-3.1.05-.27.07-.54.37-.66.39-.02.7.2.87.49.47.81,1.05,1.51,1.74,2.14.29.26.51.71-.09.9-2.31.73-3.99,2.46-5.99,3.69-.73.44-1.37,1-2.05,1.51-.51.39-.82.86-.63,1.49.22.7.52,1.39,1.37,1.57.7.14,1.37.05,2.06-.11,1.28-.31,1.61-.06,1.75,1.22.06.58.14,1.15,0,1.73-.47,1.39-1.42,2.54-1.82,3.99-.32,1.15-.49,2.27-.42,3.42.09,1.35,0,2.7.09,4.05.11,1.62.59,3.18,1.08,4.72.34,1.09.81,2.15,1.31,3.2.44.91.79,1.89,1.29,2.8,1.03,1.87,2.31,3.46,4.02,4.83,1.6,1.28,3.18,2.65,4.51,4.27,1.48,1.8,3.44,3.07,5.17,4.61.74.66,1.5,1.24,2.38,1.74.92.52,1.72,1.35,2.65,1.98,1.86,1.26,3.88,2.19,5.81,3.3,2.18,1.25,4.59,1.8,6.89,2.55,2.61.85,5.27,1.67,7.98,2.28,2.44.55,4.86,1.28,7.33,1.55,1.98.21,4.06.27,6.06-.22,1.38-.05,2.71-.11,4.1.37,1.4.49,2.97.3,4.46.27,2.38-.04,4.77.25,7.15-.18,2.41-.44,4.84-.76,7.17-1.58.07-.03.14-.08.22-.08,2.73.04,4.99-1.73,7.68-1.93,1.16-.08,2.25-.68,3.34-1.21,1.48-.72,3.05-1.27,4.49-2.07,2.01-1.11,3.95-2.32,5.74-3.8,2.19-1.8,3.79-4.1,5.34-6.34,1.55-2.23,3.15-4.71,2.71-7.76-.05-.35,0-.7.24-.99.17-.17.38-.29.61-.32,2.2-.29,2.35-1.48,1.92-3.98-.19-1.13-.68-2.2-.79-3.37-.08-.89.33-1.3,1.17-1.35.54-.03,1.08-.1,1.62,0,.74.15,1.27-.15,1.67-.76.41-.62.38-1.21.02-1.85-.21-.37-.66-.73-.26-1.24.72.3,1.46.37,2.24.43.89.07,1.82.54,2.31,1.25.88,1.3,2.35,1.51,3.49,2.29,1.37.93,2.89.74,4.34,1.07,2.52.58,4.92,1.63,7.57,1.63,1.57,0,3.14-.25,4.71.04.27.05.59-.01.79.12,2.02,1.35,3.82.26,5.66-.47.25-.1.48-.22.77-.17,2.96.52,5.86.23,8.74-.56.51-.14,1.07-.06,1.59-.17,1.88-.39,3.76-.66,5.37-1.93,1.16-.92,2.84-.71,4.13-1.61,1.02-.71,2.03-1.42,2.92-2.29.27-.27.51-.58.82-.8,2.07-1.46,4.18-2.84,6.51-3.85,1.65-.21,4.12,1.46,4.59,3.19.19.7.43,1.12,1.19,1.31,1.62.4,2.31,1.93,2.86,3.17.86,1.94,2.44,3.56,2.82,5.64.44,2.44,1.45,4.87.76,7.44-.06.23-.06.45.03.68.94,2.4.83,4.8,0,7.2-.04.11-.1.25-.06.34.59,1.52.04,2.78-.89,3.95-.11.14-.2.36-.2.54.13,3.31-1.28,6.2-2.89,8.87-1.18,1.95-2.12,4.19-4.09,5.6-.27.19-.36.46-.46.77-.34,1.1-1,1.98-1.94,2.66-.18.13-.41.29-.47.48-.66,1.98-2.17,3.32-3.55,4.76-.23.24-.3.52-.38.82-.14.53-.31,1.07-.79,1.38-.98.62-1.56,1.6-2.23,2.48-.63.82-1.28,1.54-2.31,1.83-.35.1-.56.4-.77.68-1.97,2.54-4.44,4.62-6.96,6.49-1.52,1.13-2.91,2.85-4.61,3.29-1.94.51-3.27,2.04-5.25,2.37-1.18.2-2.38.43-3.54.72-1.62.41-3.12,1.25-4.7,1.84-.98.36-2.01.56-3.05.14-.52-.21-.86-.01-1.19.41-.59.75-1.41.9-2.34,1.03-1.4.2-2.85.2-4.17.82-.21.1-.48.27-.65.2-1.77-.62-3.44.7-5.22.25-.42-.11-.99.51-1.48.49-2.05-.08-4.05.41-6.08.49-1.63.07-3.23-.19-4.84-.32-.39-.03-.77-.07-1.15.08-1.92.73-3.81.27-5.66-.27-.49-.14-1-.37-1.46-.28-2.2.46-4.34-.31-6.51-.39-1.59-.06-3.33-.39-4.91-.79-1.77-.45-3.61-.49-5.36-1.08-.69-.23-1.59-.03-2.4-.11-1.37-.14-2.81-.21-4.06-.55-1.66-.46-3.42-.8-4.98-1.83-1.52-1.01-3.22-1.93-5.17-2.01-.64-.03-1.21-.19-1.69-.64-1.07-1.01-2.31-1.57-3.8-1.65-.47-.03-.94-.33-1.37-.57-.45-.26-.94-.48-1.43-.37-1.13.25-2.02-.2-2.91-.8-.65-.45-1.52-.59-2.15-.92-1.58-.83-3.38-1.27-4.8-2.22-1.2-.8-2.21-1.89-3.61-2.55-1.04-.49-1.06-2-1.9-2.83-.22-.21-.33-.54-.57-.73-2.16-1.72-2.89-4.18-3.5-6.69-.31-1.28-1.28-2.29-1.27-3.76-2.05,1.57-3.82,3.22-5.89,4.5-.8.49-1.59,1.09-2.3,1.69-1.47,1.23-3.48,1.1-4.91,2.17-1.86,1.4-4.24.85-6.15,1.93-.22.13-.55.23-.78.17-1.77-.45-3.18.59-4.72,1.07-.56.17-1.12.16-1.7.06-2.4-.41-4.75.34-7.14.38-.94.01-1.86.05-2.71-.4-.83-.44-1.65-.54-2.56-.25-.9.28-1.83.28-2.7-.14-.39-.19-.82-.43-1.21-.31-2.06.63-3.86-.43-5.79-.73-1.28-.2-2.31-.72-3.42-1.2-.44-.19-.82-.3-1.32-.12-1.27.45-2.37-.47-3.61-.5-1.32-.04-2.65-.06-3.95-.6-1.07-.44-2.3-.09-3.44-.05-1.27.04-2.37-.3-3.44-.83-.61-.3-1.2-.52-1.86-.57-2.83-.22-5.48-1.11-8.18-1.92-1.46-.44-2.8-1.21-4.33-1.53-1.38-.29-2.85-.78-4.08-1.38-1.16-.57-2.58-.73-3.55-1.71-.21-.21-.49-.21-.76-.23-1.05-.08-1.84-.59-2.28-1.54-.23-.51-.56-.68-1.09-.61-1.14.15-2.13-.29-3.03-.9-1.37-.91-2.61-2.08-4.08-2.76-1.13-.52-2.32-.89-3.39-1.57-.19-.12-.52-.11-.63-.27-1.36-2.01-4.18-2.4-5.23-4.77-.32-.72-.92-1.28-1.63-1.75-1.31-.88-2.02-2.32-2.86-3.59-.68-1.02-1.43-1.98-2.14-2.98-.2-.28-.45-.54-.57-.86-.37-1.03-.82-1.97-1.84-2.57-.46-.27-.7-.79-.94-1.29-.56-1.18-.95-2.45-1.87-3.43-.13-.14-.26-.33-.27-.5-.12-2.06-1.74-3.5-2.23-5.34-.44-1.63-1.58-2.89-1.95-4.46-.33-1.42-.9-2.66-1.75-3.81-.11-.15-.17-.35-.23-.53-.99-3.17-2.29-6.25-2.47-9.62-.03-.54-.15-1.09-.07-1.61.22-1.45.51-2.87-.28-4.25-.1-.18-.14-.48-.07-.68,1.07-2.99.04-6.5,2.3-9.19.09-.1.13-.31.09-.44-.32-1.11.13-2.07.61-2.99.83-1.59,1.04-3.44,2.17-4.92.71-.93,1.61-1.64,2.34-2.55.66-.82,1.22-1.73,2.07-2.45,1-.85,1.87-1.72,3.29-1.65.26.01.44-.16.52-.39.68-1.94,2.47-2.26,4.08-2.84Z"/>
          <path class="cls-21" d="M1108.5,868.71c1.34-.12,2.77.28,4.23,0,.9-.17,1.76.27,2.59.52,1.38.41,2.88.63,4.01,1.69.21.2.56.4.83.38,1.67-.11,2.82,1.18,4.3,1.55.18.04.39.15.49.29,1.03,1.44,2.93,1.82,3.97,3.25.2.28.55.4.9.48,1.78.43,3.1,1.45,4.01,3.05.36.63.83,1.22,1.46,1.63.81.52,1.41,1.19,1.72,2.11.12.35.3.64.65.77.55.19.88.62,1.19,1.06.92,1.31,1.48,2.87,2.74,3.96.33.29.28.79.39,1.19.3,1.07.49,2.18,1.33,3.02.18.18.36.44.4.69.36,2.29,1.95,4.18,2.1,6.53.07,1.02.79,1.82,1,2.82.57,2.72.55,5.39-.11,8.09-.17.7-.24,1.43-.13,2.18.2,1.33-.65,2.43-.97,3.64-.13.49-.29.93-.21,1.43.04.23.14.52.05.68-.96,1.61-.43,3.57-1.27,5.25-.44.89-.78,1.9-1.02,2.92-.18.82-.92,1.46-1.36,2.22-1.19,2.03-2.09,4.2-3.63,6.09-1.02,1.25-2.14,2.41-3.28,3.5-1.21,1.17-2.6,2.48-4.23,2.84-1.4.3-2.76,1.19-4.34.73-.52-.15-1.15.09-1.71.04-1.14-.1-2.31-.17-3.19-1.11-.31-.33-.76-.5-1.24-.57-1.87-.26-3.43-1.14-4.63-2.59-1.61-1.94-3.14-3.95-4.77-5.87-.86-1.02-1.86-2.01-2.52-3.11-.65-1.06-1.76-1.78-2.09-3.07-.22-.85-1.09-1.35-1.58-2.1-.97-1.5-2.16-2.87-3.19-4.34-.39-.56-.98-.72-1.49-1.04-1.49-.92-2.57-2.46-4.41-2.85-.24-.05-.48-.27-.65-.47-1.58-1.94-3.81-3.08-5.98-3.97-2.02-.83-3.81-1.98-5.71-2.95-1.14-.58-1.89-1.85-3.35-1.89-.17,0-.34-.39-.49-.6-.34-.47-.59-1.04-1.03-1.38-.91-.71-1.49-1.51-1.88-2.64-.34-.99-1.2-1.79-1.66-2.81-1.19-2.61-1.05-5.22-.3-7.86.08-.27.33-.53.56-.72,1-.82,1.67-1.77,1.69-3.14.01-.76.48-1.44,1.11-1.82.98-.59,1.47-1.54,2.11-2.4.99-1.32,2.23-2.42,3.2-3.77.37-.51.99-.85,1.62-1.08.67-.24,1.05-.75,1.26-1.4.01-.04.01-.08.02-.11.11-.56.42-1.2.9-1.27,2.05-.28,2.36-3.07,4.55-3.06.22,0,.53.02.66-.11,1.77-1.75,4.29-1.63,6.39-2.55,1.12-.49,2.25-1.11,3.41-1.39,2.11-.5,4.26-1.12,6.58-.54Z"/>
          <path class="cls-21" d="M908.42,922.26c-.83.03-1.4-.7-2.22-.68-.57,0-1.13-.16-1.73-.03-.59.13-1.05-.14-1.29-.72-.01-.04-.02-.09-.05-.1-2.13-1.36-2.34-4.09-4.11-5.71-.19-.18-.32-.43-.44-.67-1.11-2.11-1.74-4.4-2.48-6.64-.11-.32-.17-.67-.07-1.03.45-1.5-.07-2.87-.92-4-.7-.93-1.12-1.88-1.08-2.96.06-1.67-.34-3.2-.92-4.72-.16-.42-.39-1.02-.22-1.33.59-1.08.26-2.06-.08-3.07-.33-.99.07-1.98.04-2.93-.04-1.51.47-2.87.58-4.32.11-1.39.53-2.67,1.09-3.97.49-1.15.68-2.46,1.15-3.66.32-.81.82-1.43,1.29-2.13.94-1.4,2.39-2.39,3.08-3.96.17-.39.31-.87.68-1.06,2.33-1.21,3.34-3.74,5.4-5.27,1.3-.97,2.25-2.41,3.36-3.64.18-.2.3-.53.52-.61,1.44-.54,2.43-1.89,3.99-2.18.33-.06.58-.21.8-.43,1.97-1.97,4.48-2.68,7.11-3.19.74-.14,1.49-.43,2.12-.84,1.33-.85,2.67-1.13,4.17-.58.37.13.76.21,1.14.1,1.8-.52,3.74-.22,5.5-.95.24-.1.58-.19.79-.1,1.74.78,3.74.3,5.44,1.17.78.4,1.59.6,2.45.61,1.78.04,3.34.89,4.99,1.37,1.99.58,3.93,1.32,5.97,1.75.68.14,1.23.56,1.77,1.04,1.21,1.08,2.22,2.44,3.86,3.01.38.13.78.43.99.76,1.36,2.18,3.09,4.03,4.99,5.73.4.36.79.79.9,1.33.38,1.81,1.32,3.4,1.98,5.09.07.18.14.38.12.56-.18,2.18.89,4.05,1.52,6.02.23.73.25,1.39-.11,2.11-.96,1.88-1.16,4.07-2.32,5.89-.97,1.52-2.01,2.76-4.07,2.74-1.52-.01-2.8,1.1-4.27,1.37-2.72.49-5.27,1.53-7.9,2.32-1.47.44-2.98.83-4.43,1.37-.85.32-1.83.41-2.76.63-.93.22-1.69.7-2.51,1.13-2.03,1.07-3.73,2.69-5.97,3.42-.63.21-1.37.53-1.67,1.18-.49,1.07-1.31,1.6-2.38,1.97-.84.3-1.36,1.14-2.09,1.6-2.01,1.27-3.44,3.26-5.33,4.56-1.56,1.07-2.71,2.59-4.38,3.49-.73.4-1.3,1-1.62,1.88-.36.97-1.43,1.32-2.17,1.97-1.17,1.03-2.47,1.91-3.47,3.13-.78.95-1.53,1.93-3.01,1.78-.59-.06-1.08.65-1.73.4Z"/>
          <path class="cls-21" d="M1006.68,990.16c1.31-.19,2.68-.14,3.94-.25,1.58-.14,3.4.2,4.87-.9.26-.19.71-.32.99-.24,2.6.81,5.15-.32,7.73-.16.56.03,1.15-.14,1.71-.26,2.39-.54,4.78.48,7.14.06,2.1-.37,4.19-.02,6.14.37,1.87.37,3.88.63,5.58,1.37,1.52.66,3.04,1.46,4.56,2.22,1.93.96,3.04,2.78,4.25,4.53,1.25,1.81,1.58,3.79,1.94,5.84.28,1.63.69,3.19-.03,4.84-.3.7-.32,1.58-.16,2.4.12.64-.11,1.22-.49,1.73-1.3,1.71-2.57,3.43-3.41,5.44-.09.21-.24.43-.43.54-1.66.95-2.77,2.55-4.2,3.76-1.01.86-2.06,1.78-3.11,2.58-1.27.97-2.19,2.66-4.19,2.59-.52-.02-1.18.45-1.58.88-1.02,1.08-2.45,1.37-3.65,2.11-.61.38-1.27.61-1.97.47-.89-.18-1.6.14-2.18.72-1.07,1.05-2.25,1.44-3.69.88-.2-.08-.51-.14-.67-.04-1.4.88-3.11.3-4.55,1.01-1.25.61-2.58.22-3.88.05-.71-.1-1.37-.13-2.01.27-.4.24-.88.35-1.34.29-2.23-.31-4.48-.22-6.71-.34-1.98-.1-3.92-.45-5.94-.21-1.04.12-2.09-.63-3.21-.79-1.31-.18-2.62-.48-3.92-.73-2.04-.39-4.22-.66-5.92-2.11-.46-.39-.94-.46-1.51-.24-.84.33-1.67.13-2.27-.44-.72-.68-1.6-.9-2.45-1.23-.18-.07-.42-.05-.55-.16-1.08-.99-2.54-1.17-3.76-1.81-1.41-.74-2.91-1.17-4.35-1.8-.25-.11-.57-.16-.72-.35-1.04-1.35-2.91-1.53-3.96-2.87-.49-.62-1.42-.5-2.05-1-1.53-1.21-3.11-2.33-4.98-3.03-.96-.36-1.52-1.36-2.26-2.04-1.54-1.42-3.19-2.93-3.73-5.13-.1-.4-.24-.7-.6-.91-.81-.48-1.24-1.3-1.15-2.14.16-1.45-.77-2.32-1.49-3.29-.51-.68-.9-1.35-.81-2.21.08-.67-.02-1.34-.24-1.94-.61-1.71.55-3.16.56-4.77,0-1.46.92-2.39,1.73-3.54,2.36-3.36,5.77-5.52,8.65-8.27.68-.65,6.55-2.52,7.47-2.37,1.77.29,3.53.23,5.3.16.12,0,.25-.03.34.03,1.88,1.07,4.36.22,6.05,1.9.22.22.49.17.76.11.35-.08.72-.07,1.01.13,2.36,1.63,5.28,1.98,7.72,3.51,1.66,1.04,3.48,1.89,5.13,2.96,1.23.81,2.17,2.05,3.48,2.79.59.34,1.08.61.79,1.39.08,2.1-.48,4.11-.97,6.12-.19.77-.26,1.5-.11,2.28.3,1.6-1.07,3.19-2.68,3.17-1.13-.01-2.25,0-3.28.53-.21.11-.45.19-.67.14-1.58-.33-3.22-.2-4.78-.7-1.36-.44-2.7-.89-4.05-1.37-1.79-.64-3.38-1.64-4.71-2.87-1.1-1.02-2.15-2.28-2.81-3.63-.82-1.69-.84-3.59.04-5.36.28-.57.44-1.15.48-1.78.09-1.46-.62-2.53-1.86-2.82-1.27-.3-2.82.41-3.23,1.64-.39,1.17-.86,2.31-1.22,3.49-.32,1.03-.38,2.13-.04,3.2.13.41.2.83.18,1.26-.03,1.36.27,2.52,1.32,3.55.81.79,1.05,2.04,1.71,3,.56.82,1.27,1.38,2.05,1.98,1.7,1.29,3.72,2.04,5.38,3.37.15.12.3.29.47.33,1.99.37,3.83,1.27,5.81,1.67.19.04.4-.03.58.04,2.36.99,4.78.22,7.17.26,2.53.04,4.78-.58,6.88-1.89.68-.42,1.27-.24,1.82.17,1.33,1,2.97,1.42,4.28,2.5.84.69,1.97,1.06,3.15,1.02.51-.02,1.04.05,1.46.31,1.31.83,2.75,1.22,4.26,1.36,1.83.17,3.66.37,5.39-.53.66-.34,1.39-.46,2.11-.59,1.8-.31,3.49-.99,5.18-1.65.4-.15.84-.34,1.03-.72.82-1.6,2.33-2.57,3.48-3.85,1.35-1.51,1.36-3.33,1.41-5.11.03-1.2-1.16-1.5-2.13-1.8-.9-.28-1.73-.17-2.3.6-.7.95-1.53,1.85-1.59,3.15-.04.74-.51,1.27-1.18,1.61-1.03.53-1.95,1.46-2.96,1.75-1.82.52-3.54,1.71-5.59,1.26-.61-.14-1.24-.19-1.83.04-1.24.48-2.32.08-3.46-.4-1.62-.69-3.25-1.36-4.89-2-1.34-.53-2.47-1.42-3.69-2.16-.31-.19-.41-.55-.44-.91-.12-1.38-.29-2.77-.4-4.15-.1-1.26.59-2.45.91-3.68.28-1.07.52-2.08.28-3.18-.08-.36-.31-.86.32-1.04Z"/>
          <path class="cls-15" d="M1055.39,1085.75c0,.57-.02,1.15.02,1.72.13,1.96-1.09,3.45-1.66,5.16-.77,2.32-2.79,3.62-3.88,5.65-.84,1.58-2.52,2.56-3.92,3.7-1.92,1.56-4.09,2.7-6.35,3.71-1.76.78-3.45,1.71-5.29,2.3-1.49.47-3.13.39-4.56,1.1-1.03.51-2.09.74-3.24.92-1.21.19-2.61.22-3.68,1.04-.63.48-1.27,0-1.89.18-2,.59-4.08.8-6.14.78-1.37,0-2.73-.13-4.11-.09-1.12.03-2.25-.07-3.37-.1-.15,0-.36.09-.45.02-1.29-1.04-2.84-.44-4.25-.66-1.66-.07-3.34-.24-4.92-.64-2.01-.51-4.05-1.13-5.84-2.27-.59-.38-1.21-.71-1.85-.94-2.42-.86-3.85-2.72-5.06-4.83-.06-.1-.14-.21-.14-.32.06-2.85-1.06-5.86,1.18-8.4.05-.06.11-.13.12-.2.26-2.36,2.29-4,2.59-6.35.02-.19.14-.36.26-.51,1.88-2.33,3.27-4.93,4.4-7.69.09-.22.23-.41.42-.54,2.53-1.77,4.46-4.1,6.13-6.66.81-1.25,1.81-2.28,2.98-3.18,1.5-.71,2.52-2.04,3.86-2.98,1.56-1.09,2.96-2.57,4.66-3.3,1.76-.75,3.62-1.65,5.51-1.83,2-.19,3.61-.71,5.28-1.84,1.65-1.12,3.71-1.59,5.81-1.47.27.02.57.07.8-.03,1.88-.83,3.87-.66,5.78-.39,1.41.2,2.76.89,4.12,1.41.93.35,1.92.58,2.76,1.17.2.33-.05.58-.14.86-.7,2.21-1.12,4.41.42,6.48.22.3.53.65.26,1.05-.29.42-.79.36-1.16.2-1.26-.56-2.46-.39-3.69.09-.7.27-1.06.71-1.13,1.45-.07.75.32,1.22.94,1.42,1.71.56,3.07,1.91,4.97,2.1.87.09,1.66.76,2.54,1.06.57.2.77.8.9,1.39.33,1.49.24,2.99.25,4.49,0,1.53.17,3,.85,4.39.56,1.12,1.11,1.18,2.02.29.81-.8.91-1.94,1.51-2.84.18-.17.39-.27.64-.29.15,0,.33.02.43.13,1.33,1.47,3.03,2.53,4.3,4.06Z"/>
          <path class="cls-17" d="M1002.89,1068.67c.14.35.03.62-.29.77-1.64.73-2.34,2.35-3.18,3.71-.73,1.19-1.81,1.97-2.61,3.03-.77,1.02-1.64,1.92-2.82,2.51-.69.34-.59,1.2-.91,1.81-1.09,2.05-1.97,4.23-3.57,5.96-.64.69-.48,1.61-.9,2.31-.63,1.04-1.44,2.18-1.69,3.19-.51,2.06-2.34,3.64-2.1,5.85.26,2.38-.18,5,1.84,6.92,1.29,1.23,2.7,2.31,4.44,2.82,1.02.3,1.57,1.45,2.76,1.42,1.04-.03,1.79.77,2.71,1.04,1.64.47,3.35.7,5.06.79.41.02.76,0,.98.41-.63.42-1.45.42-2.04.34-1.57-.2-3.11.26-4.72-.12-1.49-.36-3.07-.54-4.56-.93-1.82-.47-3.64-.9-5.46-1.36-1.37-.34-2.59-1.17-4.05-1.2-.04,0-.08,0-.11-.02-1.71-.85-3.7-1.01-5.37-1.85-1.84-.92-3.74-1.75-5.55-2.75-1.2-.66-2.21-1.57-3.44-2.19-1.01-.51-1.89-1.38-2.85-2.06-.91-.64-1.62-1.67-2.59-2.3-1.46-.95-2.72-2.16-3.79-3.45-1.17-1.41-2.85-2.26-3.84-3.8-.39-.6-1.21-.57-1.61-1.07-1.11-1.39-2.27-2.73-3.11-4.36-.93-1.8-1.73-3.64-2.39-5.54-.86-2.49-1.57-5.05-1.2-7.74.09-.64-.18-1.2-.18-1.82-.03-2.65,1.03-4.9,2.4-7.06.64.3.53.89.48,1.4-.09.94.21,1.76.66,2.54,1.07,1.84,2.99,1.88,4.35.23,1.52-1.84,2.28-4.09,3.54-6.07.06-.1.1-.21.15-.31.93-1.76,1.33-2.05,3.25-1.6,2.33.55,4.58.19,6.86-.22.55-.1,1.02-.35,1.41-.75.78-.79.68-1.64-.28-2.18-.61-.34-1.24-.63-1.91-.84-.29-.09-.6-.26-.6-.62,0-.31.27-.45.5-.58.27-.15.55-.35.85-.37,1.78-.08,3.26-1.12,4.96-1.47.97-.2,1.88-.72,2.72-1.26,1.12-.73.94-2.38-.37-3.02-1.6-.78-3.33-1.12-5.11-1.24-.53-.04-1.18.26-1.5-.46.97-.8,2.24-.69,3.35-1.08,2.54-.9,5.19-.8,7.79-.28,3.34.67,6.13,2.46,8.88,4.42,1.57,1.12,2.4,2.85,3.83,3.94,1.66,1.27,2.7,2.99,3.97,4.52,1.42,1.71,2.46,3.74,3.71,5.6.66.98,1.23,2.03,1.81,3.04.6,1.05.89,2.32,1.47,3.43Z"/>
          <path class="cls-7" d="M1006.68,990.16c-.05.14-.16.3-.13.42.67,2.4-.23,4.55-1.06,6.7-.36.94.22,1.72.25,2.6.11,2.99.12,3.1,2.81,4.43,1.62.8,3.18,1.81,5.07,2.11.98.15,1.75,1.09,2.85,1.15.38.02.73.14,1.12-.07.92-.49,1.92-.38,2.82-.07.71.25,1.18.08,1.68-.33.43-.35.94-.66,1.48-.54,1.06.23,1.72-.31,2.47-.92.61-.5,1.37-.88,2.11-1.17.76-.29,1.15-.8,1.15-1.55,0-1.55,1.07-2.53,1.92-3.58.76-.93,2.47-.75,3.86.17.94.62,1.26,1.66.85,2.86-.12.36-.3.69-.22,1.11.15.78-.15,1.45-.62,2.04-.87,1.08-1.7,2.2-2.86,3.01-.16.11-.38.22-.43.38-.75,2.36-3.03,2.36-4.8,3.15-1.79.8-3.78.93-5.64,1.63-1.22.46-2.86.35-4.36.16-1.77-.22-3.28-.99-4.89-1.58-1.09-.4-2.33-.1-3.41-.82-1.57-1.05-3.27-1.92-4.9-2.9-.62-.37-1.07-.57-1.83-.05-.99.68-2.2,1-3.34,1.42-1.77.64-3.44.29-5.15.36-.52.02-1.02.37-1.55.41-.88.08-1.77.11-2.6-.35-.7-.39-1.5-.38-2.26-.32-.62.05-1.22-.05-1.62-.47-.69-.74-1.56-.77-2.44-.8-.55-.02-1.11-.07-1.54-.41-2.06-1.62-4.46-2.67-6.59-4.17-1.29-.9-1.78-2.37-2.56-3.63-.22-.36-.27-.9-.57-1.11-1.37-.98-1.35-2.39-1.41-3.84-.06-1.22-.46-2.4-.25-3.66.26-1.6,1.02-3.03,1.53-4.53.52-1.53,2.89-2.05,4.29-1.22,1.35.8,1.8,3.06.9,4.57-1.24,2.09-.93,4.69.77,6.46.19.19.39.4.51.63,1.2,2.32,3.38,3.56,5.6,4.44,2.16.85,4.34,1.93,6.8,1.79.36-.02.74.2,1.1.31.53.16,1.07.28,1.57-.01,1.2-.7,2.52-.63,3.82-.66.83-.01,2.44-1.61,2.13-2.35-.65-1.57-.05-3.04.4-4.39.5-1.48.02-3.11.89-4.47.29-.21.27-.54.32-.83.25-1.3-.08-2.6-.02-3.91.07-1.58-1.38-2.35-2.06-3.53-.91-1.59-2.82-1.95-3.79-3.4-1.51-2.25-3.19-4.41-4.03-7.04-.85-2.69,1.69-6.48,4.52-6.82.45-.05.89-.24,1.32-.41,1.23-.51,2.45-.65,3.71-.07.17.08.39.14.56.1,3.2-.73,6.33,1.05,9.52.24,1.85.78,4.14.31,5.64,2.15.66.81,1.73,1.2,2.42,2.1,1.13,1.48,1.12,2.98.49,4.58-.3.76-.63,1.49-.76,2.3-.02.11-.06.24-.14.32-1.27,1.29-2.5,2.63-3.87,3.81-.4.34-.96.54-1.38.96-1.14,1.16-2.75,1.59-4,2.61-.84.69-1.78,1.68-1.56,2.74.17.81-.73,1.06-.64,1.73Z"/>
          <path class="cls-6" d="M1065.9,975.3c1.08.26,2.22-.25,3.19-.03,1.76.4,3.65.74,5,2.18.84.89,1.91,1.46,3.03,1.85.94.32,1.65.84,2.13,1.66.84,1.44,1.93,2.76,2.2,4.48.09.57.17,1.1-.04,1.7-.36,1-.27,2.02.3,2.97.97,1.61.86,2.44-.45,3.8-.3.32-.51.67-.66,1.07-.79,2.13-2.44,3.6-3.98,5.15-.28.28-.68.54-1.03.47-1.77-.33-3.09.84-4.57,1.37-1.62.58-3.17.4-4.58-.26-1.07-.5-2.2-.94-3.19-1.61-.27-.18-.59-.22-.89-.16-.32.05-.61.09-.89-.1-1.43-.95-3.22-1.5-3.84-3.35-.13-.37-.39-.58-.65-.78-.74-.59-1.03-1.36-.89-2.25.14-.9-.14-1.6-.75-2.2-.78-.78-1-1.7-.82-2.76.29-1.75.02-3.6.64-5.27.61-1.63,1.42-3.21,2.37-4.68.35-.55,1.02-.95,1.43-1.57.51-.77,1.39-.94,2.25-.99.43-.02.87-.03,1.23-.24,1.1-.67,2.25-.73,3.46-.43Z"/>
          <path class="cls-6" d="M957.02,981.91c.02.73-.35,1.32-.87,1.71-.73.55-1.03,1.22-.99,2.08.04.97-.59,1.49-1.3,1.89-1.09.61-2.05,1.37-2.87,2.3-.4.45-.94.68-1.51.81-1.58.35-3.11.83-4.62,1.4-.48.18-.98.32-1.47.16-2.51-.83-5.06-1.54-7.48-2.63-1.65-.74-2.62-2.1-3.42-3.6-.56-1.05-1.45-1.79-2.23-2.62-.62-.65-1.14-1.25-1.01-2.2.02-.15.04-.34-.03-.45-1.75-2.81.07-5.17.93-7.66.55-1.58,1.83-2.43,3.04-3.47,2.16-1.87,4.52-3.12,7.29-3.71.89-.19,1.63-.79,2.62-.83.84-.03,1.6.01,2.34.41.07.04.15.11.2.1,2.42-.58,3.85,1.18,5.55,2.32.51.35,1.08.65,1.24,1.3.25.96.84,1.75,1.41,2.5,1.67,2.23,2.69,4.72,3.11,7.44.14.9.07,1.84.09,2.76Z"/>
          <path class="cls-3" d="M968.1,1045.09c.39.26.82.19,1.24.16,2.02-.15,3.86.59,5.68,1.27.74.28,1.1,1.18,1.19,1.99.09.75-.32,1.36-1.04,1.65-1.16.47-2.32.97-3.47,1.42-1.83.72-3.81.98-5.73,1.91.91.5,1.78.57,2.52,1.08.63.44,1.37.72,1.24,1.58-.15.97-.78,1.73-1.77,1.93-2.84.58-5.7,1.1-8.54.01-.46-.18-.63.07-.83.37-.49.72-.92,1.47-1.35,2.22-.52.91-1.14,1.81-1.53,2.79-.46,1.14-1.27,2.03-1.96,3-.61.86-1.66,1.21-2.74,1.18-1.33-.03-1.65-1.2-2.25-2.06-.8-1.14-.13-2.5-.62-3.67-.03-.76-.03-1.53-.11-2.29-.05-.54-.37-.62-.91-.5-.8.19-1.57.47-2.48.36-1.21-.15-1.51-1.03-1.82-1.84-.3-.78.13-1.34.87-1.9,2.12-1.59,4.26-3.13,6.49-4.55.58-.37,1.17-.54,1.91-.64-1.25-.85-1.76-2.27-2.81-3.26-.19-.57-.84-.77-1.05-1.35-.3-.83-.26-1.55.51-2.04.78-.49,1.41-.24,2,.47,1,1.21,1.9,2.51,3.29,3.36.41.25.57.31.93-.03,1.84-1.71,3.77-3.31,5.06-5.55,1-1.73,3.13-2.29,4.98-1.52,1.32.55,1.77,1.84,1.1,3.2-.23.46-.03,1.09-.62,1.41.92.37,1.74-.41,2.61-.16Z"/>
          <path class="cls-3" d="M1050.25,1081.9c-.61,1.09-.71,2.42-1.78,3.29-.98.8-1.72.66-2.2-.53-.67-1.68-.97-3.36-.91-5.22.04-1.35.12-2.8-.25-4.18-.14-.51-.54-.95-.87-.97-1.38-.09-2.39-1.07-3.75-1.32-1.57-.29-3.05-1.32-4.46-2.2-.89-.55-.38-2.51.67-2.86,1.37-.45,2.74-1.07,4.19-.17.26.16.66.09,1.24.16-2.19-2.77-2.28-5.58-.67-8.48,1.81-1.44,2.45-1.41,3.63.69.9,1.6,2.36,2.67,3.4,4.11.26.37.44.02.66-.07,1.05-.4,1.42-1.48,2.17-2.19.43-.41.83-.88,1.27-1.31,1.01-1,2.09-1.03,3.02.1.94,1.14,1.48,2.52,1.41,3.99-.05,1.13,0,2.31-.49,3.41-.35.79.35,1.22.67,1.79.65,1.13,1.48,1.97,2.86,2.08.58.04.85.48,1.19.83-.03.39.26.62.46.9.62.87.54,1.66-.06,2.55-.53.78-1.12.89-1.97.68-.57-.14-1.21-.06-1.81,0-.41.04-.67.23-.58.78.2,1.24.41,2.47.89,3.63.95,2.33-.08,3.95-2.8,4.38-1.26-.98-2.63-1.83-3.66-3.1-.29-.35-.65-.64-.98-.96-.34-.37-.38.01-.49.2Z"/>
          <path class="cls-7" d="M959.98,968.51c.18-1.93.1-3.92.97-5.71.52-1.06,1.28-1.99,1.82-3.04,1.36-2.66,3.88-3.12,6.44-3.29,1.39-.09,2.71.68,3.72,1.62,2.49,2.32,3.32,5.42,3.45,8.67.07,1.86-.91,3.54-1.93,5.09-.28.42-.56.82-.73,1.3-.71,2.13-3.25,3.75-5.52,3.72-1.27-.02-2.47.01-3.42-1-.11-.12-.36-.15-.54-.15-1.85-.07-2.76-1.2-3.18-2.84-.19-.75-.35-1.47-.84-2.11-.5-.66-.32-1.48-.24-2.25Z"/>
          <path class="cls-7" d="M1049.97,975.05c-.37.8-.4,1.81-.14,2.85.05.21,0,.48-.11.68-.97,1.87-1.86,3.89-3.43,5.23-2.06,1.76-4.49,2.67-7.34,1.42-1.09-.48-2.04-1.01-2.9-1.8-.8-.73-1.24-1.57-1.04-2.67.01-.08.07-.18.04-.22-.96-1.41-.47-2.99-.58-4.51-.03-.46-.3-.96-.08-1.36.84-1.61.98-3.48,1.92-5.05.52-.87,1.21-1.45,2.19-1.77.9-.3,1.9-.4,2.66-1.07.03-.02.07-.03.11-.05,1.27-.52,4.54.37,5.37,1.48.21.29.41.54.75.69.24.11.47.28.66.47,1.04,1,2.11,4.04,1.94,5.68Z"/>
          <path class="cls-1" d="M985.4,1113.13c0-.57.24-.76.66-.92-.06.44-.22.71-.66.92Z"/>
          <path class="cls-16" d="M997.59,1089.25c.01.89-.26,1.51-1.19,1.58-1.07.07-2.17-.79-2.27-1.87-.06-.63-.13-1.34.37-1.87.49-.52.99-1.25,1.83-.88,1.01.44,1.03,1.53,1.32,2.41.07.2-.04.45-.06.63Z"/>
          <path class="cls-14" d="M1027.09,1073.2c-.19-.88-.09-1.66.93-1.77,1.02-.11,1.73.6,2.24,1.36.55.8-.7,3.08-1.66,3.17-1.28.12-2.17-1.02-1.74-2.26.06-.18.16-.34.24-.49Z"/>
          <path class="cls-14" d="M1014.61,1088.71c.2-.97.92-1.48,1.76-1.76.67-.23,1.18.19,1.49.8.35.71-.44,2.9-1.16,3.24-.8.38-1.69,0-1.91-.88-.11-.44-.12-.91-.18-1.39Z"/>
          <path class="cls-20" d="M1012.54,1072.86c-.09,1.09-1.16,1.81-2.6,1.7-.84-.06-1.23-.62-1.18-1.42.04-.76,1.62-2.24,2.28-2.2.76.04,1.58,1.09,1.51,1.91Z"/>
          <path class="cls-14" d="M999.76,1107.38c-1.49-.26-2.37-1.27-2.12-2.45.18-.83.74-1.13,1.54-1.01,1.46.23,2.36,1.29,2.13,2.52-.16.86-.75,1.09-1.55.94Z"/>
          <path class="cls-14" d="M1033.39,1096.91c-.56-.07-.96-.32-1.07-.89-.14-.71.24-1.2.79-1.53.7-.42,1.19-1.41,2.29-.84,1.22.64,1.31,1.87.16,2.63-.66.43-1.39.63-2.17.63Z"/>
          <path class="cls-18" d="M1041.84,1083.31c-1-.13-1.54-.92-1.37-2.01.15-.92.99-1.33,2.39-1.15.79.1,1.43.95,1.32,1.74-.12.82-1.33,1.56-2.34,1.43Z"/>
          <path class="cls-20" d="M1021.77,1107.24c-1.7-.15-2.7-.94-2.65-1.94.05-.8,1.1-1.47,2.12-1.33.74.1,1.76,1.35,1.67,2.13-.09.75-.54,1.17-1.14,1.14Z"/>
          <path class="cls-19" d="M1050.25,1081.9l.09-.81c.33.09.3.39.4.61-.16.07-.33.13-.49.2Z"/>
          <path class="cls-16" d="M970.96,1074.11c.31-1.68,1.23-2.32,2.44-1.71.4.21.77.52.72.96-.1.98.13,1.88.36,2.82.23.95-1.06,2.25-2.04,2.22-.47-.01-1.02-.29-.97-.66.17-1.28-1.13-2.33-.5-3.64Z"/>
          <path class="cls-16" d="M982.29,1058.49c.87.11,2.25,1.86,2.43,3.01.14.92-.51,1.3-1.14,1.67-.52.3-1.21.3-1.44-.21-.4-.85-1.03-1.45-1.61-2.14-.4-.47-.46-1.14-.06-1.73.47-.68,1.23-.49,1.83-.61Z"/>
          <path class="cls-16" d="M959.7,1080.1c-.15,1.08-1.39,1.57-2.31.86-1-.77-1.54-1.91-1.96-3.05-.31-.83.59-1.58,1.56-1.43,1.18.19,2.87,2.45,2.71,3.62Z"/>
          <path class="cls-14" d="M980.9,1098.03c-.11.53-.35,1.12-.97,1.23-1.19.21-2.27-.24-3.24-.89-.42-.29-.57-.81-.4-1.34.27-.89,1.28-1.4,2.09-1.01.35.17.68.25,1.07.28.83.07,1.51.91,1.45,1.74Z"/>
          <path class="cls-2" d="M989.68,1077.58c-.12,1.25-1.06,2.12-1.89,2.06-.86-.06-1.39-.82-1.34-1.91.02-.42-.08-.84-.03-1.26.06-.6.31-1.13.96-1.3.59-.16,1.02.11,1.39.58.5.65,1,1.28.92,1.83Z"/>
        </g>
      </g>
      <g>
        <path class="cls-4" d="M97.55,273.2c-2.28-.4-4.57-.67-6.89-.75-7.8-.26-16.02,1.89-21.47,7.48-5.45,5.58-7.25,15.01-2.76,21.4,3.28,4.67,9.03,6.91,14.6,8.15,8.24,1.84,16.83,2.06,25.15.65-8.84,8.81-12.86,18.2-13.96,31.87-.42,5.26,1.9,10.57,3.81,13.34,3.09,4.48,9.87,6.77,15.47,6.15,3.62-.4,9.68-3.63,12.31-6.94,7.52-9.43,11.57-21.39,12.28-33.43,6.61,12.21,15.2,22.86,27.71,28.89,7.46,3.6,13.21,2.81,17.51.3,4.83-2.82,7.99-9.23,7.91-14.9-.08-5.67-2.66-11.03-5.86-15.71-5.1-7.46-11.92-13.75-19.78-18.21,6.97,2.05,14.72,3.17,21.98,3.32,7.26.14,14.87-1.87,20.04-6.97,5.17-5.1,7.19-13.69,3.46-19.92-2.72-4.55-7.85-7.12-12.95-8.56-9.14-2.57-19.08-2.2-28,1.05,5.47-3.08,12.08-11.78,14.71-17.48,3.97-8.64,1.96-15.85-1.61-20.43-3.15-4.05-9.13-8.04-16.31-8-5.74.04-11.66,3.5-17.23,10.89-4.31,5.72-8.39,14.65-10.37,21.52-1.95-10.78-7.41-22.86-16.88-29.88-3.45-2.56-9.15-5.3-15.08-2.3-6.71,3.4-7.97,10.98-8.41,16.2-1.12,13.43,7.14,27.78,17.17,36.79-5.44-1.75-10.93-3.54-16.55-4.53Z"/>
        <circle class="cls-10" cx="134.44" cy="291.45" r="12.47"/>
      </g>
      <g>
        <path class="cls-9" d="M267.2,137.46c1.38-1.46,2.67-2.99,3.83-4.64,3.92-5.53,6.28-12.52,4.84-19.14-1.44-6.62-7.42-12.42-14.19-12.23-4.95.14-9.32,3.25-12.89,6.69-5.27,5.09-9.54,11.22-12.49,17.92-2.17-10.62-7.05-18.02-16.43-25.34-3.61-2.82-8.57-3.67-11.49-3.61-4.73.1-9.62,3.92-11.85,8.28-1.44,2.82-1.99,8.75-.86,12.24,3.25,9.95,9.98,18.61,18.37,24.87-12.01-1.04-23.83.09-34.18,6.28-6.18,3.69-8.35,8.23-8.58,12.55-.26,4.85,2.87,10.2,7.02,12.85,4.15,2.65,9.27,3.34,14.19,3.26,7.85-.13,15.66-2.07,22.65-5.63-4.81,4.07-9.33,9.15-12.91,14.35-3.57,5.2-5.75,11.67-4.52,17.86,1.23,6.19,6.49,11.75,12.79,12.02,4.6.2,8.91-2.29,12.39-5.3,6.23-5.4,10.71-12.78,12.62-20.8-.38,5.43,2.76,14.39,5.64,19.01,4.36,7.01,10.56,8.99,15.58,8.59,4.44-.35,10.19-2.77,13.59-8,2.72-4.18,3.04-10.12.34-17.7-2.09-5.85-6.61-13.08-10.65-17.8,8.75,3.73,20.11,5.55,29.72,2.04,3.5-1.28,8.22-4.1,8.87-9.83.74-6.49-4.15-11.03-7.73-13.84-9.2-7.23-23.55-8.09-34.87-5.14,3.86-3.11,7.79-6.23,11.19-9.83Z"/>
        <circle class="cls-10" cx="236.35" cy="155.48" r="10.82"/>
      </g>
    </g>
  </g>
</svg>