<?xml version="1.0" encoding="UTF-8"?>
<svg id="Layer_2" data-name="Layer 2" xmlns="http://www.w3.org/2000/svg" xmlns:xlink="http://www.w3.org/1999/xlink" viewBox="0 0 1230 1230">
  <defs>
    <style>
      .cls-1 {
        fill: #fff;
      }

      .cls-2 {
        fill: none;
      }

      .cls-3 {
        fill: #fbfdfd;
      }

      .cls-4 {
        fill: #8fc1f8;
      }

      .cls-5 {
        fill: #caf0f8;
      }

      .cls-6 {
        fill: #8ec1f8;
      }

      .cls-7 {
        clip-path: url(#clippath);
      }
    </style>
    <clipPath id="clippath">
      <rect class="cls-2" width="1230" height="1230"/>
    </clipPath>
  </defs>
  <g id="NOTES">
    <g>
      <g>
        <rect class="cls-5" width="1230" height="1230"/>
        <g class="cls-7">
          <g>
            <path class="cls-1" d="M1260.76,1264.95H-37.6V-33.41h1298.36v1298.36ZM-34.6,1261.95h1292.36V-30.41H-34.6v1292.36Z"/>
            <rect class="cls-1" x="-36.1" y="1118.03" width="1295.36" height="3"/>
            <rect class="cls-1" x="-36.1" y="974.1" width="1295.36" height="3"/>
            <rect class="cls-1" x="-36.1" y="830.17" width="1295.36" height="3"/>
            <rect class="cls-1" x="-36.1" y="686.24" width="1295.36" height="3"/>
            <rect class="cls-1" x="-36.1" y="542.31" width="1295.36" height="3"/>
            <rect class="cls-1" x="-36.1" y="398.38" width="1295.36" height="3"/>
            <rect class="cls-1" x="-36.1" y="254.45" width="1295.36" height="3"/>
            <rect class="cls-1" x="-36.1" y="110.52" width="1295.36" height="3"/>
            <rect class="cls-1" x="1113.83" y="-31.91" width="3" height="1295.36"/>
            <rect class="cls-1" x="969.91" y="-31.91" width="3" height="1295.36"/>
            <rect class="cls-1" x="825.98" y="-31.91" width="3" height="1295.36"/>
            <rect class="cls-1" x="682.05" y="-31.91" width="3" height="1295.36"/>
            <rect class="cls-1" x="538.12" y="-31.91" width="3" height="1295.36"/>
            <rect class="cls-1" x="394.19" y="-31.91" width="3" height="1295.36"/>
            <rect class="cls-1" x="250.26" y="-31.91" width="3" height="1295.36"/>
            <rect class="cls-1" x="106.33" y="-31.91" width="3" height="1295.36"/>
          </g>
        </g>
      </g>
      <g>
        <path class="cls-1" d="M86.9,990.71c11.49-4.59,11.98-15.08,11.15-27.76-.66-10.07,3.09-20.18,13.49-25.87,12.05-6.59,26.02-4.96,35.36,6.15,4.41,5.25,7.5,5.57,13.67,3.62,17.66-5.59,32.84,1.97,38.31,17.92,3.6,10.49-.95,25.68-9.94,33.17-1.51,1.26-2.93,2.8-4.68,3.59-5.94,2.7-6.55,6.44-4.08,12.32,4.45,10.64,2.91,20.98-4.18,30.13-9.24,11.91-26.37,14.26-39.31,5.58-1.96-1.31-3.96-2.76-5.43-4.56-4.52-5.53-9.52-6.62-16.57-4.59-13.14,3.8-26.32-1.19-32.38-10.99-7.63-12.36-6.45-25.77,4.61-38.72Z"/>
        <path class="cls-1" d="M289.41,1046.3c12.47,11.34,14.05,22.49,10.79,34.8-.7,2.65-1.73,5.29-3.06,7.68-3.42,6.16-2.99,11.03,1.54,17.18,7.53,10.23,6.79,23.09-.14,32.05-8.01,10.35-19.12,12.9-30.78,9.16-8.4-2.7-14.45-2.4-21.48,3.37-6.81,5.6-15.69,7.56-24.68,5.65-13.66-2.9-22.67-16.85-20.67-31.58.86-6.33,2.49-12.81,6.34-17.66,4.34-5.47,3.3-9.53.25-14.79-4.2-7.24-6.34-15.19-6.76-23.69-.56-11.24,3.4-20.25,12.58-26.44,9.4-6.34,19.93-6.45,29.03-.16,7.55,5.22,13.17,6.85,22.09,2.17,9.02-4.74,19.32-3.17,24.95,2.26Z"/>
        <path class="cls-3" d="M257.86,987.99c5.94,4.97,6.88,13.85,2.12,20.05-4.59,5.99-15.75,7.72-21.32,3.31-6.48-5.13-7.04-14.02-1.3-20.86,6.18-7.36,13.62-8.26,20.5-2.51Z"/>
        <path class="cls-4" d="M149.88,985.88c4.63,4.2,5.41,12.62,1.6,17.23-4.58,5.53-13.94,6.55-19.21,2.09-5.56-4.7-6.21-12.39-1.52-17.94,4.65-5.51,13.85-6.17,19.14-1.38Z"/>
        <path class="cls-6" d="M258.44,1105.24c-5.13,6.18-11.78,7.25-17.48,2.8-5.23-4.08-5.63-12.95-.85-19.02,5.26-6.69,12.59-7.83,18.34-2.85,5.01,4.34,5.01,13.03-.01,19.07Z"/>
        <path class="cls-1" d="M1110.83,114.65c-7.4-1.92-10.79-5.43-12.03-12.36-.48-2.69-1.34-5.39-2.47-7.89-5.23-11.61-13.49-19.27-30.32-20.21-7.79-.66-16.78,4.62-20.78,13.98-3.96,9.26-9.36,11.54-18.51,12.25-11.02.86-19.12,7.58-22.42,18.43-3.22,10.59-.61,20.09,6.91,28.45,5.7,6.33,12.36,11.15,20.19,14.12,5.69,2.15,9.06,4.65,9.14,11.63.07,6.2,2.89,12.25,6.21,17.71,7.74,12.69,23.53,17.83,35.96,11.47,8.18-4.19,13.83-11.31,15.58-19.95,1.81-8.91,6.32-12.96,14.54-16.16,11.4-4.45,18.42-13.44,18.11-26.52-.27-11.32-7.81-21.77-20.11-24.95ZM1079.14,139.46c-.08,8.03-4.57,13.05-11.8,13.2-6.63.13-12.53-6.5-12.66-14.22-.14-8.52,4.83-14.02,12.43-13.78,6.63.21,12.1,6.95,12.02,14.81Z"/>
      </g>
    </g>
  </g>
</svg>