<?xml version="1.0" encoding="UTF-8"?>
<svg id="Layer_2" data-name="Layer 2" xmlns="http://www.w3.org/2000/svg" viewBox="0 0 1230 1230">
  <defs>
    <style>
      .cls-1 {
        fill: #f05b43;
      }

      .cls-2 {
        fill: #b8dadd;
      }

      .cls-3 {
        fill: #547045;
      }

      .cls-4 {
        fill: #f2aba8;
      }

      .cls-5 {
        fill: #ffe1e1;
      }

      .cls-6 {
        fill: #fefefe;
      }
    </style>
  </defs>
  <g id="NOTES">
    <g>
      <rect class="cls-5" width="1230" height="1230"/>
      <path class="cls-3" d="M1083.87,1069.02s0-.01.01-.02c.28-.6.39-1.26.37-1.92-.5-23.15-1-46.31-1.5-69.46-4.26-1.16-7.58-1.74-11.22.54-.16.1-.25.27-.25.46.18,23.85,1.17,45.97,1.39,69.75.01,1.19.88,2.2,2.09,2.42,1.24.23,2.46.35,3.81.24,2.23-.18,4.29.17,5.31-2Z"/>
      <path class="cls-6" d="M1149.01,415.52c0-168.35-136.47-304.82-304.82-304.82-90.2,0-171.22,39.21-227.03,101.48-55.81-62.27-136.83-101.48-227.03-101.48-168.35,0-304.82,136.47-304.82,304.82,0,83.55,33.64,159.23,88.09,214.29-54.45,55.06-88.09,130.74-88.09,214.29,0,168.35,136.47,304.82,304.82,304.82,90.2,0,171.22-39.21,227.03-101.48,55.81,62.27,136.83,101.48,227.03,101.48,168.35,0,304.82-136.47,304.82-304.82,0-83.55-33.64-159.23-88.09-214.29,54.45-55.06,88.09-130.74,88.09-214.29ZM606.86,629.81c3.53-3.57,6.96-7.22,10.31-10.96,3.35,3.74,6.78,7.39,10.31,10.96-3.53,3.57-6.96,7.22-10.31,10.96-3.35-3.74-6.78-7.39-10.31-10.96Z"/>
      <path class="cls-3" d="M1032.99,1020.03c8.69-.51,17.54,1.88,24.77,6.75,7.65,5.15,13.42,13.02,16.03,21.87,2.07,7,2.18,14.43,1.7,21.72-6.85.99-16.23-2.1-22.92-7.92-6.69-5.82-12.07-12.58-16.07-20.49-3.07-6.07-5.63-13.45-5.17-20.28.06-.88.78-1.59,1.66-1.64,0,0,.01,0,.02,0Z"/>
      <path class="cls-3" d="M145.1,738.43s0-.01,0-.02c.26-.57.37-1.2.35-1.82-.48-21.99-.95-43.97-1.43-65.96-4.05-1.11-7.2-1.65-10.66.51-.15.09-.24.26-.24.43.17,22.65,1.11,43.66,1.32,66.23.01,1.13.84,2.09,1.98,2.3s2.33.33,3.62.23c2.12-.18,4.07.16,5.04-1.9Z"/>
      <path class="cls-3" d="M179.43,690.14c-4.52.98-9.03,2.05-13.37,3.65-5.02,1.86-9.83,4.49-13.62,8.27-4.77,4.76-7.69,11.16-9.01,17.76-1.31,6.61-1.09,13.44-.2,20.12,7.69-.35,13.75-4.05,19.52-9.14,5.77-5.09,10.01-11.75,12.96-18.86,2.67-6.44,4.31-13.25,5.5-20.13.18-1.03-.74-1.91-1.76-1.69,0,0-.01,0-.02,0Z"/>
      <path class="cls-3" d="M1080.38,302.26s0-.01.01-.02c.27-.59.38-1.24.37-1.88-.49-22.74-.98-45.47-1.48-68.21-4.18-1.14-7.44-1.71-11.02.53-.15.1-.25.27-.24.45.17,23.42,1.15,45.14,1.36,68.49.01,1.16.87,2.16,2.05,2.38s2.41.34,3.74.23c2.19-.18,4.21.17,5.21-1.97Z"/>
      <path class="cls-3" d="M1115.89,252.32c-4.68,1.02-9.34,2.12-13.83,3.78-5.19,1.92-10.17,4.64-14.08,8.55-4.93,4.92-7.96,11.54-9.31,18.37-1.36,6.83-1.13,13.9-.21,20.8,7.95-.36,14.22-4.19,20.19-9.45,5.97-5.26,10.36-12.15,13.4-19.5,2.76-6.66,4.46-13.7,5.68-20.81.18-1.06-.77-1.98-1.82-1.75,0,0-.01,0-.02,0Z"/>
      <g>
        <path class="cls-3" d="M1125.27,1018.16c-4.76,1.04-9.51,2.15-14.08,3.85-5.29,1.96-10.35,4.73-14.34,8.71-5.02,5.01-8.1,11.75-9.48,18.71-1.38,6.96-1.15,14.15-.21,21.19,8.09-.37,14.48-4.27,20.56-9.62s10.55-12.37,13.65-19.86c2.81-6.78,4.54-13.96,5.79-21.2.19-1.08-.78-2.01-1.85-1.78,0,0-.01,0-.02,0Z"/>
        <path class="cls-3" d="M102.04,691.91c8.25-.49,16.66,1.79,23.52,6.41,7.26,4.89,12.74,12.37,15.22,20.77,1.96,6.65,2.07,13.7,1.61,20.62-6.5.94-15.41-1.99-21.77-7.52-6.35-5.53-11.46-11.95-15.26-19.46-2.92-5.76-5.35-12.77-4.91-19.26.06-.84.74-1.51,1.58-1.56,0,0,0,0,.01,0Z"/>
        <g>
          <path class="cls-4" d="M1132.07,947.32c.18-6.09-.08-12.22-.42-18.29-.36-6.42-1.39-13.87-6.93-17.14-4.55-2.69-10.62-1.3-14.8,1.93-4.18,3.24-6.89,7.96-9.49,12.57-1.61-4.7-3.26-9.49-6.24-13.46-2.98-3.98-7.55-7.09-12.52-7.04-5.22.05-9.91,3.58-12.76,7.95-2.85,4.38-4.17,9.54-5.45,14.6-1.91-4.09-3.87-8.27-7.08-11.45-3.2-3.18-7.95-5.19-12.29-3.95-3.92,1.12-6.76,4.69-8.09,8.54-1.33,3.85-1.88,7.41-1.94,11.48-.78,10.38.71,20.16,2.37,30.44,1.66,10.27,6.22,19.87,14.67,27.64,7.94,7.3,18.89,11.5,30,12.14,8.11.47,17.71-.82,24.92-4.56,12.51-6.49,19.58-18.03,23.14-30.64,1.91-6.76,2.7-13.73,2.9-20.76Z"/>
          <path class="cls-1" d="M191.13,622.87c.17-5.78-.07-11.6-.39-17.37-.34-6.1-1.32-13.17-6.58-16.28-4.32-2.56-10.09-1.24-14.06,1.84s-6.54,7.56-9.01,11.93c-1.53-4.46-3.1-9.01-5.93-12.78s-7.17-6.73-11.89-6.69c-4.96.05-9.41,3.4-12.11,7.55s-3.96,9.06-5.18,13.87c-1.81-3.88-3.68-7.86-6.72-10.87-3.04-3.02-7.55-4.93-11.67-3.75-3.72,1.07-6.42,4.45-7.68,8.11s-1.78,7.03-1.84,10.91c-.74,9.86.67,19.15,2.25,28.9,1.58,9.76,5.9,18.86,13.93,26.25,7.54,6.94,17.93,10.92,28.49,11.53,7.7.44,16.81-.78,23.66-4.33,11.88-6.16,18.59-17.12,21.98-29.09,1.81-6.42,2.56-13.04,2.75-19.71Z"/>
          <path class="cls-2" d="M1127.81,182.76c.17-5.98-.08-12-.41-17.96-.35-6.31-1.36-13.62-6.8-16.83-4.47-2.64-10.43-1.28-14.54,1.9s-6.77,7.82-9.32,12.34c-1.58-4.62-3.21-9.32-6.13-13.22s-7.41-6.96-12.29-6.91c-5.13.05-9.73,3.51-12.53,7.81-2.79,4.3-4.1,9.37-5.35,14.34-1.87-4.02-3.8-8.12-6.95-11.24-3.15-3.12-7.81-5.1-12.06-3.88-3.85,1.1-6.64,4.6-7.95,8.39s-1.84,7.27-1.9,11.28c-.77,10.19.7,19.8,2.33,29.89,1.63,10.09,6.1,19.51,14.4,27.14,7.8,7.17,18.55,11.3,29.46,11.92,7.96.46,17.39-.8,24.47-4.48,12.28-6.38,19.23-17.7,22.73-30.09,1.88-6.64,2.65-13.48,2.85-20.39Z"/>
        </g>
        <path class="cls-3" d="M1035.67,254.16c8.54-.51,17.23,1.85,24.32,6.63,7.51,5.06,13.18,12.79,15.74,21.47,2.03,6.87,2.14,14.17,1.66,21.32-6.73.98-15.94-2.06-22.51-7.78-6.57-5.71-11.85-12.35-15.78-20.12-3.02-5.96-5.53-13.21-5.08-19.91.06-.87.77-1.56,1.63-1.61,0,0,0,0,.01,0Z"/>
      </g>
    </g>
  </g>
</svg>