<?xml version="1.0" encoding="UTF-8"?>
<svg id="Layer_2" data-name="Layer 2" xmlns="http://www.w3.org/2000/svg" xmlns:xlink="http://www.w3.org/1999/xlink" viewBox="0 0 1230 1230">
  <defs>
    <style>
      .cls-1 {
        fill: #f05b43;
      }

      .cls-2 {
        fill: #fff;
      }

      .cls-3 {
        fill: #547045;
      }

      .cls-4 {
        fill: none;
      }

      .cls-5 {
        fill: #f2aba8;
      }

      .cls-6 {
        fill: #abdce0;
      }

      .cls-7 {
        fill: #8bbff9;
      }

      .cls-8 {
        fill: #fcd24e;
      }

      .cls-9 {
        clip-path: url(#clippath-2);
      }

      .cls-10 {
        fill: #fefefe;
      }

      .cls-11 {
        fill: #fad35a;
      }

      .cls-12 {
        clip-path: url(#clippath);
      }
    </style>
    <clipPath id="clippath">
      <rect class="cls-4" width="1230" height="1230"/>
    </clipPath>
    <clipPath id="clippath-2">
      <polygon class="cls-4" points="1138.94 0 1073.97 0 971.43 0 906.45 0 803.91 0 738.94 0 636.4 0 571.42 0 468.88 0 403.91 0 301.37 0 236.4 0 133.86 0 68.88 0 -2.16 0 -2.16 79.13 -2.16 144.11 -2.16 246.65 -2.16 311.62 -2.16 414.16 -2.16 479.13 -2.16 581.67 -2.16 646.65 -2.16 749.19 -2.16 814.16 -2.16 916.7 -2.16 981.67 -2.16 1084.22 -2.16 1149.19 -2.16 1230 68.88 1230 133.86 1230 236.4 1230 301.37 1230 403.91 1230 468.88 1230 571.42 1230 636.4 1230 738.94 1230 803.91 1230 906.45 1230 971.43 1230 1073.97 1230 1138.94 1230 1227.84 1230 1227.84 1149.19 1227.84 1084.22 1227.84 981.67 1227.84 916.7 1227.84 814.16 1227.84 749.19 1227.84 646.65 1227.84 581.67 1227.84 479.13 1227.84 414.16 1227.84 311.62 1227.84 246.65 1227.84 144.11 1227.84 79.13 1227.84 0 1138.94 0"/>
    </clipPath>
  </defs>
  <g id="NOTES">
    <g class="cls-12">
      <rect class="cls-10" x="-138.32" y="781.67" width="1438.32" height="562.43"/>
      <g>
        <g id="_3" data-name="3">
          <polygon class="cls-7" points="1138.94 0 1073.97 0 971.43 0 906.45 0 803.91 0 738.94 0 636.4 0 571.42 0 468.88 0 403.91 0 301.37 0 236.4 0 133.86 0 68.88 0 -2.16 0 -2.16 79.13 -2.16 144.11 -2.16 246.65 -2.16 311.62 -2.16 414.16 -2.16 479.13 -2.16 581.67 -2.16 646.65 -2.16 749.19 -2.16 814.16 -2.16 916.7 -2.16 981.67 -2.16 1084.22 -2.16 1149.19 -2.16 1230 68.88 1230 133.86 1230 236.4 1230 301.37 1230 403.91 1230 468.88 1230 571.42 1230 636.4 1230 738.94 1230 803.91 1230 906.45 1230 971.43 1230 1073.97 1230 1138.94 1230 1227.84 1230 1227.84 1149.19 1227.84 1084.22 1227.84 981.67 1227.84 916.7 1227.84 814.16 1227.84 749.19 1227.84 646.65 1227.84 581.67 1227.84 479.13 1227.84 414.16 1227.84 311.62 1227.84 246.65 1227.84 144.11 1227.84 79.13 1227.84 0 1138.94 0"/>
          <g class="cls-9">
            <path class="cls-2" d="M1314.01,532.72c6.89-128.48-105.18-238.95-250.33-246.74-58-3.11-112.49,10.66-157.47,36.49-12.88-25.48-29.67-49.96-50.48-72.73-127.78-139.79-357.95-162.83-514.1-51.46-77.5,55.27-122.16,133.28-131.91,214.91-92.4-8.79-188.13,13.34-265.64,68.61-156.15,111.37-179.15,314.97-51.38,454.76,8.88,9.72,18.27,18.86,28.08,27.44v422.99h410.72c116.8,63.68,266.61,65.82,385.14,0h558.35v-487.27c17.28-72.17,6.58-149.39-33.72-217.79,42.38-38.7,69.59-90.79,72.73-149.23ZM556.7,774.43c-.42,2.41-.82,4.83-1.18,7.25h-17.96c.43-2.85.82-5.7,1.16-8.56,5.98.57,11.98,1,17.98,1.31Z"/>
          </g>
          <g>
            <path class="cls-8" d="M961.74,101.54c-7.29,13.23-7.47,30.1-.49,43.49s20.94,22.88,35.96,24.46c5.91.62,11.94.09,17.64-1.59,14.91-4.39,27.11-17.01,30.98-32.06,3.87-15.05-.71-31.99-11.65-43.03-21.14-21.33-57.7-18.01-72.44,8.73Z"/>
            <path class="cls-8" d="M963.27,58.37c2.52,5.1,5.04,10.19,7.56,15.29.72,1.45,1.43,2.9,2.15,4.35.39.79,1.37,1.46,2.2,1.69.88.24,2.06.13,2.84-.37s1.48-1.26,1.69-2.2c.23-1,.09-1.91-.37-2.84-2.52-5.1-5.04-10.19-7.56-15.29-.72-1.45-1.43-2.9-2.15-4.35-.39-.79-1.37-1.46-2.2-1.69-.88-.24-2.06-.13-2.84.37s-1.48,1.26-1.69,2.2c-.23,1-.09,1.91.37,2.84h0Z"/>
            <path class="cls-8" d="M1014.08,47.36c-.8,5.63-1.6,11.26-2.4,16.89-.23,1.6-.46,3.2-.68,4.8-.15.49-.18.98-.07,1.47.02.49.17.95.44,1.37.45.76,1.32,1.49,2.2,1.69.94.21,2,.17,2.84-.37.75-.48,1.56-1.28,1.69-2.2.8-5.63,1.6-11.26,2.4-16.89.23-1.6.46-3.2.68-4.8.15-.49.18-.98.07-1.47-.02-.49-.17-.95-.44-1.37-.45-.76-1.32-1.49-2.2-1.69-.94-.21-2-.17-2.84.37-.75.48-1.56,1.28-1.69,2.2h0Z"/>
            <path class="cls-8" d="M1056.68,71.79c-4.22,3.26-8.43,6.52-12.65,9.78-1.24.96-2.48,1.92-3.72,2.87-.69.53-1.08,1.78-1.08,2.6,0,.9.4,1.98,1.08,2.6s1.62,1.12,2.6,1.08l.98-.13c.62-.18,1.17-.49,1.63-.95,4.22-3.26,8.43-6.52,12.65-9.78,1.24-.96,2.48-1.92,3.72-2.87.69-.53,1.08-1.78,1.08-2.6,0-.9-.4-1.98-1.08-2.6s-1.62-1.12-2.6-1.08l-.98.13c-.62.18-1.17.49-1.63.95h0Z"/>
            <path class="cls-8" d="M1075.97,125.35c-5.21-1.14-10.41-2.27-15.62-3.41-1.53-.33-3.06-.67-4.59-1-.97-.21-1.97-.14-2.84.37-.76.45-1.49,1.32-1.69,2.2-.21.94-.17,2,.37,2.84.5.78,1.26,1.49,2.2,1.69,5.21,1.14,10.41,2.27,15.62,3.41,1.53.33,3.06.67,4.59,1,.97.21,1.97.14,2.84-.37.76-.45,1.49-1.32,1.69-2.2.21-.94.17-2-.37-2.84-.5-.78-1.26-1.49-2.2-1.69h0Z"/>
            <path class="cls-8" d="M1064.16,168.28c-4.41-2.99-8.82-5.98-13.23-8.97-1.3-.88-2.59-1.76-3.89-2.64-.76-.52-1.98-.61-2.84-.37s-1.78.9-2.2,1.69c-.45.85-.68,1.89-.37,2.84s.87,1.64,1.69,2.2c4.41,2.99,8.82,5.98,13.23,8.97,1.3.88,2.59,1.76,3.89,2.64.76.52,1.98.61,2.84.37s1.78-.9,2.2-1.69c.45-.85.68-1.89.37-2.84s-.87-1.64-1.69-2.2h0Z"/>
            <path class="cls-8" d="M980.33,198.57c2.15-4.88,4.3-9.75,6.45-14.63.63-1.43,1.26-2.87,1.9-4.3.27-.42.41-.88.44-1.37.11-.49.09-.98-.07-1.47-.24-.85-.9-1.78-1.69-2.2-.85-.45-1.89-.68-2.84-.37-.85.28-1.82.84-2.2,1.69-2.15,4.88-4.3,9.75-6.45,14.63-.63,1.43-1.26,2.87-1.9,4.3-.27.42-.41.88-.44,1.37-.11.49-.09.98.07,1.47.24.85.9,1.78,1.69,2.2.85.45,1.89.68,2.84.37.85-.28,1.82-.84,2.2-1.69h0Z"/>
            <path class="cls-8" d="M946.32,175.78c4.29-3.17,8.57-6.33,12.86-9.5,1.26-.93,2.52-1.86,3.78-2.79.43-.23.77-.55,1.03-.95.33-.36.55-.77.66-1.25.24-.88.13-2.06-.37-2.84s-1.26-1.48-2.2-1.69-2.06-.21-2.84.37c-4.29,3.17-8.57,6.33-12.86,9.5-1.26.93-2.52,1.86-3.78,2.79-.43.23-.77.55-1.03.95-.33.36-.55.77-.66,1.25-.24.88-.13,2.06.37,2.84s1.26,1.48,2.2,1.69,2.06.21,2.84-.37h0Z"/>
            <path class="cls-8" d="M930.52,97.77c4.79,2.35,9.57,4.69,14.36,7.04,1.41.69,2.81,1.38,4.22,2.07.9.44,1.85.64,2.84.37.85-.24,1.78-.9,2.2-1.69.45-.85.68-1.89.37-2.84-.28-.87-.84-1.78-1.69-2.2-4.79-2.35-9.57-4.69-14.36-7.04-1.41-.69-2.81-1.38-4.22-2.07-.9-.44-1.85-.64-2.84-.37-.85.24-1.78.9-2.2,1.69-.45.85-.68,1.89-.37,2.84.28.87.84,1.78,1.69,2.2h0Z"/>
            <path class="cls-8" d="M929.09,141.56c4.56-.46,9.12-.93,13.68-1.39,1.45-.15,2.9-.3,4.35-.44.51.02.98-.09,1.42-.32.46-.15.85-.4,1.19-.76.64-.64,1.12-1.69,1.08-2.6s-.36-1.94-1.08-2.6c-.68-.62-1.65-1.18-2.6-1.08-4.56.46-9.12.93-13.68,1.39-1.45.15-2.9.3-4.35.44-.51-.02-.98.09-1.42.32-.46.15-.85.4-1.19.76-.64.64-1.12,1.69-1.08,2.6s.36,1.94,1.08,2.6c.68.62,1.65,1.18,2.6,1.08h0Z"/>
            <path class="cls-8" d="M1027.33,193.26c-1.32-4.6-2.65-9.19-3.97-13.79-.41-1.43-.82-2.86-1.23-4.29-.26-.9-.88-1.73-1.69-2.2s-1.95-.66-2.84-.37-1.75.84-2.2,1.69-.65,1.87-.37,2.84c1.32,4.6,2.65,9.19,3.97,13.79.41,1.43.82,2.86,1.23,4.29.26.9.88,1.73,1.69,2.2s1.95.66,2.84.37,1.75-.84,2.2-1.69.65-1.87.37-2.84h0Z"/>
          </g>
        </g>
        <g>
          <g>
            <path class="cls-3" d="M742.56,1165.49s0-.01,0-.02c.22-.47.3-.99.29-1.51-.39-18.2-.79-36.39-1.18-54.59-3.35-.92-5.96-1.37-8.82.42-.12.08-.2.22-.2.36.14,18.74.92,36.13,1.09,54.81,0,.93.69,1.73,1.64,1.9s1.93.28,2.99.19c1.75-.15,3.37.13,4.17-1.58Z"/>
            <path class="cls-11" d="M776.32,1069.85c.14-4.78-.06-9.6-.33-14.37-.28-5.05-1.09-10.9-5.44-13.47-3.57-2.12-8.35-1.02-11.63,1.52s-5.42,6.26-7.46,9.88c-1.27-3.69-2.57-7.46-4.91-10.58-2.34-3.13-5.93-5.57-9.84-5.53-4.1.04-7.79,2.81-10.03,6.25-2.24,3.44-3.28,7.5-4.29,11.48-1.5-3.21-3.04-6.5-5.56-9-2.52-2.5-6.25-4.08-9.66-3.11-3.08.88-5.31,3.68-6.36,6.71s-1.48,5.82-1.52,9.03c-.62,8.16.56,15.85,1.86,23.92,1.31,8.07,4.88,15.61,11.53,21.72,6.24,5.74,14.84,9.04,23.58,9.54,6.37.37,13.92-.64,19.58-3.58,9.83-5.1,15.39-14.17,18.19-24.08,1.5-5.31,2.12-10.79,2.28-16.32Z"/>
            <path class="cls-3" d="M770.98,1125.52c-3.74.81-7.48,1.69-11.07,3.02-4.15,1.54-8.14,3.71-11.27,6.84-3.95,3.94-6.37,9.23-7.45,14.7-1.09,5.47-.9,11.12-.17,16.65,6.36-.29,11.38-3.35,16.16-7.56s8.29-9.72,10.73-15.61c2.21-5.33,3.57-10.97,4.55-16.66.15-.85-.61-1.58-1.46-1.4,0,0-.01,0-.02,0Z"/>
            <path class="cls-3" d="M702.58,1126.99c6.83-.4,13.79,1.48,19.46,5.3,6.01,4.05,10.55,10.24,12.6,17.19,1.62,5.5,1.71,11.34,1.33,17.07-5.38.78-12.76-1.65-18.02-6.22-5.26-4.57-9.49-9.89-12.63-16.11-2.41-4.77-4.43-10.57-4.07-15.94.05-.69.61-1.25,1.31-1.29,0,0,0,0,.01,0Z"/>
          </g>
          <g>
            <path class="cls-3" d="M491.51,1165.54s0-.01,0-.02c.21-.46.3-.96.28-1.46-.38-17.68-.77-35.37-1.15-53.05-3.25-.89-5.79-1.33-8.57.41-.12.07-.19.21-.19.35.13,18.22.89,35.11,1.06,53.27,0,.91.68,1.68,1.59,1.85s1.88.27,2.91.18c1.7-.14,3.28.13,4.06-1.53Z"/>
            <path class="cls-5" d="M524.32,1072.59c.14-4.65-.06-9.33-.32-13.97-.27-4.91-1.06-10.59-5.29-13.09-3.47-2.06-8.11-.99-11.31,1.48-3.19,2.47-5.26,6.08-7.25,9.6-1.23-3.59-2.49-7.25-4.77-10.28s-5.77-5.41-9.56-5.38c-3.99.04-7.57,2.73-9.74,6.07-2.17,3.34-3.19,7.29-4.16,11.16-1.46-3.12-2.96-6.32-5.41-8.75-2.45-2.43-6.07-3.97-9.38-3.02-2.99.86-5.16,3.58-6.18,6.52s-1.43,5.66-1.48,8.77c-.6,7.93.54,15.4,1.81,23.25,1.27,7.85,4.75,15.17,11.2,21.11,6.06,5.58,14.43,8.79,22.92,9.27,6.19.36,13.52-.63,19.03-3.48,9.55-4.96,14.95-13.77,17.68-23.4,1.46-5.16,2.06-10.49,2.22-15.86Z"/>
            <path class="cls-3" d="M519.12,1126.69c-3.64.79-7.27,1.65-10.75,2.94-4.04,1.5-7.91,3.61-10.95,6.65-3.84,3.83-6.19,8.97-7.24,14.29s-.88,10.81-.16,16.18c6.18-.28,11.06-3.26,15.7-7.35s8.06-9.45,10.42-15.17c2.15-5.18,3.47-10.66,4.42-16.19.14-.83-.6-1.54-1.41-1.36,0,0-.01,0-.02,0Z"/>
            <path class="cls-3" d="M452.65,1128.12c6.64-.39,13.4,1.44,18.92,5.16,5.84,3.93,10.25,9.95,12.24,16.7,1.58,5.35,1.66,11.02,1.29,16.59-5.23.76-12.4-1.6-17.51-6.05s-9.22-9.61-12.28-15.65c-2.35-4.64-4.3-10.27-3.95-15.49.05-.67.6-1.21,1.27-1.25,0,0,0,0,.01,0Z"/>
          </g>
          <g>
            <path class="cls-3" d="M658.06,1165.54s0-.01,0-.02c.21-.46.3-.96.28-1.46-.38-17.68-.77-35.37-1.15-53.05-3.25-.89-5.79-1.33-8.57.41-.12.07-.19.21-.19.35.13,18.22.89,35.11,1.06,53.27,0,.91.68,1.68,1.59,1.85s1.88.27,2.91.18c1.7-.14,3.28.13,4.06-1.53Z"/>
            <path class="cls-6" d="M690.87,1072.59c.14-4.65-.06-9.33-.32-13.97-.27-4.91-1.06-10.59-5.29-13.09-3.47-2.06-8.11-.99-11.31,1.48-3.19,2.47-5.26,6.08-7.25,9.6-1.23-3.59-2.49-7.25-4.77-10.28s-5.77-5.41-9.56-5.38c-3.99.04-7.57,2.73-9.74,6.07-2.17,3.34-3.19,7.29-4.16,11.16-1.46-3.12-2.96-6.32-5.41-8.75s-6.07-3.97-9.38-3.02c-2.99.86-5.16,3.58-6.18,6.52-1.02,2.94-1.43,5.66-1.48,8.77-.6,7.93.54,15.4,1.81,23.25,1.27,7.85,4.75,15.17,11.2,21.11,6.06,5.58,14.43,8.79,22.92,9.27,6.19.36,13.52-.63,19.03-3.48,9.55-4.96,14.95-13.77,17.68-23.4,1.46-5.16,2.06-10.49,2.22-15.86Z"/>
            <path class="cls-3" d="M685.68,1126.69c-3.64.79-7.27,1.65-10.75,2.94-4.04,1.5-7.91,3.61-10.95,6.65-3.84,3.83-6.19,8.97-7.24,14.29-1.06,5.31-.88,10.81-.16,16.18,6.18-.28,11.06-3.26,15.7-7.35,4.64-4.09,8.06-9.45,10.42-15.17,2.15-5.18,3.47-10.66,4.42-16.19.14-.83-.6-1.54-1.41-1.36,0,0-.01,0-.02,0Z"/>
            <path class="cls-3" d="M619.21,1128.12c6.64-.39,13.4,1.44,18.92,5.16,5.84,3.93,10.25,9.95,12.24,16.7,1.58,5.35,1.66,11.02,1.29,16.59-5.23.76-12.4-1.6-17.51-6.05-5.11-4.45-9.22-9.61-12.28-15.65-2.35-4.64-4.3-10.27-3.95-15.49.05-.67.6-1.21,1.27-1.25,0,0,0,0,.01,0Z"/>
          </g>
          <g>
            <path class="cls-3" d="M574.79,1165.54s0-.01,0-.02c.21-.46.3-.96.28-1.46-.38-17.68-.77-35.37-1.15-53.05-3.25-.89-5.79-1.33-8.57.41-.12.07-.19.21-.19.35.13,18.22.89,35.11,1.06,53.27,0,.91.68,1.68,1.59,1.85s1.88.27,2.91.18c1.7-.14,3.28.13,4.06-1.53Z"/>
            <path class="cls-1" d="M607.59,1072.59c.14-4.65-.06-9.33-.32-13.97-.27-4.91-1.06-10.59-5.29-13.09-3.47-2.06-8.11-.99-11.31,1.48-3.19,2.47-5.26,6.08-7.25,9.6-1.23-3.59-2.49-7.25-4.77-10.28-2.27-3.04-5.77-5.41-9.56-5.38-3.99.04-7.57,2.73-9.74,6.07-2.17,3.34-3.19,7.29-4.16,11.16-1.46-3.12-2.96-6.32-5.41-8.75s-6.07-3.97-9.38-3.02c-2.99.86-5.16,3.58-6.18,6.52s-1.43,5.66-1.48,8.77c-.6,7.93.54,15.4,1.81,23.25s4.75,15.17,11.2,21.11c6.06,5.58,14.43,8.79,22.92,9.27,6.19.36,13.52-.63,19.03-3.48,9.55-4.96,14.95-13.77,17.68-23.4,1.46-5.16,2.06-10.49,2.22-15.86Z"/>
            <path class="cls-3" d="M602.4,1126.69c-3.64.79-7.27,1.65-10.75,2.94-4.04,1.5-7.91,3.61-10.95,6.65-3.84,3.83-6.19,8.97-7.24,14.29-1.06,5.31-.88,10.81-.16,16.18,6.18-.28,11.06-3.26,15.7-7.35,4.64-4.09,8.06-9.45,10.42-15.17,2.15-5.18,3.47-10.66,4.42-16.19.14-.83-.6-1.54-1.41-1.36,0,0-.01,0-.02,0Z"/>
            <path class="cls-3" d="M535.93,1128.12c6.64-.39,13.4,1.44,18.92,5.16,5.84,3.93,10.25,9.95,12.24,16.7,1.58,5.35,1.66,11.02,1.29,16.59-5.23.76-12.4-1.6-17.51-6.05-5.11-4.45-9.22-9.61-12.28-15.65-2.35-4.64-4.3-10.27-3.95-15.49.05-.67.6-1.21,1.27-1.25,0,0,0,0,.01,0Z"/>
          </g>
        </g>
        <g>
          <path class="cls-2" d="M200.56,193.15c6.57-8.77,5.37-19.32-1.54-27.04-5.96-6.66-14.04-7.69-21.32-5.48-9.18,2.79-16.96,4.22-22.31-3.43-11.41-5.91-21.47-4.48-29.24,3.25-6.16,6.13-7.57,16.67-2.53,25.67,2.7,4.83,2.76,8.69-.53,12.96-1.07,1.39-1.79,3.11-2.42,4.77-4.16,11,.5,23.18,10.83,27.93,7.93,3.65,15.8,3.01,22.85-2.09,3.9-2.82,6.75-3.01,9.75.89.88,1.14,2.25,1.92,3.44,2.82,7.05,5.33,18.98,6.07,26.08,1.62,10.78-6.75,13.74-19.2,6.61-31.22-2.49-4.2-2.78-6.52.32-10.66ZM169.73,202.65c-2.29,4.12-8.35,6.14-12.39,4.13-4.85-2.42-7.2-9.12-4.83-13.76,2.5-4.89,8.04-6.69,12.92-4.19,4.84,2.47,6.91,9.12,4.29,13.83Z"/>
          <path class="cls-2" d="M144.43,280.2c3.06-7.76,1.18-15.48-5.09-21.3-6.12-5.69-13.42-7.05-21.58-4.71-6.18,1.77-11.65,4.7-16.25,9.03-3.34,3.14-6.15,4.6-10.91,2.35-4.23-2-9.26-2.09-14.06-1.64-11.17,1.05-19.87,10.06-19.66,20.6.14,6.93,3.1,13.12,8.38,17.16,5.45,4.17,6.7,8.57,6.16,15.2-.75,9.21,3.03,16.94,12,21.05,7.76,3.56,17.34,1.9,23.57-5.39,3.75-4.38,7.25-5.53,12.36-4.07,1.99.56,4.1.87,6.17.93,9.61.29,17.53-2.78,23.73-13.89,3.03-5.07,2.41-12.9-2.62-18.72-4.97-5.75-4.73-10.16-2.19-16.6ZM114.64,299.6c-2.33,4.43-8.71,5.91-14.01,3.26-5.42-2.71-7.34-7.41-5.05-12.36,2.1-4.54,8.55-6.35,13.83-3.88,5.82,2.72,7.91,7.91,5.24,12.99Z"/>
          <path class="cls-2" d="M181.33,267.72c-6-3.04-12.44-1.12-15.1,4.53-2.29,4.85.89,12.75,6.08,15.1,5.38,2.43,11.74.22,14.37-4.99,3.05-6.04,1.11-11.36-5.35-14.64Z"/>
        </g>
      </g>
    </g>
  </g>
</svg>