<?xml version="1.0" encoding="UTF-8"?>
<svg id="Layer_1" data-name="Layer 1" xmlns="http://www.w3.org/2000/svg" viewBox="0 0 1350 1350">
  <path d="M1167.99,410.49c-66.86-8.69-136.9-12.07-209.47-13.15-1.14-76.86-4.89-150.87-14.78-221.28-6.92-49.24-64.89-73.19-104.52-43.14-55.83,42.34-109.95,91.31-164.24,144.02-52.5-50.97-104.84-98.45-158.73-139.82-40.59-31.16-99.16-6.95-106.07,43.75-9.39,68.97-13,141.36-14.11,216.47-74.14,1.1-145.64,4.62-213.81,13.74-50.77,6.79-75.06,65.53-43.82,106.12,41.13,53.43,88.27,105.36,138.82,157.44-53.24,54.85-102.68,109.53-145.31,165.97-29.95,39.66-5.99,97.55,43.23,104.45,70.29,9.85,144.17,13.58,220.89,14.72,1.08,72.45,4.45,142.37,13.11,209.13,6.59,50.83,65.38,75.2,106.07,44.03,54.24-41.55,106.9-89.32,159.73-140.6,54.63,53.03,109.09,102.29,165.3,144.81,40.25,30.45,98.07,5.09,104.7-44.94,8.98-67.75,12.44-138.79,13.54-212.43,74.6-1.11,146.52-4.66,215.06-13.9,50.62-6.83,74.8-65.1,43.99-105.84-42.53-56.24-91.81-110.73-144.87-165.39,50.74-52.28,98.04-104.39,139.28-158.03,31.25-40.65,6.87-99.51-43.98-106.12Z"/>
</svg>