<?xml version="1.0" encoding="UTF-8"?>
<svg id="Layer_1" data-name="Layer 1" xmlns="http://www.w3.org/2000/svg" viewBox="0 0 1350 1350">
  <defs>
    <style>
      .cls-1 {
        fill: #919191;
      }
    </style>
  </defs>
  <path d="M1179.66,590.48c-39.82-30.29-85.7-52.99-135.5-66.01,26.53-44.83,43.21-93.86,50.02-143.99,9.64-70.95-51.14-131.74-122.1-122.09-49.57,6.74-98.06,23.15-142.47,49.16-12.94-50.47-35.83-96.94-66.46-137.21-43.35-56.99-129.32-56.99-172.67,0-30.29,39.82-52.99,85.7-66.01,135.5-44.83-26.53-93.86-43.21-143.99-50.02-70.95-9.65-131.74,51.14-122.1,122.1,6.74,49.57,23.15,98.06,49.16,142.47-50.46,12.94-96.94,35.83-137.21,66.46-56.99,43.35-57,129.32,0,172.67,39.82,30.29,85.7,53,135.5,66.01-26.53,44.82-43.21,93.86-50.02,143.99-9.65,70.95,51.14,131.74,122.09,122.1,49.57-6.74,98.06-23.15,142.48-49.16,12.94,50.47,35.83,96.94,66.46,137.21,43.35,56.99,129.32,57,172.67,0,30.29-39.82,53-85.7,66.01-135.5,44.83,26.53,93.86,43.21,143.99,50.02,70.95,9.65,131.74-51.14,122.1-122.09-6.74-49.57-23.15-98.06-49.16-142.48,50.47-12.94,96.94-35.83,137.21-66.46,56.99-43.35,56.99-129.32,0-172.67Z"/>
  <circle class="cls-1" cx="675" cy="675" r="193.1" transform="translate(-279.59 675) rotate(-45)"/>
</svg>