<?xml version="1.0" encoding="UTF-8"?>
<svg id="Layer_1" data-name="Layer 1" xmlns="http://www.w3.org/2000/svg" viewBox="0 0 1350 1350">
  <path d="M1231.21,675c0,42.11-40.06,79.05-48.82,118.44-9.04,40.68,11.16,91.69-6.15,128.39-17.6,37.31-69.38,52.85-94.4,84.9-25.15,32.2-28.54,87.24-60.03,112.95-31.34,25.59-84.53,16.81-121.01,34.81-35.89,17.71-62.23,65.87-102.01,75.12-38.53,8.96-82.61-22.55-123.79-22.55s-85.26,31.51-123.79,22.55c-39.78-9.25-66.12-57.41-102.01-75.12-36.48-18-89.67-9.22-121.01-34.81-31.49-25.71-34.88-80.75-60.03-112.95-25.02-32.05-76.8-47.59-94.4-84.9-17.32-36.7,2.89-87.71-6.15-128.39-8.76-39.4-48.82-76.33-48.82-118.44s40.06-79.05,48.82-118.44c9.04-40.68-11.16-91.69,6.15-128.39,17.6-37.31,69.38-52.85,94.4-84.9,25.15-32.2,28.54-87.24,60.03-112.95,31.34-25.59,84.53-16.81,121.01-34.81,35.89-17.71,62.23-65.87,102.01-75.12,38.53-8.96,82.61,22.55,123.79,22.55s85.26-31.51,123.79-22.55c39.78,9.25,66.12,57.41,102.01,75.12,36.48,18,89.67,9.22,121.01,34.81,31.49,25.71,34.88,80.75,60.03,112.95,25.02,32.05,76.8,47.59,94.4,84.9,17.32,36.7-2.89,87.71,6.15,128.39,8.76,39.4,48.82,76.33,48.82,118.44Z"/>
</svg>