<?xml version="1.0" encoding="UTF-8"?>
<svg id="Layer_1" data-name="Layer 1" xmlns="http://www.w3.org/2000/svg" viewBox="0 0 1350 1350">
  <path d="M674.99,1210.28c96.98,0,194.69-33.16,285.85-102.53,70.31-53.51,131.39-121.57,178.34-202.89,116.48-201.74,118.8-437.94,27.29-634.17-100.59,8.8-198.49,39.63-286.16,90.48-50.5-87.87-119.87-163.52-202.58-221.44-83.47,58.44-153.35,134.95-203.96,223.84-88.71-52.27-188.08-83.95-290.23-92.88-91.51,196.23-89.18,432.43,27.29,634.17,46.95,81.33,108.03,149.38,178.34,202.89,91.16,69.38,188.84,102.53,285.82,102.53Z"/>
</svg>