<?xml version="1.0" encoding="UTF-8"?>
<svg id="Layer_1" data-name="Layer 1" xmlns="http://www.w3.org/2000/svg" viewBox="0 0 1350 1350">
  <path d="M1020.26,676.55c114.37-69.21,182.46-186.6,193.34-310.97-112.71-52.56-247.81-52.51-364.63,11.19-2.75-133.66-70.37-251.32-172.64-322.92-101.87,71.33-169.38,188.36-172.62,321.37-117.13-64.45-252.83-64.71-365.98-11.95,10.84,123.89,78.43,240.86,192.01,310.18-114.37,69.21-182.46,186.6-193.34,310.97,112.71,52.56,247.81,52.51,364.63-11.19,2.75,133.66,70.37,251.32,172.64,322.92,101.88-71.33,169.38-188.35,172.62-321.37,117.13,64.45,252.83,64.71,365.98,11.95-10.84-123.89-78.43-240.86-192.01-310.18Z"/>
</svg>