<?xml version="1.0" encoding="UTF-8"?>
<svg id="Layer_1" data-name="Layer 1" xmlns="http://www.w3.org/2000/svg" viewBox="0 0 1350 1350">
  <path d="M1229.13,675c0-36.45-43.85-61.89-89.38-61.19,44.16-11.11,79.93-47.03,70.49-82.23-9.43-35.21-58.37-48.43-102.17-35.97,39.78-22.16,65.03-66.11,46.81-97.68-18.23-31.57-68.92-31.67-107.99-8.3,32.69-31.7,45.71-80.69,19.93-106.46-25.77-25.77-74.76-12.76-106.46,19.93,23.37-39.08,23.27-89.77-8.3-107.99-31.57-18.22-75.52,7.03-97.68,46.81,12.46-43.8-.76-92.73-35.97-102.17s-71.13,26.33-82.23,70.49c.7-45.53-24.74-89.38-61.19-89.38s-61.89,43.85-61.19,89.38c-11.11-44.16-47.03-79.93-82.23-70.49-35.21,9.43-48.43,58.37-35.97,102.17-22.16-39.78-66.11-65.03-97.68-46.81-31.57,18.23-31.67,68.92-8.3,108-31.7-32.69-80.69-45.71-106.46-19.93-25.77,25.77-12.76,74.76,19.93,106.46-39.08-23.37-89.77-23.27-107.99,8.3-18.23,31.57,7.03,75.52,46.81,97.68-43.8-12.46-92.73.76-102.17,35.97-9.43,35.21,26.33,71.13,70.49,82.23-45.53-.7-89.37,24.74-89.37,61.19s43.85,61.89,89.38,61.19c-44.16,11.11-79.93,47.03-70.49,82.23,9.43,35.21,58.37,48.43,102.17,35.97-39.78,22.16-65.03,66.11-46.81,97.68,18.23,31.57,68.92,31.67,107.99,8.3-32.69,31.7-45.71,80.69-19.93,106.46,25.77,25.77,74.77,12.76,106.46-19.93-23.37,39.08-23.27,89.77,8.3,107.99,31.57,18.23,75.52-7.03,97.68-46.81-12.46,43.8.76,92.73,35.97,102.17,35.21,9.43,71.13-26.33,82.23-70.49-.7,45.53,24.74,89.38,61.19,89.38s61.89-43.85,61.19-89.38c11.11,44.16,47.03,79.93,82.23,70.49,35.21-9.43,48.43-58.37,35.97-102.17,22.16,39.78,66.11,65.03,97.68,46.81,31.57-18.22,31.67-68.91,8.3-107.99,31.7,32.69,80.69,45.71,106.46,19.93,25.77-25.77,12.76-74.77-19.93-106.46,39.08,23.37,89.77,23.27,107.99-8.3,18.22-31.57-7.03-75.52-46.81-97.68,43.8,12.46,92.73-.76,102.17-35.97,9.43-35.21-26.33-71.13-70.49-82.23,45.53.7,89.38-24.74,89.38-61.19ZM675,675l-.04.08.04-.08h0s-.03-.02-.03-.02l.03.02h0Z"/>
</svg>