<svg xmlns="http://www.w3.org/2000/svg" viewBox="0 0 512 512">
  <defs>
    <radialGradient id="g" cx="35%" cy="30%" r="70%">
      <stop offset="0%" stop-color="#fff6fb" stop-opacity="1"/>
      <stop offset="55%" stop-color="#f6b6d3" stop-opacity="1"/>
      <stop offset="100%" stop-color="#d4537e" stop-opacity="1"/>
    </radialGradient>
    <filter id="blur" x="-50%" y="-50%" width="200%" height="200%">
      <feGaussianBlur stdDeviation="16"/>
    </filter>
  </defs>
  <rect width="512" height="512" rx="120" fill="#fff6fa"/>
  <g filter="url(#blur)" opacity="0.65">
    <circle cx="170" cy="175" r="130" fill="#f2a7c8"/>
    <circle cx="338" cy="245" r="150" fill="#f0c5ea"/>
    <circle cx="240" cy="330" r="160" fill="#ffd1b8"/>
  </g>
  <path
    d="M256 378c-69 0-127-49-137-114-11-71 43-130 108-141 24-4 48 1 69 13 21-12 45-17 69-13 65 11 119 70 108 141-10 65-68 114-137 114Z"
    fill="url(#g)"
    opacity="0.96"
  />
  <g fill="#1b0b13" opacity="0.9">
    <path d="M206 238c0-14 11-25 25-25 10 0 18 6 22 14 1 3-2 6-5 4-4-4-10-7-17-7-11 0-19 8-19 19 0 3-3 5-6 3-0-2 0-5 0-8Z"/>
    <path d="M306 238c0-14-11-25-25-25-10 0-18 6-22 14-1 3 2 6 5 4 4-4 10-7 17-7 11 0 19 8 19 19 0 3 3 5 6 3 0-2 0-5 0-8Z"/>
    <path d="M212 300c-2 0-3-2-2-4 10-22 26-33 46-33 20 0 36 11 46 33 1 2 0 4-2 4h-2c-1 0-2-1-3-2-8-18-21-27-39-27-18 0-31 9-39 27-1 1-2 2-3 2h-2Z"/>
  </g>
</svg>
